<svg width="80" height="80" viewBox="0 0 80 80" fill="none" xmlns="http://www.w3.org/2000/svg">
<path d="M40 60L40.3536 60.3536L40 60.7071L39.6464 60.3536L40 60ZM60.3536 40.3536L40.3536 60.3536L39.6464 59.6464L59.6464 39.6464L60.3536 40.3536ZM39.6464 60.3536L19.6464 40.3536L20.3536 39.6464L40.3536 59.6464L39.6464 60.3536Z" fill="white"/>
<path d="M40 40L40.3536 40.3536L40 40.7071L39.6464 40.3536L40 40ZM60.3536 20.3536L40.3536 40.3536L39.6464 39.6464L59.6464 19.6464L60.3536 20.3536ZM39.6464 40.3536L19.6464 20.3536L20.3536 19.6464L40.3536 39.6464L39.6464 40.3536Z" fill="white"/>
</svg>
