<svg width="111" height="26" viewBox="0 0 111 26" fill="none" xmlns="http://www.w3.org/2000/svg">
<path d="M37.0625 25.13C37 25.13 37 25.1002 37 25.0705V22.2749C37 22.2452 37 22.2154 37.0625 22.2154H37.3125C37.375 22.2154 37.375 22.2452 37.375 22.2749V23.4645H37.6875C37.8437 23.4645 37.9375 23.4348 38.0312 23.1076L38.125 22.8102C38.1875 22.6318 38.2187 22.4534 38.3125 22.3641C38.4062 22.2452 38.5625 22.2154 38.6562 22.2154H38.7187C38.7499 22.2154 38.7812 22.1857 38.8124 22.2452L38.8749 22.4236C38.8749 22.4534 38.9062 22.4831 38.8124 22.4831H38.7499C38.6874 22.4831 38.6249 22.5128 38.5624 22.6021C38.5 22.6913 38.4687 22.7805 38.4687 22.8995L38.4062 23.1374C38.3437 23.3158 38.3125 23.524 38.0937 23.643C38.3437 23.7322 38.4062 23.9106 38.4375 23.9998L38.5937 24.5649C38.6249 24.6839 38.6562 24.7433 38.6875 24.7731C38.7499 24.8325 38.8124 24.8326 38.8437 24.8623H38.9374C39.0312 24.8623 38.9999 24.9218 38.9999 24.9218L38.9374 25.13C38.9062 25.1894 38.8749 25.1894 38.7812 25.1597H38.7187C38.5 25.13 38.4062 25.0407 38.3437 24.9813C38.25 24.892 38.2187 24.7433 38.1875 24.5649L38.0625 24.1485C37.9687 23.8214 37.8437 23.7917 37.6875 23.7917H37.375V25.1002C37.375 25.1299 37.375 25.1597 37.3125 25.1597H37.0625V25.13Z" fill="white"/>
<path d="M41.4374 24.119C41.4374 24.9517 40.9375 25.1896 40.5625 25.1896C40.1875 25.1896 39.6875 24.9517 39.6875 24.119C39.6875 23.2863 40.1875 23.0483 40.5625 23.0483C40.9375 23.0483 41.4374 23.2565 41.4374 24.119ZM40.0625 24.119C40.0625 24.3272 40.0937 24.9219 40.5937 24.9219C41.0937 24.9219 41.125 24.3272 41.125 24.119C41.125 23.9108 41.0937 23.316 40.5937 23.316C40.0937 23.316 40.0625 23.8811 40.0625 24.119Z" fill="white"/>
<path d="M42.7811 25.0706C42.7811 25.1003 42.7811 25.13 42.7186 25.13H42.4999C42.4374 25.13 42.4374 25.1003 42.4374 25.0706V23.1375C42.4374 23.1077 42.4374 23.078 42.4686 23.078L42.5624 23.0483L42.7186 23.0185C42.7499 23.0185 42.7499 23.0185 42.7499 23.0185C42.7811 23.0185 42.7811 23.0483 42.7811 23.0483V23.9107H43.6248V23.1077C43.6248 23.078 43.6248 23.0483 43.6561 23.0483L43.9061 22.9888C43.9373 22.9888 43.9373 22.9888 43.9373 22.9888C43.9686 22.9888 43.9686 23.0185 43.9686 23.0185V25.0111C43.9686 25.0408 43.9686 25.0706 43.9061 25.0706H43.6873C43.6561 25.0706 43.6248 25.0706 43.6248 25.0111V24.2081H42.7811V25.0706Z" fill="white"/>
<path d="M47.3747 23.6431C47.3747 23.5539 47.3748 23.4349 47.281 23.2565C47.2498 23.2267 47.2498 23.2267 47.2498 23.197C47.2498 23.1673 47.2498 23.1673 47.281 23.1673L47.4685 23.0483C47.4997 23.0483 47.4997 23.0186 47.531 23.0483C47.5935 23.1078 47.6247 23.197 47.656 23.2862L47.6872 23.2565C47.8122 23.1673 48.031 23.0186 48.281 23.0186C48.4997 23.0186 48.9997 23.1375 48.9997 24.0892C48.9997 25.0409 48.4685 25.1598 48.2185 25.1598C47.9685 25.1598 47.781 25.0409 47.7497 25.0111V25.8736C47.7497 25.8736 47.7497 25.9033 47.7185 25.9331L47.4997 25.9925C47.4685 25.9925 47.406 26.0223 47.406 25.9628V23.6431H47.3747ZM47.7185 24.7435C47.8435 24.8029 48.031 24.8922 48.1872 24.8922C48.6247 24.8922 48.6247 24.5055 48.6247 24.0892C48.6247 23.7026 48.5935 23.316 48.1872 23.316C47.9997 23.316 47.8122 23.4349 47.7185 23.5241V24.7435Z" fill="white"/>
<path d="M51.6246 24.119C51.6246 24.9517 51.1246 25.1896 50.7496 25.1896C50.3746 25.1896 49.8746 24.9517 49.8746 24.119C49.8746 23.2863 50.3746 23.0483 50.7496 23.0483C51.1246 23.0483 51.6246 23.2565 51.6246 24.119ZM50.2496 24.119C50.2496 24.3272 50.2809 24.9219 50.7808 24.9219C51.2808 24.9219 51.3121 24.3272 51.3121 24.119C51.3121 23.9108 51.2808 23.316 50.7808 23.316C50.2809 23.316 50.2496 23.8811 50.2496 24.119Z" fill="white"/>
<path d="M54.0307 25.0707C54.0307 25.1005 54.0307 25.1302 53.9682 25.1302H53.7494C53.6869 25.1302 53.6869 25.1005 53.6869 25.0707V23.3756H53.1557V23.4351C53.1557 23.7027 53.1245 24.2083 53.0932 24.4165C53.062 24.6544 52.9995 25.0113 52.687 25.1302C52.5932 25.1897 52.4995 25.1897 52.437 25.1897H52.4057C52.3745 25.1897 52.3745 25.16 52.3432 25.1302L52.312 24.9518C52.2807 24.8923 52.3432 24.8923 52.3745 24.8923H52.4057C52.4995 24.8923 52.687 24.8626 52.7495 24.5057C52.812 24.238 52.812 23.6432 52.812 23.2864V23.1674C52.812 23.1079 52.812 23.1079 52.8745 23.1079H53.9682C54.0307 23.1079 54.0307 23.1377 54.0307 23.1674V25.0707Z" fill="white"/>
<path d="M55.812 23.9404C55.812 23.8215 55.8432 23.643 55.937 23.4646C56.1245 23.1375 56.437 23.0185 56.6557 23.0185C57.0307 23.0185 57.5307 23.2564 57.5307 24.0891C57.5307 24.9219 57.0307 25.1598 56.6557 25.1598C56.3745 25.1598 56.0932 25.0111 55.937 24.7137C55.8432 24.565 55.812 24.3568 55.812 24.1784H55.4683V25.0408C55.4683 25.0706 55.4683 25.1003 55.4058 25.1003H55.187C55.1245 25.1003 55.1245 25.0706 55.1245 25.0408V23.1077C55.1245 23.078 55.1245 23.0483 55.1558 23.0483L55.4058 22.9888C55.437 22.9888 55.437 22.9888 55.437 22.9888C55.4683 22.9888 55.4683 23.0185 55.4683 23.0185V23.881H55.812V23.9404ZM56.1557 24.1189C56.1557 24.7434 56.4057 24.9219 56.6557 24.9219C57.1557 24.9219 57.1869 24.3271 57.1869 24.1189C57.1869 23.9107 57.1557 23.3159 56.6557 23.3159C56.4057 23.2862 56.1557 23.4646 56.1557 24.1189Z" fill="white"/>
<path d="M58.5305 23.1374C58.5305 23.1077 58.5305 23.0779 58.5618 23.0779L58.6555 23.0482L58.8118 23.0185C58.843 23.0185 58.843 23.0185 58.843 23.0185C58.8743 23.0185 58.8742 23.0482 58.8742 23.0482V24.1783V24.5947C58.9992 24.3865 59.0305 24.2973 59.093 24.2081L59.7805 23.0779C59.7805 23.0779 59.7805 23.0482 59.8117 23.0482L60.0617 22.9887C60.093 22.9887 60.093 22.9887 60.093 22.9887C60.1242 22.9887 60.1242 23.0185 60.1242 23.0185V25.011C60.1242 25.0705 60.093 25.0705 60.0617 25.0705H59.843C59.8117 25.0705 59.7805 25.0705 59.7805 25.011V23.9404V23.524C59.6242 23.7917 59.593 23.8512 59.5617 23.9107L58.8742 25.0408C58.8742 25.0705 58.843 25.0705 58.8118 25.0705H58.593C58.5305 25.0705 58.5305 25.0408 58.5305 25.011V23.1374ZM59.0305 22.3345C59.0617 22.5426 59.218 22.5724 59.3117 22.5724C59.4055 22.5724 59.5617 22.5426 59.593 22.3345V22.275C59.593 22.2452 59.593 22.2452 59.6242 22.2452H59.6555L59.8117 22.275C59.8117 22.275 59.843 22.275 59.8742 22.3345C59.8742 22.3345 59.8742 22.3642 59.8742 22.3939C59.8117 22.6616 59.593 22.8103 59.3117 22.8103C59.0305 22.8103 58.8118 22.6616 58.7493 22.3939C58.7493 22.3642 58.7493 22.3345 58.7493 22.3345C58.7493 22.3047 58.7805 22.275 58.8118 22.275L58.968 22.2452C58.9992 22.2452 59.0305 22.2155 59.0305 22.275V22.3345Z" fill="white"/>
<path d="M63.0616 23.9999C63.0616 23.9702 63.0616 23.9404 63.1241 23.9404H63.2179C63.4366 23.9404 63.6554 23.8512 63.6554 23.6133C63.6554 23.4646 63.5929 23.2862 63.3116 23.2862C63.1241 23.2862 62.9991 23.3456 62.8741 23.4646C62.8429 23.4943 62.8429 23.4944 62.8116 23.4944C62.8116 23.4944 62.7804 23.4943 62.7804 23.4646L62.6866 23.2862C62.6866 23.2564 62.6554 23.2564 62.7491 23.1672C62.9679 23.0185 63.1554 22.9888 63.3429 22.9888C63.8116 22.9888 63.9991 23.2564 63.9991 23.5538C63.9991 23.6133 63.9991 23.881 63.6866 23.9999C63.9054 24.0594 64.0616 24.2378 64.0616 24.4758C64.0616 24.8921 63.7491 25.13 63.2804 25.13C63.1554 25.13 62.9366 25.1003 62.6866 24.9813C62.6554 24.9516 62.6241 24.9516 62.6241 24.9219V24.8921L62.7179 24.7137C62.7179 24.7137 62.7179 24.6839 62.7491 24.6839C62.7804 24.6839 62.7804 24.6839 62.8116 24.7137C62.9679 24.8029 63.1241 24.8624 63.3116 24.8624C63.5929 24.8624 63.7179 24.6839 63.7179 24.5055C63.7179 24.1784 63.3741 24.1784 63.2804 24.1784H63.1554C63.1241 24.1784 63.0929 24.1486 63.0929 24.1189V23.9999H63.0616Z" fill="white"/>
<path d="M66.4991 24.9219C66.5303 24.9516 66.5303 24.9516 66.4991 24.9219C66.4991 24.9516 66.4678 24.9814 66.3428 25.0409C66.2179 25.1003 66.0304 25.1598 65.8429 25.1598C65.4054 25.1598 64.8741 24.9219 64.8741 24.0892C64.8741 23.4052 65.2491 23.0186 65.7491 23.0186C66.1241 23.0186 66.5303 23.197 66.5303 24.0594V24.0892C66.5303 24.1487 66.4991 24.1487 66.4678 24.1487H65.1866V24.1784C65.1866 24.6542 65.4991 24.8624 65.8116 24.8624C65.9991 24.8624 66.1554 24.8029 66.3116 24.7137C66.3428 24.7137 66.3428 24.684 66.3741 24.684C66.3741 24.684 66.4053 24.684 66.4053 24.7137L66.4991 24.9219ZM66.2178 23.9107C66.2178 23.881 66.2179 23.7026 66.1554 23.5539C66.0616 23.3457 65.9054 23.2862 65.7491 23.2862C65.4991 23.2862 65.2804 23.4647 65.2491 23.9107H66.2178Z" fill="white"/>
<path d="M68.3427 24.0596C68.374 24.1488 68.4052 24.2678 68.4052 24.357C68.4052 24.2975 68.4677 24.1488 68.499 24.0596L68.8427 23.1377C68.8427 23.1079 68.8427 23.1079 68.874 23.1079H69.1865C69.2177 23.1079 69.2177 23.1079 69.2177 23.1377L69.3427 25.1005C69.3427 25.1005 69.3427 25.1302 69.3115 25.1302H69.0615C69.0302 25.1302 69.0302 25.1005 69.0302 25.1005L68.9677 23.6432C68.9677 23.6135 68.9677 23.5838 68.9677 23.4945C68.9677 23.5838 68.9365 23.6135 68.9365 23.6432L68.5615 24.6544C68.5302 24.7139 68.5302 24.6841 68.499 24.6841H68.3115C68.2802 24.6841 68.2802 24.6841 68.249 24.6544L67.874 23.6432C67.874 23.6135 67.874 23.5838 67.8428 23.4945C67.8428 23.554 67.8428 23.6135 67.8428 23.6432L67.7803 25.1005C67.7803 25.1302 67.7803 25.1302 67.749 25.1302H67.499C67.4678 25.1302 67.4678 25.1005 67.4678 25.1005L67.5928 23.1377C67.5928 23.1079 67.5928 23.1079 67.624 23.1079H67.9365C67.9365 23.1079 67.9678 23.1079 67.9678 23.1377L68.3427 24.0596Z" fill="white"/>
<path d="M71.9051 24.9219C71.9051 24.9516 71.9051 24.9516 71.9051 24.9219C71.9051 24.9516 71.8738 24.9814 71.7489 25.0409C71.6239 25.1003 71.4364 25.1598 71.2489 25.1598C70.8114 25.1598 70.2802 24.9219 70.2802 24.0892C70.2802 23.4052 70.6551 23.0186 71.1551 23.0186C71.5301 23.0186 71.9363 23.197 71.9363 24.0594V24.0892C71.9363 24.1487 71.9051 24.1487 71.8738 24.1487H70.5926V24.1784C70.5926 24.6542 70.9051 24.8624 71.2176 24.8624C71.4051 24.8624 71.5614 24.8029 71.7176 24.7137C71.7489 24.7137 71.7489 24.684 71.7801 24.684C71.7801 24.684 71.8114 24.684 71.8114 24.7137L71.9051 24.9219ZM71.5926 23.9107C71.5926 23.881 71.5926 23.7026 71.5301 23.5539C71.4364 23.3457 71.2801 23.2862 71.1239 23.2862C70.8739 23.2862 70.6551 23.4647 70.6239 23.9107H71.5926Z" fill="white"/>
<path d="M74.4363 25.0707C74.4363 25.1005 74.4363 25.1302 74.3738 25.1302H74.1551C74.0926 25.1302 74.0926 25.1005 74.0926 25.0707V23.3756H73.5613V23.4351C73.5613 23.7027 73.5301 24.2083 73.4988 24.4165C73.4676 24.6544 73.4051 25.0113 73.0926 25.1302C72.9989 25.1897 72.9051 25.1897 72.8426 25.1897H72.8114C72.7801 25.1897 72.7801 25.16 72.7489 25.1302L72.7176 24.9518C72.6864 24.8923 72.7489 24.8923 72.7801 24.8923H72.8114C72.9051 24.8923 73.0926 24.8626 73.1551 24.5057C73.2176 24.238 73.2176 23.6432 73.2176 23.2864V23.1674C73.2176 23.1079 73.2176 23.1079 73.2801 23.1079H74.3738C74.4363 23.1079 74.4363 23.1377 74.4363 23.1674V25.0707Z" fill="white"/>
<path d="M75.5925 25.1301C75.53 25.1301 75.53 25.1003 75.53 25.0706V23.1375C75.53 23.1078 75.53 23.078 75.5613 23.078L75.8113 23.0186C75.8425 23.0186 75.8425 23.0186 75.8425 23.0186C75.8738 23.0186 75.8738 23.0483 75.8738 23.0483V23.8513H76.2175C76.4362 23.8513 76.5925 23.9107 76.7175 24C76.8425 24.0892 76.9362 24.2676 76.9362 24.4758C76.9362 24.684 76.8425 24.8624 76.6862 24.9516C76.53 25.0706 76.3425 25.1003 76.155 25.1003H75.5925V25.1301ZM75.8738 24.8624H76.1863C76.405 24.8624 76.6237 24.7732 76.6237 24.5055C76.6237 24.2974 76.4675 24.1487 76.1863 24.1487H75.8738V24.8624Z" fill="white"/>
<path d="M78.2174 25.0706C78.2174 25.1003 78.2174 25.13 78.1549 25.13H77.9361C77.8737 25.13 77.8737 25.1003 77.8737 25.0706V23.1375C77.8737 23.1077 77.8737 23.078 77.9049 23.078L77.9987 23.0483L78.1549 23.0185C78.1861 23.0185 78.1861 23.0185 78.1861 23.0185C78.2174 23.0185 78.2174 23.0483 78.2174 23.0483V23.9107H79.0611V23.1077C79.0611 23.078 79.0611 23.0483 79.0924 23.0483L79.3423 22.9888C79.3736 22.9888 79.3736 22.9888 79.3736 22.9888C79.4048 22.9888 79.4048 23.0185 79.4048 23.0185V25.0111C79.4048 25.0408 79.4048 25.0706 79.3423 25.0706H79.1236C79.0924 25.0706 79.0611 25.0706 79.0611 25.0111V24.2081H78.2174V25.0706Z" fill="white"/>
<path d="M80.4985 23.1375C80.4985 23.1077 80.4985 23.078 80.5298 23.078L80.6235 23.0483L80.7798 23.0185C80.811 23.0185 80.811 23.0185 80.811 23.0185C80.8423 23.0185 80.8423 23.0483 80.8423 23.0483V24.1784V24.5947C80.9985 24.3271 81.0298 24.2676 81.061 24.2081L81.7485 23.078C81.7485 23.078 81.7485 23.0483 81.7797 23.0483L82.0297 22.9888C82.061 22.9888 82.061 22.9888 82.061 22.9888C82.0922 22.9888 82.0922 23.0185 82.0922 23.0185V25.0111C82.0922 25.0706 82.061 25.0706 82.0297 25.0706H81.811C81.7797 25.0706 81.7485 25.0706 81.7485 25.0111V23.9404V23.5241C81.6235 23.762 81.5297 23.881 81.5297 23.9107L80.8423 25.0408C80.8423 25.0706 80.811 25.0706 80.7798 25.0706H80.561C80.4985 25.0706 80.4985 25.0408 80.4985 25.0111V23.1375Z" fill="white"/>
<path d="M83.186 23.1374C83.186 23.1077 83.186 23.0779 83.2173 23.0779L83.311 23.0482L83.4673 23.0185C83.4985 23.0185 83.4985 23.0185 83.4985 23.0185C83.5298 23.0185 83.5298 23.0482 83.5298 23.0482V24.1783V24.5947C83.6548 24.3865 83.686 24.2973 83.7485 24.2081L84.436 23.0779C84.436 23.0779 84.436 23.0482 84.4672 23.0482L84.7172 22.9887C84.7485 22.9887 84.7485 22.9887 84.7485 22.9887C84.7797 22.9887 84.7797 23.0185 84.7797 23.0185V25.011C84.7797 25.0705 84.7485 25.0705 84.7172 25.0705H84.4985C84.4672 25.0705 84.436 25.0705 84.436 25.011V23.9404V23.524C84.2797 23.7917 84.2485 23.8512 84.2172 23.9107L83.5298 25.0408C83.5298 25.0705 83.4985 25.0705 83.4673 25.0705H83.2485C83.186 25.0705 83.186 25.0408 83.186 25.011V23.1374ZM83.686 22.3345C83.7173 22.5426 83.8735 22.5724 83.9673 22.5724C84.061 22.5724 84.2172 22.5426 84.2485 22.3345V22.275C84.2485 22.2452 84.2485 22.2452 84.2797 22.2452H84.311L84.4672 22.275C84.4672 22.275 84.4985 22.275 84.5297 22.3345C84.5297 22.3345 84.5297 22.3642 84.5297 22.3939C84.4672 22.6616 84.2485 22.8103 83.9673 22.8103C83.686 22.8103 83.4673 22.6616 83.4048 22.3939C83.4048 22.3642 83.4048 22.3345 83.4048 22.3345C83.4048 22.3047 83.436 22.275 83.4673 22.275L83.6235 22.2452C83.6548 22.2452 83.686 22.2155 83.686 22.275V22.3345Z" fill="white"/>
<path d="M87.5295 23.5242C87.6545 23.2268 87.9358 23.1078 88.217 23.1078C88.4358 23.1078 89.0607 23.197 89.0607 24.1487C89.0607 24.9814 88.5607 25.1896 88.1858 25.1896C87.9045 25.1896 87.592 25.0706 87.4045 24.7138C87.2795 24.4758 87.2795 24.2379 87.2795 23.9108C87.2795 23.5242 87.3108 23.2268 87.4045 23.0186C87.5295 22.6617 87.8108 22.4535 88.092 22.3346L88.842 22.0074C88.8732 22.0074 88.9357 21.9777 88.967 22.0372L89.0295 22.1859C89.0295 22.2156 89.0607 22.2454 88.967 22.2751L88.1545 22.632C87.717 22.8104 87.6233 23.1375 87.592 23.3755L87.5295 23.5242ZM87.6233 24.119C87.6233 24.4461 87.6858 24.8922 88.1545 24.8922C88.6545 24.8922 88.6857 24.3271 88.6857 24.119C88.6857 23.4349 88.342 23.3457 88.1545 23.3457C87.967 23.3457 87.6233 23.4349 87.6233 24.119Z" fill="white"/>
<path d="M91.3732 24.5651C91.3732 24.6543 91.4045 24.803 91.4357 24.8625C91.4357 24.8923 91.467 24.9517 91.4982 24.9815C91.4982 25.0112 91.5295 25.0112 91.5295 25.0112C91.5295 25.0112 91.5295 25.0409 91.4982 25.0409L91.3107 25.1599C91.2795 25.1897 91.2482 25.1896 91.1857 25.1004C91.1545 25.041 91.1232 25.0112 91.092 24.922L91.0607 24.9517C90.967 25.041 90.7795 25.2194 90.467 25.2194C90.0295 25.2194 89.8733 24.922 89.8733 24.6246C89.8733 24.3569 90.0295 24.0595 90.4983 23.9406C90.6545 23.9108 90.8733 23.8811 91.0295 23.8811H91.0607V23.7324C91.0607 23.554 91.0295 23.3458 90.6858 23.3458C90.5295 23.3458 90.342 23.3755 90.1858 23.4647C90.1545 23.4945 90.1233 23.4945 90.1233 23.4945C90.092 23.4945 90.092 23.4945 90.092 23.4647L90.0295 23.2863V23.2566C90.0295 23.2268 90.092 23.1971 90.1233 23.1971C90.3108 23.1079 90.5295 23.0781 90.717 23.0781C91.1545 23.0781 91.3732 23.2863 91.3732 23.6432V24.5651ZM91.0607 24.119C90.3108 24.119 90.2483 24.3867 90.2483 24.5651C90.2483 24.803 90.4358 24.922 90.5608 24.922C90.7483 24.922 90.967 24.7436 91.0295 24.6841L91.0607 24.6543V24.119Z" fill="white"/>
<path d="M92.8107 25.0706C92.8107 25.1003 92.8107 25.13 92.7482 25.13H92.5294C92.4669 25.13 92.4669 25.1003 92.4669 25.0706V23.1375C92.4669 23.1077 92.4669 23.078 92.4982 23.078L92.5919 23.0483L92.7482 23.0185C92.7794 23.0185 92.7794 23.0185 92.7794 23.0185C92.8107 23.0185 92.8107 23.0483 92.8107 23.0483V23.9107H93.6544V23.1077C93.6544 23.078 93.6544 23.0483 93.6856 23.0483L93.9356 22.9888C93.9669 22.9888 93.9669 22.9888 93.9669 22.9888C93.9981 22.9888 93.9981 23.0185 93.9981 23.0185V25.0111C93.9981 25.0408 93.9981 25.0706 93.9356 25.0706H93.7169C93.6856 25.0706 93.6544 25.0706 93.6544 25.0111V24.2081H92.8107V25.0706Z" fill="white"/>
<path d="M95.1855 25.1301C95.1231 25.1301 95.123 25.1004 95.123 25.1004V23.1673C95.123 23.1376 95.123 23.1078 95.1543 23.1078L95.248 23.0781L95.4043 23.0483C95.4355 23.0483 95.4355 23.0483 95.4355 23.0483C95.4668 23.0483 95.4668 23.0781 95.4668 23.0781V23.9405H95.6543C95.8105 23.9405 95.9043 23.881 95.9355 23.7026L95.998 23.4944C96.0293 23.3457 96.0918 23.1673 96.2793 23.0781C96.3418 23.0483 96.4355 23.0483 96.498 23.0483C96.5292 23.0483 96.5605 23.0483 96.5605 23.0781L96.623 23.2565C96.623 23.316 96.5917 23.316 96.5605 23.316H96.498C96.4355 23.316 96.4042 23.3457 96.373 23.3755C96.373 23.3755 96.3418 23.435 96.3105 23.5539L96.248 23.7324C96.2168 23.8513 96.1543 24 95.9668 24.0595C96.1543 24.119 96.2168 24.2379 96.248 24.3271L96.373 24.7435C96.373 24.7732 96.4043 24.8327 96.4355 24.8625C96.4667 24.8922 96.498 24.8922 96.5605 24.8922H96.623C96.6542 24.8922 96.6855 24.8922 96.6855 24.9517L96.623 25.1301C96.623 25.1599 96.5917 25.1599 96.5605 25.1599C96.4355 25.1599 96.3418 25.1301 96.2793 25.1301C96.0918 25.0706 96.0605 24.922 95.998 24.7138L95.9043 24.4164C95.8418 24.2082 95.748 24.1784 95.623 24.1784H95.4355V25.0706C95.4355 25.0706 95.4355 25.1004 95.373 25.1004H95.1855V25.1301Z" fill="white"/>
<path d="M44.906 23.3755C44.8435 23.3755 44.8435 23.3458 44.8435 23.316V23.1376C44.8435 23.0781 44.8748 23.0781 44.906 23.0781H46.406C46.4685 23.0781 46.4685 23.1376 46.4372 23.1376L46.3747 23.316C46.3747 23.3458 46.3435 23.3755 46.3122 23.3755H45.781V25.0707C45.781 25.1004 45.781 25.1302 45.7185 25.1302H45.4997C45.4372 25.1302 45.4372 25.1004 45.4372 25.0707V23.3755H44.906Z" fill="white"/>
<path d="M5.2855 24.9998L1.22314 4.13477L22.1599 24.9998H5.2855Z" fill="#375444"/>
<path d="M12.2227 12.4497L24.816 24.9998H26.7534L16.8787 1.33203L12.2227 12.4497Z" fill="#457456"/>
<path d="M23.5037 12.2628L28.8472 24.9998L31.3471 4.13477L23.5037 12.2628Z" fill="#50935E"/>
<path d="M18.2385 1.38882L16.8926 0L15.499 1.34132L16.8449 2.73014L18.2385 1.38882Z" fill="#ACACAC"/>
<path d="M1.84274 5.35493L2.44141 3.51855L0.59871 2.92194L4.29757e-05 4.75832L1.84274 5.35493Z" fill="#ACACAC"/>
<path d="M30.1534 3.51811L30.7521 5.35449L32.5948 4.75788L31.9961 2.9215L30.1534 3.51811Z" fill="#ACACAC"/>
<path d="M40.8184 10.1387H37.8535V12.2012H40.5781V13.7363H37.8535V17H35.9609V8.59766H40.8184V10.1387ZM47.416 14.5273H43.502C43.5645 15.3984 44.1133 15.834 45.1484 15.834C45.8086 15.834 46.3887 15.6777 46.8887 15.3652V16.7012C46.334 16.998 45.6133 17.1465 44.7266 17.1465C43.7578 17.1465 43.0059 16.8789 42.4707 16.3438C41.9355 15.8047 41.668 15.0547 41.668 14.0938C41.668 13.0977 41.957 12.3086 42.5352 11.7266C43.1133 11.1445 43.8242 10.8535 44.668 10.8535C45.543 10.8535 46.2188 11.1133 46.6953 11.6328C47.1758 12.1523 47.416 12.8574 47.416 13.748V14.5273ZM45.6992 13.3906C45.6992 12.5312 45.3516 12.1016 44.6562 12.1016C44.3594 12.1016 44.1016 12.2246 43.8828 12.4707C43.668 12.7168 43.5371 13.0234 43.4902 13.3906H45.6992ZM51.377 17.1465C50.377 17.1465 49.5898 16.8672 49.0156 16.3086C48.4453 15.7461 48.1602 14.9844 48.1602 14.0234C48.1602 13.0312 48.457 12.2559 49.0508 11.6973C49.6445 11.1348 50.4473 10.8535 51.459 10.8535C52.4551 10.8535 53.2363 11.1348 53.8027 11.6973C54.3691 12.2559 54.6523 12.9961 54.6523 13.918C54.6523 14.9141 54.3594 15.7012 53.7734 16.2793C53.1914 16.8574 52.3926 17.1465 51.377 17.1465ZM51.4238 12.2715C50.9863 12.2715 50.6465 12.4219 50.4043 12.7227C50.1621 13.0234 50.041 13.4492 50.041 14C50.041 15.1523 50.5059 15.7285 51.4355 15.7285C52.3223 15.7285 52.7656 15.1367 52.7656 13.9531C52.7656 12.832 52.3184 12.2715 51.4238 12.2715ZM61.7246 17H59.873V16.1738H59.8496C59.4277 16.8223 58.8086 17.1465 57.9922 17.1465C57.2422 17.1465 56.6387 16.8828 56.1816 16.3555C55.7246 15.8242 55.4961 15.084 55.4961 14.1348C55.4961 13.1426 55.748 12.3477 56.252 11.75C56.7559 11.1523 57.416 10.8535 58.2324 10.8535C59.0059 10.8535 59.5449 11.1309 59.8496 11.6855H59.873V8.11719H61.7246V17ZM59.9082 14.082V13.6309C59.9082 13.2402 59.7949 12.916 59.5684 12.6582C59.3418 12.4004 59.0469 12.2715 58.6836 12.2715C58.2734 12.2715 57.9531 12.4336 57.7227 12.7578C57.4922 13.0781 57.377 13.5195 57.377 14.082C57.377 14.6094 57.4883 15.0156 57.7109 15.3008C57.9336 15.5859 58.2422 15.7285 58.6367 15.7285C59.0117 15.7285 59.3164 15.5781 59.5508 15.2773C59.7891 14.9766 59.9082 14.5781 59.9082 14.082ZM68.2754 17H66.5234V16.1387H66.5C66.0977 16.8105 65.502 17.1465 64.7129 17.1465C64.1309 17.1465 63.6719 16.9824 63.3359 16.6543C63.0039 16.3223 62.8379 15.8809 62.8379 15.3301C62.8379 14.166 63.5273 13.4941 64.9062 13.3145L66.5352 13.0977C66.5352 12.4414 66.1797 12.1133 65.4688 12.1133C64.7539 12.1133 64.0742 12.3262 63.4297 12.752V11.3574C63.6875 11.2246 64.0391 11.1074 64.4844 11.0059C64.9336 10.9043 65.3418 10.8535 65.709 10.8535C67.4199 10.8535 68.2754 11.707 68.2754 13.4141V17ZM66.5352 14.5625V14.1582L65.4453 14.2988C64.8438 14.377 64.543 14.6484 64.543 15.1133C64.543 15.3242 64.6152 15.498 64.7598 15.6348C64.9082 15.7676 65.1074 15.834 65.3574 15.834C65.7051 15.834 65.9883 15.7148 66.207 15.4766C66.4258 15.2344 66.5352 14.9297 66.5352 14.5625ZM71.5918 17H69.7402V8.11719H71.5918V17ZM73.9766 17.1465C73.6719 17.1465 73.418 17.0527 73.2148 16.8652C73.0117 16.6777 72.9102 16.4473 72.9102 16.1738C72.9102 15.8926 73.0137 15.6621 73.2207 15.4824C73.4316 15.3027 73.6934 15.2129 74.0059 15.2129C74.3223 15.2129 74.5801 15.3047 74.7793 15.4883C74.9824 15.668 75.084 15.8965 75.084 16.1738C75.084 16.459 74.9805 16.6934 74.7734 16.877C74.5703 17.0566 74.3047 17.1465 73.9766 17.1465ZM79.2676 17.1465C78.2676 17.1465 77.4805 16.8672 76.9062 16.3086C76.3359 15.7461 76.0508 14.9844 76.0508 14.0234C76.0508 13.0312 76.3477 12.2559 76.9414 11.6973C77.5352 11.1348 78.3379 10.8535 79.3496 10.8535C80.3457 10.8535 81.127 11.1348 81.6934 11.6973C82.2598 12.2559 82.543 12.9961 82.543 13.918C82.543 14.9141 82.25 15.7012 81.6641 16.2793C81.082 16.8574 80.2832 17.1465 79.2676 17.1465ZM79.3145 12.2715C78.877 12.2715 78.5371 12.4219 78.2949 12.7227C78.0527 13.0234 77.9316 13.4492 77.9316 14C77.9316 15.1523 78.3965 15.7285 79.3262 15.7285C80.2129 15.7285 80.6562 15.1367 80.6562 13.9531C80.6562 12.832 80.209 12.2715 79.3145 12.2715ZM89.5391 17H87.6934V13.666C87.6934 12.7363 87.3613 12.2715 86.6973 12.2715C86.377 12.2715 86.1133 12.3945 85.9062 12.6406C85.6992 12.8867 85.5957 13.1992 85.5957 13.5781V17H83.7441V11H85.5957V11.9492H85.6191C86.0605 11.2188 86.7031 10.8535 87.5469 10.8535C88.875 10.8535 89.5391 11.6777 89.5391 13.3262V17ZM92.8613 17H91.0098V8.11719H92.8613V17ZM95.3574 10.0508C95.0449 10.0508 94.7891 9.95898 94.5898 9.77539C94.3906 9.58789 94.291 9.35938 94.291 9.08984C94.291 8.8125 94.3906 8.58594 94.5898 8.41016C94.7891 8.23438 95.0449 8.14648 95.3574 8.14648C95.6738 8.14648 95.9297 8.23438 96.125 8.41016C96.3242 8.58594 96.4238 8.8125 96.4238 9.08984C96.4238 9.37109 96.3242 9.60156 96.125 9.78125C95.9297 9.96094 95.6738 10.0508 95.3574 10.0508ZM96.2715 17H94.4199V11H96.2715V17ZM103.625 17H101.779V13.666C101.779 12.7363 101.447 12.2715 100.783 12.2715C100.463 12.2715 100.199 12.3945 99.9922 12.6406C99.7852 12.8867 99.6816 13.1992 99.6816 13.5781V17H97.8301V11H99.6816V11.9492H99.7051C100.146 11.2188 100.789 10.8535 101.633 10.8535C102.961 10.8535 103.625 11.6777 103.625 13.3262V17ZM110.486 14.5273H106.572C106.635 15.3984 107.184 15.834 108.219 15.834C108.879 15.834 109.459 15.6777 109.959 15.3652V16.7012C109.404 16.998 108.684 17.1465 107.797 17.1465C106.828 17.1465 106.076 16.8789 105.541 16.3438C105.006 15.8047 104.738 15.0547 104.738 14.0938C104.738 13.0977 105.027 12.3086 105.605 11.7266C106.184 11.1445 106.895 10.8535 107.738 10.8535C108.613 10.8535 109.289 11.1133 109.766 11.6328C110.246 12.1523 110.486 12.8574 110.486 13.748V14.5273ZM108.77 13.3906C108.77 12.5312 108.422 12.1016 107.727 12.1016C107.43 12.1016 107.172 12.2246 106.953 12.4707C106.738 12.7168 106.607 13.0234 106.561 13.3906H108.77Z" fill="white"/>
</svg>
