<?xml version="1.0" encoding="utf-8"?>
<!-- Generator: Adobe Illustrator 26.0.1, SVG Export Plug-In . SVG Version: 6.00 Build 0)  -->
<svg version="1.1" id="Layer_1" xmlns="http://www.w3.org/2000/svg" xmlns:xlink="http://www.w3.org/1999/xlink" x="0px" y="0px"
	 viewBox="0 0 160.4 22" style="enable-background:new 0 0 160.4 22;" xml:space="preserve">
<style type="text/css">
	.st0{fill:#C4C4C4;}
	.st1{fill:#9B9B9B;}
	.st2{fill:#7CAE86;}
</style>
<rect x="0.8" y="9.2" class="st0" width="158.7" height="3.2"/>
<g>
	<g>
		<path class="st1" d="M71.6,19.2c1-1.1,1.9-2.2,2.9-3.3c-1.3-1.2-2.1-2.7-2.2-4.6c-0.1-1.8,0.4-3.4,1.7-4.7c-1.1-1-2.2-1.9-3.3-2.9
			c1-1.1,2-1.9,3.3-2.5c2-1,4.2-1.3,6.4-1.1c4.8,0.7,8.4,4.4,9.2,9.1c0.8,4.8-1.7,9.5-5.9,11.7C79.7,22.9,74.8,22.1,71.6,19.2z
			 M72.9,19.1c4,3,10,2.7,13.6-1.5c3.7-4.3,3.2-10.8-1.2-14.4c-4.2-3.4-9.9-2.8-13.4,0.5c0.6,0.6,1.3,1.1,1.9,1.8
			c3-2.6,7.5-2.5,10.2,0.3c2.7,2.6,3.1,6.9,0.8,9.8c-1.1,1.5-2.6,2.5-4.5,2.8c-2.1,0.4-4,0-5.8-1.1C74.1,17.8,73.5,18.5,72.9,19.1z"
			/>
	</g>
	<g>
		<path class="st2" d="M71.6,19.2c1-1.1,1.9-2.2,2.9-3.3c-1.3-1.2-2.1-2.7-2.2-4.6c-0.1-1.8,0.4-3.4,1.7-4.7c-1.1-1-2.2-1.9-3.3-2.9
			c1-1.1,2-1.9,3.3-2.5c2-1,4.2-1.3,6.4-1.1c4.8,0.7,8.4,4.4,9.2,9.1c0.8,4.8-1.7,9.5-5.9,11.7C79.7,22.9,74.8,22.1,71.6,19.2z
			 M72.9,19.1c4,3,10,2.7,13.6-1.5c3.7-4.3,3.2-10.8-1.2-14.4c-4.2-3.4-9.9-2.8-13.4,0.5c0.6,0.6,1.3,1.1,1.9,1.8
			c3-2.6,7.5-2.5,10.2,0.3c2.7,2.6,3.1,6.9,0.8,9.8c-1.1,1.5-2.6,2.5-4.5,2.8c-2.1,0.4-4,0-5.8-1.1C74.1,17.8,73.5,18.5,72.9,19.1z"
			/>
	</g>
</g>
</svg>
