<svg width="28" height="29" viewBox="0 0 28 29" fill="none" xmlns="http://www.w3.org/2000/svg">
<path d="M19.9338 0H7.68531C3.36233 0 0 3.78261 0 8.06956V20.9304C0 25.4696 3.6025 29 7.68531 29H19.9338C24.2567 29 27.619 25.2174 27.619 20.9304V8.06956C27.619 3.53043 24.0166 0 19.9338 0ZM24.9772 20.9304C24.9772 23.9565 22.5756 26.4783 19.6936 26.4783H7.44513C4.56314 26.4783 2.16149 23.9565 2.16149 20.9304V8.06956C2.16149 5.04348 4.56314 2.52174 7.44513 2.52174H19.6936C22.5756 2.52174 24.9772 5.04348 24.9772 8.06956V20.9304ZM13.6895 7.06087C9.8468 7.06087 6.72465 10.3391 6.72465 14.3739C6.72465 18.4087 9.8468 21.687 13.6895 21.687C17.5321 21.687 20.6542 18.4087 20.6542 14.3739C20.6542 10.3391 17.7723 7.06087 13.6895 7.06087ZM13.6895 19.1652C11.2878 19.1652 9.1263 17.1478 9.1263 14.3739C9.1263 11.8522 11.0476 9.58261 13.6895 9.58261C16.0911 9.58261 18.2526 11.6 18.2526 14.3739C18.2526 17.1478 16.3313 19.1652 13.6895 19.1652ZM22.8157 6.55652C22.8157 7.56522 22.0952 8.32174 21.1346 8.32174C20.1739 8.32174 19.4534 7.56522 19.4534 6.55652C19.4534 5.54783 20.1739 4.7913 21.1346 4.7913C22.0952 4.7913 22.8157 5.54783 22.8157 6.55652Z" fill="white"/>
</svg>
