<svg width="28" height="28" viewBox="0 0 28 28" fill="none" xmlns="http://www.w3.org/2000/svg">
<path d="M0.484044 9.1263H6.29255V27.619H0.484044V9.1263ZM3.38829 0C1.45212 0 0 1.44099 0 3.36232C0 5.28364 1.45212 6.72464 3.38829 6.72464C5.32446 6.72464 6.77659 5.28364 6.77659 3.36232C6.53457 1.44099 5.08244 0 3.38829 0ZM20.8138 8.64596C17.9096 8.64596 16.2154 10.087 15.2473 11.528V8.88613H9.68085V27.3789H15.4893V18.2526C15.4893 15.8509 15.9734 13.4493 18.8776 13.4493C21.7819 13.4493 21.7819 16.0911 21.7819 18.2526V27.1387H27.5904V17.0518C27.8324 12.4886 26.6223 8.64596 20.8138 8.64596Z" fill="white"/>
</svg>
