<svg width="111" height="20" viewBox="0 0 111 20" fill="none" xmlns="http://www.w3.org/2000/svg">
<path d="M36.2163 18.8999C36.2163 19.1003 36.1762 19.3409 35.7754 19.3409H33.6909C33.4504 19.3409 33.25 19.3008 33.25 18.8999V4.66964C33.25 4.26879 33.4905 4.2287 33.6909 4.2287H41.1067C41.227 4.2287 41.3472 4.26879 41.4274 4.34896C41.5076 4.46922 41.4675 4.62956 41.4274 4.70973L40.9464 6.35323C40.9063 6.4334 40.8662 6.63382 40.5856 6.63382H36.2163V10.2816H39.9042C40.305 10.2816 40.3451 10.5221 40.3451 10.7225V12.2458C40.3451 12.6466 40.1046 12.6867 39.9042 12.6867H36.2163V18.8999Z" fill="white"/>
<path d="M48.3621 16.9358H52.9318C53.1323 16.9358 53.3728 16.9758 53.3728 17.3767V18.8598C53.3728 19.2607 53.1323 19.3008 52.9318 19.3008H45.7967C45.3958 19.3008 45.3557 19.0603 45.3557 18.8598V4.62957C45.3557 4.22872 45.5962 4.18863 45.7967 4.18863H53.2926C53.3728 4.18863 53.493 4.22872 53.5732 4.30889C53.6534 4.38906 53.6133 4.50931 53.6133 4.58948L53.1723 6.23298C53.1323 6.35324 53.0922 6.55367 52.7715 6.55367H48.4423V10.2014H52.1301C52.531 10.2014 52.5711 10.4419 52.5711 10.6424V12.1255C52.5711 12.5264 52.3306 12.5665 52.1301 12.5665H48.4423V16.9358H48.3621Z" fill="white"/>
<path d="M62.392 19.7016C57.0205 19.7016 56.9003 13.3682 56.9003 11.7647C56.9003 10.1613 57.0205 3.82785 62.392 3.82785C67.7634 3.82785 67.8836 10.2415 67.8836 11.7647C67.8836 13.3682 67.7634 19.7016 62.392 19.7016ZM64.757 11.8048C64.757 9.6803 64.5165 6.23297 62.392 6.23297C60.2674 6.23297 60.0269 9.6803 60.0269 11.8048C60.0269 13.6087 60.1472 17.3366 62.392 17.3366C64.5966 17.3366 64.757 13.6087 64.757 11.8048Z" fill="white"/>
<path d="M77.1834 4.2287C78.3058 4.2287 80.0295 4.34896 81.2721 5.8722C82.4346 7.27518 82.7553 9.56004 82.7553 11.8449C82.7553 14.4504 82.3544 16.4146 81.2721 17.6974C80.0295 19.1805 78.3058 19.3409 77.1834 19.3409H72.8943C72.4534 19.3409 72.4534 18.9801 72.4534 18.8598V4.70973C72.4534 4.5093 72.4934 4.2287 72.8943 4.2287H77.1834ZM75.4197 16.9357H76.983C77.7045 16.9357 78.6666 16.6151 79.1476 15.2522C79.4683 14.25 79.6286 12.7669 79.6286 11.7647C79.6286 10.7225 79.5084 9.27945 79.1476 8.3174C78.6666 6.9545 77.7045 6.63382 76.983 6.63382H75.4197V16.9357Z" fill="white"/>
<path d="M92.9771 4.2287C93.1775 4.2287 93.2577 4.34895 93.2977 4.58946L97.627 18.8197C97.667 18.8999 97.7071 18.9801 97.7071 19.1003C97.7071 19.3409 97.4666 19.3809 97.3464 19.3809H94.9012C94.6206 19.3809 94.5805 19.3409 94.4201 18.8999L93.4581 15.3323H89.65L88.728 18.8999C88.6478 19.2607 88.6078 19.3809 88.3272 19.3809H85.9621C85.4811 19.3809 85.6014 19.0603 85.6415 18.94L90.0508 4.58946C90.131 4.38904 90.131 4.26879 90.4116 4.26879H92.9771V4.2287ZM92.015 9.51996C91.8547 8.83851 91.6943 8.11697 91.534 6.59373H91.4538C91.4137 7.19501 91.3736 7.99672 90.9728 9.51996L90.0107 13.3281H92.937L92.015 9.51996Z" fill="white"/>
<path d="M110.053 16.6952C110.174 16.6952 110.374 16.7353 110.414 16.9357C110.414 16.9758 110.414 16.9758 110.414 16.9758C110.414 17.1362 110.374 17.1762 110.374 17.2564L109.973 18.94C109.893 19.2607 109.853 19.3409 109.492 19.3409H102.157C101.756 19.3409 101.716 19.1003 101.716 18.8999V4.66964C101.716 4.26879 101.956 4.2287 102.157 4.2287H104.281C104.682 4.2287 104.722 4.46921 104.722 4.66964V16.6952H110.053Z" fill="white"/>
<path d="M4.15621 19.7262L0.961792 3.2627L17.4253 19.7262H4.15621Z" fill="#375444"/>
<path d="M9.61133 9.82352L19.514 19.7262H21.0375L13.2726 1.05118L9.61133 9.82352Z" fill="#457456"/>
<path d="M18.4819 9.6761L22.6838 19.7262L24.6496 3.2627L18.4819 9.6761Z" fill="#50935E"/>
<path d="M14.3417 1.09585L13.2833 0L12.1875 1.05836L13.2459 2.15421L14.3417 1.09585Z" fill="#0D0F0F"/>
<path d="M1.44904 4.2252L1.9198 2.77621L0.470806 2.30546L4.83251e-05 3.75445L1.44904 4.2252Z" fill="#0D0F0F"/>
<path d="M23.711 2.77598L24.1818 4.22498L25.6307 3.75422L25.16 2.30523L23.711 2.77598Z" fill="#0D0F0F"/>
</svg>
