<svg width="111" height="20" viewBox="0 0 111 20" fill="none" xmlns="http://www.w3.org/2000/svg">
<path d="M36.2163 18.8999C36.2163 19.1004 36.1762 19.3409 35.7754 19.3409H33.6909C33.4504 19.3409 33.25 19.3008 33.25 18.8999V4.66965C33.25 4.2688 33.4905 4.22871 33.6909 4.22871H41.1067C41.227 4.22871 41.3472 4.26881 41.4274 4.34898C41.5076 4.46923 41.4675 4.62957 41.4274 4.70974L40.9464 6.35324C40.9063 6.43341 40.8662 6.63383 40.5856 6.63383H36.2163V10.2816H39.9042C40.305 10.2816 40.3451 10.5221 40.3451 10.7225V12.2458C40.3451 12.6466 40.1046 12.6867 39.9042 12.6867H36.2163V18.8999V18.8999Z" fill="#375444"/>
<path d="M48.3621 16.9358H52.9318C53.1323 16.9358 53.3728 16.9758 53.3728 17.3767V18.8598C53.3728 19.2607 53.1323 19.3008 52.9318 19.3008H45.7967C45.3958 19.3008 45.3557 19.0603 45.3557 18.8598V4.62956C45.3557 4.22871 45.5962 4.18862 45.7967 4.18862H53.2926C53.3728 4.18862 53.493 4.22871 53.5732 4.30888C53.6534 4.38906 53.6133 4.5093 53.6133 4.58947L53.1723 6.23297C53.1323 6.35323 53.0922 6.55366 52.7715 6.55366H48.4423V10.2014H52.1301C52.531 10.2014 52.5711 10.4419 52.5711 10.6424V12.1255C52.5711 12.5264 52.3306 12.5665 52.1301 12.5665H48.4423V16.9358H48.3621Z" fill="#375444"/>
<path d="M62.3921 19.7016C57.0207 19.7016 56.9004 13.3682 56.9004 11.7648C56.9004 10.1613 57.0207 3.82786 62.3921 3.82786C67.7635 3.82786 67.8838 10.2415 67.8838 11.7648C67.8838 13.3682 67.7635 19.7016 62.3921 19.7016ZM64.7571 11.8048C64.7571 9.68031 64.5166 6.23298 62.3921 6.23298C60.2676 6.23298 60.0271 9.68031 60.0271 11.8048C60.0271 13.6087 60.1473 17.3366 62.3921 17.3366C64.5968 17.3366 64.7571 13.6087 64.7571 11.8048Z" fill="#375444"/>
<path d="M77.1834 4.22871C78.3058 4.22871 80.0295 4.34897 81.2721 5.87221C82.4346 7.2752 82.7553 9.56006 82.7553 11.8449C82.7553 14.4505 82.3544 16.4146 81.2721 17.6974C80.0295 19.1805 78.3058 19.3409 77.1834 19.3409H72.8943C72.4534 19.3409 72.4534 18.9801 72.4534 18.8598V4.70974C72.4534 4.50932 72.4934 4.22871 72.8943 4.22871H77.1834V4.22871ZM75.4197 16.9358H76.983C77.7045 16.9358 78.6666 16.6151 79.1476 15.2522C79.4683 14.25 79.6286 12.7669 79.6286 11.7648C79.6286 10.7225 79.5084 9.27947 79.1476 8.31742C78.6666 6.95452 77.7045 6.63383 76.983 6.63383H75.4197V16.9358Z" fill="#375444"/>
<path d="M92.9771 4.22871C93.1775 4.22871 93.2577 4.34897 93.2977 4.58948L97.627 18.8198C97.667 18.8999 97.7071 18.9801 97.7071 19.1004C97.7071 19.3409 97.4666 19.381 97.3464 19.381H94.9012C94.6206 19.381 94.5805 19.3409 94.4201 18.8999L93.4581 15.3323H89.65L88.728 18.8999C88.6478 19.2607 88.6078 19.381 88.3272 19.381H85.9621C85.4811 19.381 85.6014 19.0603 85.6415 18.94L90.0508 4.58948C90.131 4.38905 90.131 4.2688 90.4116 4.2688H92.9771V4.22871ZM92.015 9.51998C91.8547 8.83853 91.6943 8.11698 91.534 6.59374H91.4538C91.4137 7.19502 91.3736 7.99674 90.9728 9.51998L90.0107 13.3281H92.937L92.015 9.51998Z" fill="#375444"/>
<path d="M110.053 16.6952C110.174 16.6952 110.374 16.7353 110.414 16.9358C110.414 16.9758 110.414 16.9758 110.414 16.9758C110.414 17.1362 110.374 17.1763 110.374 17.2564L109.973 18.94C109.893 19.2607 109.853 19.3409 109.492 19.3409H102.157C101.756 19.3409 101.716 19.1004 101.716 18.8999V4.66965C101.716 4.2688 101.956 4.22871 102.157 4.22871H104.281C104.682 4.22871 104.722 4.46923 104.722 4.66965V16.6952H110.053Z" fill="#375444"/>
<path d="M4.15633 19.7262L0.961914 3.2627L17.4254 19.7262H4.15633Z" fill="#375444"/>
<path d="M9.61133 9.82352L19.514 19.7262H21.0375L13.2726 1.05118L9.61133 9.82352Z" fill="#457456"/>
<path d="M18.4819 9.6761L22.6838 19.7262L24.6496 3.2627L18.4819 9.6761Z" fill="#50935E"/>
<path d="M14.3418 1.09585L13.2834 0L12.1876 1.05836L13.246 2.15421L14.3418 1.09585Z" fill="#0D0F0F"/>
<path d="M1.44892 4.22521L1.91968 2.77622L0.470684 2.30546L-7.37452e-05 3.75445L1.44892 4.22521Z" fill="#0D0F0F"/>
<path d="M23.7109 2.77599L24.1816 4.22498L25.6306 3.75423L25.1599 2.30523L23.7109 2.77599Z" fill="#0D0F0F"/>
</svg>
