<svg width="111" height="89" viewBox="0 0 111 89" fill="none" xmlns="http://www.w3.org/2000/svg">
<path d="M4.26701 74.4339C4.26701 74.7215 4.20936 75.0666 3.63274 75.0666H0.634289C0.288315 75.0666 0 75.0091 0 74.4339V54.0143C0 53.4391 0.345977 53.3816 0.634289 53.3816H11.3018C11.4748 53.3816 11.6478 53.4391 11.7631 53.5541C11.8784 53.7267 11.8208 53.9568 11.7631 54.0718L11.0712 56.4301C11.0135 56.5452 10.9559 56.8328 10.5522 56.8328H4.26701V62.0671H9.57195C10.1486 62.0671 10.2062 62.4122 10.2062 62.6998V64.8856C10.2062 65.4608 9.86026 65.5183 9.57195 65.5183H4.26701V74.4339Z" fill="#696969"/>
<path d="M21.7387 71.6154H28.3122C28.6005 71.6154 28.9465 71.6729 28.9465 72.2481V74.3763C28.9465 74.9515 28.6005 75.009 28.3122 75.009H18.0483C17.4717 75.009 17.414 74.6639 17.414 74.3763V53.9567C17.414 53.3815 17.76 53.324 18.0483 53.324H28.8312C28.9465 53.324 29.1195 53.3815 29.2348 53.4965C29.3501 53.6116 29.2925 53.7841 29.2925 53.8992L28.6582 56.2575C28.6005 56.4301 28.5429 56.7177 28.0816 56.7177H21.854V61.952H27.159C27.7356 61.952 27.7933 62.2971 27.7933 62.5847V64.713C27.7933 65.2882 27.4473 65.3457 27.159 65.3457H21.854V71.6154H21.7387Z" fill="#696969"/>
<path d="M41.9205 75.5843C34.1938 75.5843 34.0208 66.4961 34.0208 64.1953C34.0208 61.8945 34.1938 52.8064 41.9205 52.8064C49.6473 52.8064 49.8203 62.0096 49.8203 64.1953C49.8203 66.4961 49.6473 75.5843 41.9205 75.5843ZM45.3226 64.2529C45.3226 61.2043 44.9766 56.2576 41.9205 56.2576C38.8644 56.2576 38.5185 61.2043 38.5185 64.2529C38.5185 66.8413 38.6914 72.1906 41.9205 72.1906C45.0919 72.1906 45.3226 66.8413 45.3226 64.2529Z" fill="#696969"/>
<path d="M63.1979 53.3816C64.8125 53.3816 67.292 53.5541 69.0795 55.7399C70.7517 57.7531 71.213 61.0317 71.213 64.3104C71.213 68.0492 70.6364 70.8677 69.0795 72.7083C67.292 74.8365 64.8125 75.0666 63.1979 75.0666H57.028C56.3938 75.0666 56.3938 74.5489 56.3938 74.3764V54.0718C56.3938 53.7842 56.4514 53.3816 57.028 53.3816H63.1979ZM60.6608 71.6154H62.9096C63.9475 71.6154 65.3314 71.1552 66.0234 69.1996C66.4847 67.7616 66.7153 65.6333 66.7153 64.1953C66.7153 62.6998 66.5423 60.6291 66.0234 59.2486C65.3314 57.2929 63.9475 56.8328 62.9096 56.8328H60.6608V71.6154Z" fill="#696969"/>
<path d="M85.9169 53.3816C86.2052 53.3816 86.3206 53.5541 86.3782 53.8992L92.6058 74.3188C92.6634 74.4339 92.7211 74.5489 92.7211 74.7215C92.7211 75.0666 92.3751 75.1241 92.2021 75.1241H88.6847C88.2811 75.1241 88.2234 75.0666 87.9928 74.4339L86.6089 69.3146H81.131L79.8047 74.4339C79.6894 74.9516 79.6317 75.1241 79.2281 75.1241H75.826C75.1341 75.1241 75.3071 74.664 75.3647 74.4914L81.7076 53.8992C81.8229 53.6116 81.8229 53.4391 82.2266 53.4391H85.9169V53.3816ZM84.533 60.9742C84.3024 59.9964 84.0717 58.961 83.8411 56.7752H83.7258C83.6681 57.638 83.6104 58.7884 83.0338 60.9742L81.6499 66.4386H85.8593L84.533 60.9742Z" fill="#696969"/>
<path d="M110.481 71.2703C110.654 71.2703 110.942 71.3278 111 71.6154C111 71.6729 111 71.6729 111 71.6729C111 71.903 110.942 71.9605 110.942 72.0756L110.366 74.4914C110.25 74.9516 110.193 75.0666 109.674 75.0666H99.1216C98.5449 75.0666 98.4873 74.7215 98.4873 74.4339V54.0143C98.4873 53.4391 98.8332 53.3816 99.1216 53.3816H102.178C102.754 53.3816 102.812 53.7267 102.812 54.0143V71.2703H110.481Z" fill="#696969"/>
<path d="M40.0576 36.0689L34.2022 5.96579L64.3797 36.0689H40.0576Z" fill="#375444"/>
<path d="M50.0567 17.962L68.2082 36.0688H71.0008L56.7678 1.92202L50.0567 17.962Z" fill="#457456"/>
<path d="M66.3165 17.6925L74.0185 36.0689L77.6218 5.96579L66.3165 17.6925Z" fill="#50935E"/>
<path d="M58.7275 2.00372L56.7875 0L54.7789 1.93519L56.7188 3.93891L58.7275 2.00372Z" fill="#0D0F0F"/>
<path d="M35.0952 7.72566L35.9581 5.07623L33.3021 4.21546L32.4392 6.86489L35.0952 7.72566Z" fill="#0D0F0F"/>
<path d="M75.9013 5.07587L76.7642 7.72531L79.4202 6.86455L78.5573 4.21511L75.9013 5.07587Z" fill="#0D0F0F"/>
<path d="M4.22269 85.2647H3.05935V87.5929H2.53585V82.5159H3.05935V84.7933H4.22269L5.94588 82.5159H6.52755L4.63713 84.9819L6.63662 87.5929H6.01859L4.22269 85.2647Z" fill="#696969"/>
<path d="M8.87513 87.6292C8.50674 87.6292 8.17471 87.547 7.87902 87.3826C7.58334 87.2134 7.35067 86.9813 7.18102 86.6863C7.01137 86.3914 6.92654 86.0577 6.92654 85.6854C6.92654 85.3131 7.01137 84.9795 7.18102 84.6845C7.35067 84.3896 7.58334 84.1599 7.87902 83.9955C8.17471 83.8311 8.50674 83.7489 8.87513 83.7489C9.24352 83.7489 9.57556 83.8311 9.87124 83.9955C10.1669 84.1599 10.3972 84.3896 10.562 84.6845C10.7316 84.9795 10.8165 85.3131 10.8165 85.6854C10.8165 86.0577 10.7316 86.3914 10.562 86.6863C10.3972 86.9813 10.1669 87.2134 9.87124 87.3826C9.57556 87.547 9.24352 87.6292 8.87513 87.6292ZM8.87513 87.1723C9.14658 87.1723 9.38894 87.1118 9.60222 86.9909C9.82034 86.8652 9.99 86.6887 10.1112 86.4615C10.2324 86.2342 10.2929 85.9755 10.2929 85.6854C10.2929 85.3953 10.2324 85.1366 10.1112 84.9094C9.99 84.6821 9.82034 84.508 9.60222 84.3871C9.38894 84.2614 9.14658 84.1986 8.87513 84.1986C8.60369 84.1986 8.3589 84.2614 8.14077 84.3871C7.9275 84.508 7.75784 84.6821 7.63181 84.9094C7.51063 85.1366 7.45004 85.3953 7.45004 85.6854C7.45004 85.9755 7.51063 86.2342 7.63181 86.4615C7.75784 86.6887 7.9275 86.8652 8.14077 86.9909C8.3589 87.1118 8.60369 87.1723 8.87513 87.1723Z" fill="#696969"/>
<path d="M11.9197 83.7779H12.436V85.4678H14.8426V83.7779H15.3589V87.5929H14.8426V85.9102H12.436V87.5929H11.9197V83.7779Z" fill="#696969"/>
<path d="M19.5164 84.2348H18.0695V87.5929H17.5532V84.2348H16.1063V83.7779H19.5164V84.2348Z" fill="#696969"/>
<path d="M22.2332 83.7489C22.5919 83.7489 22.9166 83.8311 23.2075 83.9955C23.4983 84.1551 23.7261 84.3823 23.8909 84.6773C24.0557 84.9722 24.1381 85.3083 24.1381 85.6854C24.1381 86.0674 24.0557 86.4059 23.8909 86.7008C23.7261 86.9958 23.4983 87.2254 23.2075 87.3898C22.9215 87.5494 22.5967 87.6292 22.2332 87.6292C21.923 87.6292 21.6418 87.5663 21.3898 87.4406C21.1425 87.3101 20.939 87.1215 20.779 86.8749V89H20.2628V83.7779H20.7572V84.5322C20.9123 84.2808 21.1159 84.0874 21.3679 83.952C21.6248 83.8166 21.9133 83.7489 22.2332 83.7489ZM22.1968 87.1723C22.4634 87.1723 22.7058 87.1118 22.9239 86.9909C23.142 86.8652 23.3117 86.6887 23.4329 86.4615C23.5589 86.2342 23.6219 85.9755 23.6219 85.6854C23.6219 85.3953 23.5589 85.139 23.4329 84.9166C23.3117 84.6893 23.142 84.5129 22.9239 84.3871C22.7058 84.2614 22.4634 84.1986 22.1968 84.1986C21.9254 84.1986 21.6806 84.2614 21.4625 84.3871C21.2492 84.5129 21.0795 84.6893 20.9535 84.9166C20.8323 85.139 20.7717 85.3953 20.7717 85.6854C20.7717 85.9755 20.8323 86.2342 20.9535 86.4615C21.0795 86.6887 21.2492 86.8652 21.4625 86.9909C21.6806 87.1118 21.9254 87.1723 22.1968 87.1723Z" fill="#696969"/>
<path d="M26.8251 87.6292C26.4567 87.6292 26.1246 87.547 25.829 87.3826C25.5333 87.2134 25.3006 86.9813 25.1309 86.6863C24.9613 86.3914 24.8765 86.0577 24.8765 85.6854C24.8765 85.3131 24.9613 84.9795 25.1309 84.6845C25.3006 84.3896 25.5333 84.1599 25.829 83.9955C26.1246 83.8311 26.4567 83.7489 26.8251 83.7489C27.1935 83.7489 27.5255 83.8311 27.8212 83.9955C28.1168 84.1599 28.3471 84.3896 28.5119 84.6845C28.6816 84.9795 28.7664 85.3131 28.7664 85.6854C28.7664 86.0577 28.6816 86.3914 28.5119 86.6863C28.3471 86.9813 28.1168 87.2134 27.8212 87.3826C27.5255 87.547 27.1935 87.6292 26.8251 87.6292ZM26.8251 87.1723C27.0965 87.1723 27.3389 87.1118 27.5521 86.9909C27.7703 86.8652 27.9399 86.6887 28.0611 86.4615C28.1823 86.2342 28.2429 85.9755 28.2429 85.6854C28.2429 85.3953 28.1823 85.1366 28.0611 84.9094C27.9399 84.6821 27.7703 84.508 27.5521 84.3871C27.3389 84.2614 27.0965 84.1986 26.8251 84.1986C26.5536 84.1986 26.3088 84.2614 26.0907 84.3871C25.8774 84.508 25.7078 84.6821 25.5817 84.9094C25.4606 85.1366 25.4 85.3953 25.4 85.6854C25.4 85.9755 25.4606 86.2342 25.5817 86.4615C25.7078 86.6887 25.8774 86.8652 26.0907 86.9909C26.3088 87.1118 26.5536 87.1723 26.8251 87.1723Z" fill="#696969"/>
<path d="M32.9748 83.7779V87.5929H32.4586V84.2348H30.6264L30.5755 85.1777C30.5367 85.9707 30.4446 86.5799 30.2992 87.0054C30.1537 87.431 29.8944 87.6437 29.5212 87.6437C29.4194 87.6437 29.2958 87.6244 29.1504 87.5857L29.1867 87.1432C29.274 87.1626 29.3346 87.1723 29.3685 87.1723C29.5672 87.1723 29.7175 87.0804 29.8193 86.8967C29.9211 86.7129 29.9889 86.4856 30.0229 86.2149C30.0568 85.9441 30.0859 85.5863 30.1101 85.1414L30.1756 83.7779H32.9748Z" fill="#696969"/>
<path d="M37.7288 83.7489C38.0875 83.7489 38.4098 83.8311 38.6958 83.9955C38.9866 84.1599 39.2145 84.3896 39.3793 84.6845C39.5441 84.9795 39.6265 85.3131 39.6265 85.6854C39.6265 86.0577 39.5441 86.3914 39.3793 86.6863C39.2145 86.9813 38.9866 87.2134 38.6958 87.3826C38.4098 87.547 38.0875 87.6292 37.7288 87.6292C37.3895 87.6292 37.0817 87.5567 36.8054 87.4116C36.5291 87.2617 36.3037 87.0562 36.1292 86.7951C35.9595 86.534 35.8602 86.2342 35.8311 85.8957H34.9586V87.5929H34.4424V83.7779H34.9586V85.4243H35.8384C35.8771 85.0955 35.9814 84.8054 36.151 84.554C36.3255 84.2977 36.5485 84.0994 36.8199 83.9592C37.0914 83.819 37.3943 83.7489 37.7288 83.7489ZM37.7288 87.1795C37.9905 87.1795 38.2256 87.1167 38.4341 86.9909C38.6473 86.8652 38.8146 86.6887 38.9358 86.4615C39.0569 86.2342 39.1175 85.9755 39.1175 85.6854C39.1175 85.3953 39.0569 85.1366 38.9358 84.9094C38.8146 84.6821 38.6473 84.508 38.4341 84.3871C38.2256 84.2614 37.9905 84.1986 37.7288 84.1986C37.467 84.1986 37.2295 84.2614 37.0162 84.3871C36.8078 84.508 36.643 84.6821 36.5218 84.9094C36.4006 85.1366 36.3401 85.3953 36.3401 85.6854C36.3401 85.9755 36.4006 86.2342 36.5218 86.4615C36.643 86.6887 36.8078 86.8652 37.0162 86.9909C37.2295 87.1167 37.467 87.1795 37.7288 87.1795Z" fill="#696969"/>
<path d="M40.7334 83.7779H41.2496V86.8096L43.8017 83.7779H44.2597V87.5929H43.7435V84.5612L41.1987 87.5929H40.7334V83.7779ZM42.4711 83.2267C42.1415 83.2267 41.8797 83.1445 41.6858 82.9801C41.492 82.8157 41.3926 82.5836 41.3877 82.2838H41.7586C41.7634 82.4724 41.8313 82.6247 41.9621 82.7407C42.093 82.8519 42.2627 82.9075 42.4711 82.9075C42.6795 82.9075 42.8492 82.8519 42.9801 82.7407C43.1158 82.6247 43.1861 82.4724 43.1909 82.2838H43.5617C43.5569 82.5836 43.4551 82.8157 43.2563 82.9801C43.0625 83.1445 42.8007 83.2267 42.4711 83.2267Z" fill="#696969"/>
<path d="M49.5034 85.6056C49.7749 85.6685 49.9833 85.7773 50.1287 85.932C50.279 86.0867 50.3541 86.2753 50.3541 86.4977C50.3541 86.7202 50.2766 86.9184 50.1215 87.0925C49.9712 87.2665 49.7652 87.4019 49.5034 87.4986C49.2417 87.5905 48.9533 87.6365 48.6382 87.6365C48.3619 87.6365 48.0905 87.5978 47.8239 87.5204C47.5573 87.4382 47.3246 87.3197 47.1259 87.165L47.3004 86.7806C47.4749 86.9112 47.6784 87.0127 47.9111 87.0852C48.1438 87.1578 48.3789 87.194 48.6164 87.194C48.9702 87.194 49.2586 87.1287 49.4816 86.9982C49.7094 86.8628 49.8234 86.6815 49.8234 86.4542C49.8234 86.2511 49.7313 86.094 49.5471 85.9828C49.3629 85.8667 49.1108 85.8087 48.7909 85.8087H48.1365V85.4316H48.7618C49.0478 85.4316 49.278 85.3784 49.4525 85.272C49.627 85.1608 49.7143 85.0133 49.7143 84.8296C49.7143 84.6265 49.6149 84.4669 49.4162 84.3509C49.2223 84.2348 48.9678 84.1768 48.6527 84.1768C48.2407 84.1768 47.8336 84.2808 47.4312 84.4887L47.2858 84.0898C47.7415 83.8528 48.2141 83.7344 48.7036 83.7344C48.9945 83.7344 49.2562 83.7779 49.4889 83.8649C49.7264 83.9471 49.9106 84.0656 50.0415 84.2203C50.1772 84.3751 50.2451 84.554 50.2451 84.757C50.2451 84.9504 50.1772 85.1221 50.0415 85.272C49.9106 85.4219 49.7313 85.5331 49.5034 85.6056Z" fill="#696969"/>
<path d="M54.8706 85.845H51.6715C51.7005 86.2415 51.8532 86.563 52.1295 86.8096C52.4058 87.0514 52.7548 87.1723 53.1765 87.1723C53.414 87.1723 53.6322 87.1312 53.8309 87.049C54.0296 86.9619 54.2017 86.8362 54.3471 86.6718L54.638 87.0054C54.4683 87.2085 54.255 87.3633 53.9981 87.4696C53.7461 87.576 53.4674 87.6292 53.162 87.6292C52.7694 87.6292 52.4204 87.547 52.115 87.3826C51.8144 87.2134 51.5794 86.9813 51.4097 86.6863C51.2401 86.3914 51.1552 86.0577 51.1552 85.6854C51.1552 85.3131 51.2352 84.9795 51.3952 84.6845C51.56 84.3896 51.7829 84.1599 52.0641 83.9955C52.3501 83.8311 52.67 83.7489 53.0238 83.7489C53.3777 83.7489 53.6952 83.8311 53.9763 83.9955C54.2575 84.1599 54.478 84.3896 54.638 84.6845C54.7979 84.9746 54.8779 85.3083 54.8779 85.6854L54.8706 85.845ZM53.0238 84.1913C52.6554 84.1913 52.3452 84.3098 52.0932 84.5467C51.846 84.7788 51.7054 85.0834 51.6715 85.4606H54.3835C54.3496 85.0834 54.2066 84.7788 53.9545 84.5467C53.7073 84.3098 53.3971 84.1913 53.0238 84.1913Z" fill="#696969"/>
<path d="M60.2959 83.7779V87.5929H59.8233V84.5757L58.2746 87.1287H58.0419L56.4932 84.5685V87.5929H56.0206V83.7779H56.5441L58.1655 86.5268L59.816 83.7779H60.2959Z" fill="#696969"/>
<path d="M65.1095 85.845H61.9103C61.9394 86.2415 62.0921 86.563 62.3684 86.8096C62.6447 87.0514 62.9937 87.1723 63.4154 87.1723C63.6529 87.1723 63.871 87.1312 64.0697 87.049C64.2685 86.9619 64.4406 86.8362 64.586 86.6718L64.8768 87.0054C64.7072 87.2085 64.4939 87.3633 64.237 87.4696C63.9849 87.576 63.7062 87.6292 63.4008 87.6292C63.0082 87.6292 62.6592 87.547 62.3538 87.3826C62.0533 87.2134 61.8182 86.9813 61.6485 86.6863C61.4789 86.3914 61.3941 86.0577 61.3941 85.6854C61.3941 85.3131 61.474 84.9795 61.634 84.6845C61.7988 84.3896 62.0218 84.1599 62.3029 83.9955C62.5889 83.8311 62.9088 83.7489 63.2627 83.7489C63.6165 83.7489 63.934 83.8311 64.2152 83.9955C64.4963 84.1599 64.7169 84.3896 64.8768 84.6845C65.0368 84.9746 65.1167 85.3083 65.1167 85.6854L65.1095 85.845ZM63.2627 84.1913C62.8943 84.1913 62.5841 84.3098 62.332 84.5467C62.0848 84.7788 61.9442 85.0834 61.9103 85.4606H64.6223C64.5884 85.0834 64.4454 84.7788 64.1933 84.5467C63.9461 84.3098 63.6359 84.1913 63.2627 84.1913Z" fill="#696969"/>
<path d="M69.3078 83.7779V87.5929H68.7916V84.2348H66.9593L66.9084 85.1777C66.8697 85.9707 66.7776 86.5799 66.6322 87.0054C66.4867 87.431 66.2274 87.6437 65.8542 87.6437C65.7524 87.6437 65.6288 87.6244 65.4834 87.5857L65.5197 87.1432C65.607 87.1626 65.6675 87.1723 65.7015 87.1723C65.9002 87.1723 66.0505 87.0804 66.1523 86.8967C66.2541 86.7129 66.3219 86.4856 66.3559 86.2149C66.3898 85.9441 66.4189 85.5863 66.4431 85.1414L66.5086 83.7779H69.3078Z" fill="#696969"/>
<path d="M72.4186 85.1269C72.8984 85.1318 73.262 85.2381 73.5092 85.4461C73.7612 85.654 73.8873 85.9538 73.8873 86.3454C73.8873 86.7516 73.7516 87.0635 73.4801 87.2811C73.2135 87.4986 72.8257 87.605 72.3168 87.6002L70.7754 87.5929V83.7779H71.2916V85.1124L72.4186 85.1269ZM72.2877 87.2085C72.6415 87.2134 72.9081 87.1433 73.0875 86.9982C73.2717 86.8483 73.3638 86.6307 73.3638 86.3454C73.3638 86.065 73.2741 85.8571 73.0948 85.7217C72.9154 85.5863 72.6464 85.5162 72.2877 85.5113L71.2916 85.4968V87.194L72.2877 87.2085Z" fill="#696969"/>
<path d="M74.8723 83.7779H75.3885V85.4678H77.7952V83.7779H78.3114V87.5929H77.7952V85.9102H75.3885V87.5929H74.8723V83.7779Z" fill="#696969"/>
<path d="M79.7787 83.7779H80.295V86.8096L82.847 83.7779H83.3051V87.5929H82.7889V84.5612L80.244 87.5929H79.7787V83.7779Z" fill="#696969"/>
<path d="M84.7845 83.7779H85.3008V86.8096L87.8528 83.7779H88.3109V87.5929H87.7947V84.5612L85.2499 87.5929H84.7845V83.7779ZM86.5223 83.2267C86.1926 83.2267 85.9309 83.1445 85.737 82.9801C85.5431 82.8157 85.4438 82.5836 85.4389 82.2838H85.8097C85.8146 82.4724 85.8824 82.6247 86.0133 82.7407C86.1442 82.8519 86.3138 82.9075 86.5223 82.9075C86.7307 82.9075 86.9004 82.8519 87.0312 82.7407C87.1669 82.6247 87.2372 82.4724 87.2421 82.2838H87.6129C87.608 82.5836 87.5063 82.8157 87.3075 82.9801C87.1136 83.1445 86.8519 83.2267 86.5223 83.2267Z" fill="#696969"/>
<path d="M93.5473 83.8722C93.9012 83.8722 94.2163 83.952 94.4925 84.1115C94.7737 84.2663 94.9918 84.4863 95.1469 84.7715C95.302 85.052 95.3796 85.3735 95.3796 85.7362C95.3796 86.1085 95.2972 86.4397 95.1324 86.7298C94.9724 87.0151 94.747 87.2375 94.4562 87.3971C94.1654 87.5567 93.8309 87.6365 93.4528 87.6365C92.8178 87.6365 92.3258 87.414 91.9768 86.9692C91.6278 86.5243 91.4533 85.9103 91.4533 85.1269C91.4533 84.3098 91.6084 83.6836 91.9187 83.2484C92.2337 82.8133 92.7233 82.5183 93.3874 82.3636L95.1033 81.9719L95.1905 82.4434L93.5764 82.8133C93.0287 82.9341 92.6264 83.1493 92.3695 83.4588C92.1125 83.7634 91.972 84.2155 91.9477 84.8151C92.1029 84.5201 92.3186 84.2904 92.5948 84.126C92.8711 83.9568 93.1886 83.8722 93.5473 83.8722ZM93.4674 87.2085C93.7339 87.2085 93.9715 87.1481 94.1799 87.0272C94.3932 86.9015 94.558 86.7274 94.6743 86.505C94.7955 86.2826 94.8561 86.0311 94.8561 85.7507C94.8561 85.4702 94.7979 85.2236 94.6816 85.0109C94.5653 84.7981 94.4005 84.6337 94.1872 84.5177C93.9787 84.3968 93.7388 84.3364 93.4674 84.3364C93.1959 84.3364 92.9535 84.3968 92.7403 84.5177C92.5318 84.6337 92.367 84.7981 92.2458 85.0109C92.1295 85.2236 92.0714 85.4702 92.0714 85.7507C92.0714 86.0311 92.1295 86.2826 92.2458 86.505C92.367 86.7274 92.5343 86.9015 92.7475 87.0272C92.9608 87.1481 93.2008 87.2085 93.4674 87.2085Z" fill="#696969"/>
<path d="M97.7808 83.7489C98.2801 83.7489 98.663 83.8746 98.9296 84.126C99.1962 84.3726 99.3295 84.7401 99.3295 85.2285V87.5929H98.8351V86.9982C98.7187 87.1964 98.5467 87.3512 98.3188 87.4624C98.0959 87.5736 97.8293 87.6292 97.519 87.6292C97.0925 87.6292 96.7532 87.5277 96.5011 87.3246C96.2491 87.1215 96.123 86.8531 96.123 86.5195C96.123 86.1955 96.2394 85.9344 96.472 85.7362C96.7095 85.5379 97.0852 85.4388 97.599 85.4388H98.8133V85.2067C98.8133 84.8779 98.7212 84.6289 98.537 84.4597C98.3528 84.2856 98.0837 84.1986 97.7299 84.1986C97.4875 84.1986 97.2549 84.2397 97.0319 84.3219C96.8089 84.3992 96.6175 84.508 96.4575 84.6482L96.2248 84.2638C96.4187 84.0994 96.6514 83.9737 96.9228 83.8867C97.1943 83.7948 97.4803 83.7489 97.7808 83.7489ZM97.599 87.223C97.8899 87.223 98.1395 87.1578 98.3479 87.0272C98.5564 86.8918 98.7115 86.6984 98.8133 86.447V85.8232H97.6136C96.9592 85.8232 96.632 86.0505 96.632 86.505C96.632 86.7274 96.7168 86.9039 96.8865 87.0345C97.0561 87.1602 97.2936 87.223 97.599 87.223Z" fill="#696969"/>
<path d="M100.704 83.7779H101.22V85.4678H103.627V83.7779H104.143V87.5929H103.627V85.9102H101.22V87.5929H100.704V83.7779Z" fill="#696969"/>
<path d="M106.999 85.8957H106.126V87.5929H105.61V83.7779H106.126V85.4533H107.006L108.351 83.7779H108.911L107.406 85.6274L109.02 87.5929H108.409L106.999 85.8957Z" fill="#696969"/>
</svg>
