<?xml version="1.0" encoding="utf-8"?>
<!-- Generator: Adobe Illustrator 26.0.1, SVG Export Plug-In . SVG Version: 6.00 Build 0)  -->
<svg version="1.1" id="Layer_1" xmlns="http://www.w3.org/2000/svg" xmlns:xlink="http://www.w3.org/1999/xlink" x="0px" y="0px"
	 viewBox="0 0 22 25" style="enable-background:new 0 0 22 25;" xml:space="preserve">
<style type="text/css">
	.st0{fill:#9B9B9B;}
	.st1{fill:#7CAE86;}
</style>
<g>
	<g>
		<path class="st0" d="M1.1,21.8c1.1-1.2,2.2-2.5,3.3-3.7c-1.5-1.4-2.4-3.1-2.5-5.2c-0.1-2.1,0.5-3.9,1.9-5.4
			C2.6,6.4,1.3,5.3,0.1,4.2C1.2,3,2.4,2,3.9,1.3c2.3-1.1,4.8-1.5,7.3-1.2c5.5,0.8,9.6,5,10.5,10.3c0.9,5.5-1.9,10.8-6.7,13.3
			C10.3,26.1,4.7,25.1,1.1,21.8z M2.6,21.7c4.5,3.4,11.4,3.1,15.5-1.7c4.2-4.9,3.6-12.3-1.4-16.4C11.9-0.3,5.4,0.4,1.5,4.2
			c0.7,0.7,1.5,1.3,2.2,2c3.4-3,8.5-2.8,11.6,0.3c3.1,3,3.5,7.8,0.9,11.2c-1.3,1.7-3,2.8-5.1,3.2c-2.4,0.5-4.5,0-6.6-1.3
			C3.9,20.2,3.2,21,2.6,21.7z"/>
	</g>
	<g>
		<path class="st1" d="M1.1,21.8c1.1-1.2,2.2-2.5,3.3-3.7c-1.5-1.4-2.4-3.1-2.5-5.2c-0.1-2.1,0.5-3.9,1.9-5.4
			C2.6,6.4,1.3,5.3,0.1,4.2C1.2,3,2.4,2,3.9,1.3c2.3-1.1,4.8-1.5,7.3-1.2c5.5,0.8,9.6,5,10.5,10.3c0.9,5.5-1.9,10.8-6.7,13.3
			C10.3,26.1,4.7,25.1,1.1,21.8z M2.6,21.7c4.5,3.4,11.4,3.1,15.5-1.7c4.2-4.9,3.6-12.3-1.4-16.4C11.9-0.3,5.4,0.4,1.5,4.2
			c0.7,0.7,1.5,1.3,2.2,2c3.4-3,8.5-2.8,11.6,0.3c3.1,3,3.5,7.8,0.9,11.2c-1.3,1.7-3,2.8-5.1,3.2c-2.4,0.5-4.5,0-6.6-1.3
			C3.9,20.2,3.2,21,2.6,21.7z"/>
	</g>
</g>
</svg>
