<svg width="1279" height="952" viewBox="0 0 1279 952" fill="none" xmlns="http://www.w3.org/2000/svg">
<g opacity="0.03">
<path d="M666.892 -63.1177H757.808C757.808 -63.1177 757.808 -63.1177 763.156 -56.2353C763.156 -49.353 768.504 -42.4706 768.504 -42.4706C773.852 -21.8236 779.2 -8.05885 784.548 12.5882C784.548 26.3529 784.548 33.2353 784.548 47C784.548 53.8823 789.896 60.7647 789.896 67.647C795.244 88.2941 800.592 108.941 811.288 122.706C816.636 129.588 816.636 129.588 821.984 136.471C827.332 143.353 832.68 150.235 838.028 157.118C854.072 177.765 859.42 205.294 864.768 239.706V246.588C864.768 267.235 864.768 281 870.116 301.647C875.464 342.941 880.812 384.235 880.812 432.412C880.812 446.176 880.812 459.941 886.16 473.706C891.508 494.353 902.204 508.118 918.248 508.118C923.596 508.118 923.596 508.118 928.944 508.118C939.64 508.118 950.336 501.235 961.032 494.353C977.076 480.588 987.772 459.941 993.12 432.412C998.468 418.647 998.468 391.118 998.468 370.471C998.468 356.706 998.468 336.059 1003.82 322.294C1009.16 287.882 1019.86 253.471 1041.25 232.824C1051.95 219.059 1057.3 212.176 1067.99 205.294L1073.34 198.412C1110.78 164 1105.43 108.941 1100.08 88.2941C1100.08 81.4117 1094.73 74.5294 1094.73 74.5294C1089.38 60.7647 1078.69 60.7647 1067.99 53.8823C1062.64 53.8823 1051.95 53.8823 1046.6 53.8823C1041.25 53.8823 1041.25 53.8823 1035.9 53.8823C1030.56 53.8823 1030.56 53.8823 1025.21 53.8823H1019.86C1009.16 53.8823 1003.82 53.8823 998.468 47C971.728 40.1176 944.988 19.4706 923.596 -14.9412C918.248 -28.7059 912.9 -35.5883 907.552 -56.2353V-63.1177H950.336C950.336 -63.1177 950.336 -63.1177 955.684 -56.2353C961.032 -35.5883 971.728 -28.7059 977.076 -14.9412C993.12 5.70586 1014.51 12.5882 1041.25 12.5882C1046.6 12.5882 1051.95 12.5882 1057.3 12.5882C1067.99 12.5882 1084.04 12.5882 1100.08 5.70586C1110.78 5.70586 1116.12 5.70586 1126.82 -1.1765C1132.17 -1.1765 1137.52 -8.05885 1142.86 -21.8236C1142.86 -28.7059 1148.21 -42.4706 1148.21 -56.2353V-63.1177H1191C1191 -63.1177 1191 -56.2353 1196.34 -56.2353C1201.69 -42.4706 1207.04 -35.5883 1217.74 -35.5883C1223.08 -28.7059 1233.78 -28.7059 1239.13 -28.7059H1244.48C1255.17 -28.7059 1265.87 -21.8236 1271.22 -14.9412C1287.26 -8.05885 1292.61 5.70586 1297.96 12.5882C1308.65 33.2353 1308.65 60.7647 1308.65 88.2941C1303.3 129.588 1292.61 157.118 1265.87 170.882C1249.82 191.529 1228.43 205.294 1212.39 212.176C1207.04 212.176 1207.04 212.176 1201.69 212.176C1191 219.059 1180.3 219.059 1169.6 225.941C1153.56 239.706 1137.52 253.471 1137.52 281C1137.52 294.765 1137.52 308.529 1137.52 322.294V329.176C1137.52 342.941 1137.52 356.706 1142.86 370.471C1148.21 411.765 1169.6 439.294 1196.34 466.823C1212.39 480.588 1228.43 487.471 1244.48 501.235C1249.82 501.235 1249.82 508.118 1255.17 508.118C1271.22 515 1287.26 528.765 1297.96 542.529C1303.3 542.529 1314 549.412 1319.35 556.294V687.059C1308.65 673.294 1297.96 659.529 1287.26 652.647C1271.22 632 1255.17 611.353 1239.13 583.823C1223.08 556.294 1212.39 542.529 1201.69 528.765C1196.34 521.882 1196.34 521.882 1191 515C1180.3 501.235 1169.6 487.471 1158.91 473.706C1148.21 459.941 1137.52 439.294 1132.17 418.647C1121.47 391.118 1116.12 363.588 1110.78 336.059V329.176C1110.78 315.412 1105.43 301.647 1105.43 287.882C1100.08 274.118 1094.73 267.235 1084.04 267.235H1078.69C1073.34 267.235 1067.99 267.235 1067.99 274.118C1051.95 287.882 1046.6 301.647 1041.25 315.412C1035.9 336.059 1035.9 356.706 1035.9 377.353V384.235C1035.9 418.647 1025.21 453.059 1009.16 487.471C998.468 508.118 987.772 528.765 971.728 542.529C950.336 556.294 934.292 556.294 912.9 556.294C907.552 556.294 896.856 556.294 891.508 556.294C875.464 556.294 864.768 542.529 859.42 521.882C859.42 508.118 854.072 501.235 854.072 487.471C854.072 480.588 854.072 466.823 854.072 459.941C854.072 446.176 854.072 439.294 854.072 425.529C854.072 398 848.724 377.353 843.376 349.824C838.028 329.176 827.332 301.647 816.636 274.118C805.94 246.588 789.896 225.941 773.852 219.059C763.156 212.176 757.808 212.176 752.46 212.176C741.764 212.176 736.416 219.059 725.72 232.824C715.024 260.353 698.98 281 688.284 301.647C677.588 322.294 661.544 336.059 640.152 356.706C624.108 377.353 608.064 391.118 602.716 411.765C602.716 418.647 597.368 425.529 597.368 432.412C592.02 439.294 592.02 453.059 586.672 459.941C575.976 494.353 554.584 508.118 533.192 521.882C527.844 521.882 517.148 528.765 511.8 528.765C501.104 528.765 490.408 535.647 479.712 535.647C447.624 556.294 431.58 576.941 420.884 618.235C415.536 638.882 410.188 659.529 415.536 680.177C415.536 700.824 426.232 714.588 431.58 728.353C452.972 762.765 469.016 790.294 485.06 817.824C490.408 831.588 495.756 838.471 501.104 845.353C511.8 859.118 522.496 866 533.192 866C549.236 866 565.28 852.235 586.672 831.588C597.368 817.824 608.064 797.176 613.412 776.529C624.108 749 640.152 721.471 656.196 700.824C672.24 680.177 688.284 659.529 709.676 638.882C720.372 625.118 731.068 618.235 736.416 604.471C757.808 583.823 773.852 570.059 795.244 570.059H800.592C816.636 570.059 827.332 576.941 832.68 590.706C838.028 597.588 843.376 611.353 848.724 618.235C848.724 625.118 854.072 632 854.072 638.882C859.42 659.529 870.116 680.177 880.812 700.824C891.508 721.471 902.204 735.235 912.9 742.118C923.596 749 934.292 755.882 944.988 755.882C950.336 755.882 961.032 755.882 966.38 749C971.728 742.118 977.076 742.118 982.424 735.235C987.772 735.235 987.772 728.353 993.12 728.353C1003.82 721.471 1009.16 714.588 1019.86 707.706C1035.9 700.824 1046.6 693.941 1062.64 693.941C1067.99 693.941 1073.34 693.941 1078.69 693.941C1105.43 700.824 1126.82 728.353 1132.17 762.765C1132.17 776.529 1132.17 790.294 1132.17 810.941C1126.82 845.353 1116.12 866 1089.38 872.882C1078.69 879.765 1062.64 879.765 1051.95 879.765C1046.6 879.765 1041.25 879.765 1035.9 879.765C1030.56 879.765 1030.56 879.765 1025.21 879.765C1019.86 879.765 1014.51 879.765 1009.16 879.765C987.772 886.647 966.38 900.412 955.684 921.059C950.336 927.941 950.336 934.824 944.988 948.588C944.988 948.588 944.988 955.471 939.64 955.471H891.508V948.588V941.706C891.508 921.059 891.508 893.529 896.856 872.882C896.856 859.118 896.856 845.353 891.508 831.588C886.16 817.824 880.812 804.059 875.464 783.412C875.464 776.529 870.116 769.647 870.116 762.765C864.768 742.118 859.42 721.471 848.724 700.824C843.376 680.177 832.68 666.412 827.332 659.529C816.636 645.765 805.94 638.882 795.244 638.882C784.548 638.882 773.852 645.765 763.156 652.647C747.112 666.412 736.416 680.176 720.372 693.941L709.676 700.824C693.632 714.588 682.936 728.353 672.24 749C661.544 769.647 650.848 790.294 645.5 817.824C634.804 852.235 618.76 886.647 597.368 914.176C586.672 927.941 581.324 941.706 575.976 962.353V969.235H495.756C495.756 969.235 495.756 969.235 490.408 962.353C485.06 948.588 474.364 927.941 463.668 921.059V914.176C452.972 900.412 442.276 893.529 431.58 879.765C415.536 859.118 404.84 838.471 388.796 810.941C378.1 790.294 362.056 769.647 346.012 755.882C340.664 749 329.968 742.118 324.62 728.353C313.924 707.706 297.88 693.941 287.184 673.294C281.836 666.412 281.836 659.529 276.488 652.647C265.792 638.882 255.096 618.235 249.748 604.471C239.052 563.176 233.704 521.882 233.704 487.471C233.704 466.824 233.704 439.294 239.052 404.882C244.4 391.118 249.748 370.471 244.4 349.824C244.4 315.412 239.052 287.882 223.008 260.353C212.312 232.823 196.268 219.059 169.528 219.059C169.528 219.059 169.528 219.059 164.18 219.059C148.136 219.059 132.092 225.941 116.048 239.706C110.7 246.588 94.656 253.471 83.96 267.235C57.22 294.765 25.132 308.529 -6.956 322.294C-6.956 322.294 -6.956 322.294 -12.304 322.294V253.471C-6.956 253.471 -6.956 253.471 -1.608 253.471H3.74C14.436 253.471 25.132 253.471 35.828 246.588C51.872 239.706 62.568 232.823 73.264 225.941C78.612 219.059 78.612 212.176 83.96 212.176C110.7 198.412 137.44 184.647 164.18 184.647C169.528 184.647 180.224 184.647 185.572 184.647C206.964 191.529 228.356 205.294 239.052 232.824C249.748 253.471 255.096 281 260.444 322.294C265.792 342.941 265.792 363.588 260.444 384.235C260.444 398 255.096 411.765 255.096 425.529C255.096 432.412 255.096 432.412 255.096 439.294C255.096 466.824 255.096 494.353 255.096 521.882C260.444 576.941 281.836 618.235 313.924 645.765C324.62 652.647 329.968 659.529 340.664 659.529C351.36 659.529 362.056 652.647 372.752 632C378.1 618.235 383.448 611.353 388.796 597.588C388.796 590.706 394.144 590.706 394.144 583.823C410.188 556.294 431.58 528.765 452.972 515C463.668 508.118 474.364 501.235 485.06 494.353C495.756 494.353 501.104 487.471 506.452 487.471C533.192 473.706 554.584 446.176 554.584 404.882C554.584 384.235 559.932 370.471 559.932 349.824C559.932 342.941 559.932 336.059 559.932 329.176C559.932 315.412 570.628 308.529 581.324 308.529C586.672 308.529 592.02 308.529 592.02 308.529C608.064 308.529 624.108 301.647 640.152 281C650.848 260.353 661.544 232.824 656.196 205.294C650.848 170.882 645.5 143.353 634.804 115.824C634.804 108.941 629.456 108.941 629.456 102.059C624.108 88.2941 618.76 67.647 613.412 53.8823C608.064 26.3529 608.064 5.70586 618.76 -8.05885C624.108 -21.8236 629.456 -28.7059 640.152 -35.5883L645.5 -42.4706C656.196 -56.2353 661.544 -56.2353 666.892 -63.1177ZM666.892 -63.1177C661.544 -63.1177 656.196 -49.353 645.5 -42.4706C640.152 -35.5883 629.456 -28.7059 624.108 -14.9412C613.412 5.70586 613.412 26.3529 618.76 47C624.108 67.647 629.456 88.2941 640.152 108.941C650.848 136.471 656.196 164 661.544 191.529C666.892 239.706 640.152 287.882 602.716 287.882H597.368C592.02 287.882 586.672 287.882 581.324 287.882C570.628 287.882 565.28 301.647 559.932 315.412C559.932 322.294 559.932 329.176 559.932 336.059C559.932 356.706 559.932 377.353 554.584 391.118C549.236 432.412 533.192 459.941 506.452 473.706C490.408 494.353 474.364 501.235 458.32 508.118C431.58 521.882 410.188 549.412 399.492 576.941C388.796 597.588 383.448 611.353 372.752 625.118C362.056 638.882 351.36 645.765 340.664 645.765C335.316 645.765 324.62 638.882 319.272 638.882C287.184 611.353 265.792 570.059 260.444 515C255.096 487.471 260.444 459.941 265.792 432.412C265.792 418.647 271.14 404.882 271.14 384.235C271.14 363.588 271.14 342.941 271.14 322.294C265.792 294.765 255.096 260.353 244.4 232.824C233.704 205.294 212.312 184.647 190.92 184.647C185.572 184.647 174.876 184.647 169.528 184.647C142.788 184.647 116.048 191.529 89.308 212.176C67.916 219.059 51.872 232.824 35.828 232.824C25.132 239.706 14.436 239.706 -1.608 239.706C-6.956 239.706 -12.304 239.706 -17.652 239.706H-23C-23 267.235 -23 287.882 -23 315.412C-23 315.412 -23 315.412 -17.652 315.412H-12.304C19.784 308.529 51.872 287.882 83.96 260.353C94.656 246.588 105.352 239.706 121.396 225.941C137.44 219.059 153.484 212.176 169.528 212.176C169.528 212.176 169.528 212.176 174.876 212.176C196.268 212.176 217.66 225.941 228.356 246.588C239.052 287.882 244.4 315.412 244.4 349.824C244.4 370.471 239.052 391.118 239.052 411.765C233.704 432.412 228.356 459.941 228.356 487.471C228.356 528.765 233.704 570.059 249.748 604.471C255.096 625.118 265.792 638.882 276.488 652.647C292.532 680.176 308.576 700.824 324.62 728.353C329.968 735.235 340.664 749 346.012 755.882C362.056 769.647 372.752 790.294 383.448 810.941C394.144 838.471 410.188 859.118 426.232 879.765C436.928 893.529 452.972 907.294 463.668 921.059C474.364 934.824 485.06 948.588 490.408 962.353C490.408 962.353 490.408 969.235 495.756 969.235C517.148 969.235 538.54 969.235 559.932 969.235L565.28 962.353C570.628 941.706 575.976 927.941 586.672 914.176C608.064 886.647 624.108 852.235 634.804 810.941C640.152 790.294 650.848 762.765 661.544 742.118C672.24 728.353 682.936 707.706 698.98 693.941C715.024 680.176 731.068 659.529 752.46 645.765C763.156 638.882 773.852 632 784.548 632C795.244 632 805.94 638.882 816.636 652.647C827.332 666.412 832.68 680.176 838.028 693.941C848.724 721.471 854.072 749 864.768 776.529C870.116 797.176 875.464 810.941 880.812 824.706C886.16 838.471 891.508 852.235 886.16 866C880.812 886.647 880.812 914.176 880.812 934.824C880.812 941.706 880.812 948.588 880.812 955.471V962.353C902.204 962.353 918.248 962.353 939.64 962.353L944.988 955.471C950.336 948.588 950.336 934.823 955.684 927.941C966.38 900.412 987.772 893.529 1009.16 886.647C1019.86 886.647 1025.21 886.647 1035.9 886.647C1051.95 886.647 1073.34 886.647 1089.38 879.765C1110.78 872.882 1126.82 852.235 1132.17 817.824C1132.17 804.059 1132.17 783.412 1132.17 769.647C1126.82 728.353 1105.43 700.824 1078.69 693.941C1073.34 693.941 1067.99 693.941 1057.3 693.941C1041.25 693.941 1030.56 700.824 1014.51 707.706C1003.82 714.588 987.772 728.353 977.076 735.235C971.728 742.118 966.38 742.118 961.032 749C955.684 755.882 950.336 755.882 939.64 755.882C928.944 755.882 918.248 749 907.552 742.118C891.508 728.353 886.16 714.588 875.464 700.824C864.768 680.177 854.072 652.647 843.376 625.118C838.028 611.353 832.68 604.471 827.332 597.588C816.636 583.824 805.94 576.941 795.244 576.941H789.896C768.504 576.941 747.112 590.706 725.72 611.353C698.98 645.765 672.24 673.294 645.5 707.706C629.456 728.353 613.412 755.882 602.716 783.412C592.02 804.059 586.672 824.706 570.628 845.353C554.584 866 538.54 872.882 522.496 879.765C511.8 879.765 501.104 872.882 490.408 859.118C485.06 852.235 479.712 838.471 474.364 831.588C458.32 797.176 442.276 769.647 420.884 735.235C410.188 721.471 404.84 707.706 404.84 687.059C399.492 666.412 404.84 645.765 410.188 625.118C431.58 576.941 452.972 556.294 479.712 542.529C495.756 535.647 511.8 528.765 527.844 521.882C554.584 508.118 570.628 487.471 581.324 459.941C586.672 446.176 592.02 432.412 597.368 411.765C608.064 391.118 618.76 370.471 634.804 356.706C650.848 336.059 666.892 322.294 682.936 294.765C698.98 274.118 709.676 253.471 720.372 225.941C731.068 212.176 736.416 205.294 741.764 205.294C747.112 205.294 752.46 212.176 763.156 212.176C779.2 225.941 795.244 246.588 805.94 267.235C816.636 294.765 827.332 315.412 832.68 342.941C838.028 363.588 843.376 391.118 843.376 411.765C843.376 432.412 843.376 453.059 843.376 480.588C843.376 494.353 843.376 501.235 848.724 515C864.768 542.529 875.464 556.294 891.508 556.294C896.856 556.294 907.552 556.294 912.9 556.294C928.944 556.294 944.988 549.412 961.032 542.529C977.076 528.765 993.12 508.118 1003.82 487.471C1019.86 453.059 1025.21 418.647 1030.56 384.235C1030.56 363.588 1030.56 336.059 1041.25 315.412C1046.6 294.765 1051.95 281 1067.99 274.118C1073.34 274.118 1078.69 267.235 1078.69 267.235H1084.04C1089.38 267.235 1100.08 274.118 1100.08 281C1105.43 294.765 1105.43 308.529 1110.78 322.294C1116.12 349.824 1121.47 377.353 1132.17 404.882C1137.52 425.529 1148.21 446.176 1158.91 459.941C1174.95 480.588 1185.65 494.353 1201.69 515C1217.74 535.647 1228.43 549.412 1239.13 570.059C1255.17 597.588 1271.22 618.235 1287.26 638.882C1297.96 652.647 1308.65 659.529 1319.35 673.294L1324.7 680.177C1324.7 638.882 1324.7 590.706 1324.7 549.412C1319.35 535.647 1314 528.765 1303.3 521.882C1287.26 508.118 1271.22 494.353 1255.17 487.471C1233.78 487.471 1212.39 473.706 1196.34 453.059C1169.6 432.412 1153.56 404.882 1142.86 363.588C1142.86 349.824 1137.52 336.059 1137.52 329.176C1137.52 315.412 1137.52 301.647 1137.52 287.882C1142.86 260.353 1153.56 246.588 1169.6 232.824C1185.65 219.059 1196.34 219.059 1212.39 212.176C1233.78 205.294 1249.82 198.412 1271.22 184.647C1297.96 164 1308.65 136.471 1314 102.059C1319.35 74.5294 1314 53.8823 1303.3 26.3529C1297.96 12.5882 1287.26 -1.17649 1276.56 -8.05885C1265.87 -14.9412 1249.82 -21.8236 1239.13 -21.8236C1233.78 -21.8236 1223.08 -28.7059 1217.74 -28.7059C1207.04 -35.5883 1201.69 -42.4706 1196.34 -49.353L1191 -56.2353C1174.95 -56.2353 1164.26 -56.2353 1148.21 -56.2353C1142.86 -56.2353 1142.86 -49.353 1142.86 -42.4706C1142.86 -28.7059 1137.52 -21.8236 1137.52 -8.05885C1137.52 -1.17649 1132.17 5.70586 1121.47 12.5882C1116.12 5.70586 1105.43 5.70586 1094.73 5.70586C1078.69 5.70586 1067.99 5.70586 1051.95 12.5882C1046.6 12.5882 1041.25 12.5882 1035.9 12.5882C1014.51 12.5882 993.12 5.70586 971.728 -14.9412C961.032 -28.7059 955.684 -42.4706 950.336 -56.2353C950.336 -56.2353 950.336 -63.1177 944.988 -63.1177C928.944 -63.1177 912.9 -63.1177 902.204 -63.1177V-56.2353C907.552 -42.4706 912.9 -28.7059 918.248 -14.9412C944.988 19.4706 971.728 40.1176 998.468 53.8823C1003.82 53.8823 1014.51 60.7647 1019.86 60.7647H1025.21C1030.56 60.7647 1035.9 60.7647 1041.25 60.7647C1046.6 60.7647 1057.3 60.7647 1062.64 60.7647C1073.34 60.7647 1084.04 67.647 1089.38 74.5294C1089.38 81.4117 1094.73 81.4117 1094.73 88.2941C1100.08 122.706 1094.73 170.882 1067.99 198.412C1062.64 205.294 1051.95 212.176 1041.25 225.941C1019.86 246.588 1003.82 281 998.468 315.412C998.468 336.059 998.468 349.824 998.468 370.471C998.468 391.118 998.468 418.647 993.12 439.294C987.772 466.824 977.076 487.471 961.032 501.235C950.336 508.118 939.64 515 928.944 515C923.596 515 923.596 515 918.248 515C902.204 508.118 896.856 501.235 891.508 480.588C886.16 466.824 886.16 453.059 886.16 439.294C886.16 398 880.812 349.824 875.464 308.529C870.116 287.882 870.116 267.235 870.116 246.588C870.116 212.176 859.42 184.647 843.376 157.118C838.028 143.353 827.332 136.471 816.636 122.706C805.94 108.941 795.244 88.2941 795.244 67.647C789.896 47 789.896 33.2353 784.548 12.5882C779.2 -14.9412 773.852 -35.5883 763.156 -56.2353C763.156 -56.2353 763.156 -63.1177 757.808 -63.1177C725.72 -63.1177 693.632 -63.1177 666.892 -63.1177Z" fill="#50935E"/>
<path d="M-12.304 563.177C3.74 563.177 9.088 570.059 19.784 570.059C57.22 576.941 89.308 604.471 110.7 638.883C116.048 645.765 121.396 659.53 126.744 673.294C142.788 707.706 142.788 742.118 148.136 776.53C148.136 797.177 153.484 817.824 153.484 845.353C158.832 872.883 169.528 886.647 180.224 900.412C185.572 900.412 196.268 907.294 206.964 921.059C212.312 921.059 212.312 927.941 217.66 927.941C228.356 934.824 239.052 948.589 244.4 962.353V969.236H196.268C190.92 969.236 190.92 969.236 185.572 969.236H180.224C174.876 969.236 174.876 969.236 169.528 969.236C164.18 969.236 153.484 969.236 148.136 976.118C94.656 976.118 41.176 976.118 -17.652 976.118C-17.652 969.236 -17.652 955.471 -17.652 948.589V934.824C-17.652 934.824 -17.652 934.824 -12.304 934.824C-6.956 934.824 -1.608 934.824 -1.608 934.824H3.74H9.088C19.784 934.824 30.48 934.824 41.176 934.824C51.872 934.824 67.916 927.941 83.96 921.059C94.656 914.177 105.352 900.412 105.352 886.647C110.7 866 110.7 845.353 110.7 824.706C110.7 804.059 110.7 783.412 110.7 762.765C110.7 728.353 105.352 707.706 94.656 680.177C89.308 645.765 73.264 625.118 46.524 611.353C35.828 604.471 19.784 604.471 14.436 604.471C9.088 604.471 3.74 604.471 -1.608 604.471H-6.956C-6.956 604.471 -6.956 604.471 -12.304 604.471V563.177ZM-12.304 556.294C-12.304 556.294 -17.652 556.294 -12.304 556.294C-17.652 576.941 -17.652 590.706 -17.652 604.471H-12.304H-6.956C-1.608 604.471 9.088 604.471 14.436 604.471C25.132 604.471 35.828 604.471 51.872 611.353C78.612 625.118 94.656 645.765 105.352 673.294C116.048 700.824 121.396 721.471 121.396 755.883C121.396 776.53 121.396 797.177 121.396 817.824C121.396 838.471 121.396 859.118 116.048 879.765C110.7 893.53 105.352 900.412 89.308 907.294C73.264 914.177 62.568 914.177 46.524 914.177C35.828 914.177 25.132 914.177 14.436 914.177C9.088 914.177 3.74 914.177 -1.608 914.177C-6.956 914.177 -12.304 914.177 -12.304 914.177C-12.304 914.177 -12.304 914.177 -17.652 914.177H-23C-23 927.941 -23 941.706 -23 955.471C-17.652 969.236 -17.652 969.236 -12.304 969.236C41.176 969.236 94.656 969.236 153.484 969.236C158.832 962.353 164.18 962.353 174.876 962.353C180.224 962.353 180.224 962.353 185.572 962.353C185.572 969.236 190.92 969.236 196.268 969.236C212.312 969.236 228.356 969.236 249.748 969.236C249.748 962.353 249.748 962.353 249.748 962.353C239.052 948.589 233.704 934.824 223.008 927.941C212.312 914.177 196.268 907.294 185.572 893.53C174.876 879.765 164.18 859.118 158.832 838.471C153.484 817.824 153.484 797.177 153.484 769.647C153.484 735.236 148.136 700.824 132.092 666.412C126.744 652.647 121.396 645.765 116.048 632C94.656 590.706 62.568 570.059 25.132 563.177C9.088 563.177 -1.608 563.177 -12.304 556.294Z" fill="#50935E"/>
<path d="M271.14 -63.1177H292.532C292.532 -63.1177 292.532 -56.2353 297.88 -56.2353C303.228 -35.5883 308.576 -14.9412 319.272 5.70586C324.62 19.4706 329.968 26.3529 335.316 40.1176C329.968 60.7647 340.664 74.5294 346.012 95.1764C356.708 115.824 362.056 136.471 378.1 157.118C394.144 177.765 410.188 184.647 431.58 184.647H436.928C452.972 184.647 463.668 170.882 474.364 157.118C485.06 136.471 490.408 108.941 495.756 88.2941C495.756 67.647 501.104 53.8823 501.104 33.2353V26.3529C501.104 -1.1765 506.452 -28.7059 506.452 -49.353V-56.2353V-63.1177H554.584C554.584 -49.353 549.236 -35.5883 543.888 -21.8236C533.192 5.70586 522.496 40.1176 517.148 74.5294V81.4117C511.8 102.059 511.8 129.588 506.452 150.235C501.104 170.882 495.756 184.647 490.408 191.529C479.712 212.176 463.668 219.059 442.276 219.059C436.928 219.059 431.58 219.059 426.232 219.059C399.492 212.176 372.752 184.647 351.36 150.235C340.664 129.588 329.968 108.941 319.272 88.2941C313.924 81.4117 313.924 74.5294 308.576 67.647C297.88 47 287.184 19.4706 281.836 -1.1765C276.488 -28.7059 271.14 -42.4706 271.14 -63.1177ZM265.792 -63.1177C265.792 -42.4706 271.14 -21.8236 276.488 -1.1765C287.184 26.3529 303.228 60.7647 319.272 88.2941C329.968 108.941 335.316 129.588 346.012 150.235C367.404 184.647 394.144 212.176 431.58 219.059C436.928 219.059 442.276 219.059 447.624 219.059C463.668 219.059 479.712 212.176 490.408 191.529C495.756 177.765 501.104 164 506.452 150.235C511.8 129.588 517.148 102.059 517.148 81.4117C522.496 47 527.844 12.5882 543.888 -14.9412C549.236 -28.7059 554.584 -42.4706 554.584 -56.2353C538.54 -56.2353 522.496 -56.2353 506.452 -56.2353L501.104 -49.353C501.104 -28.7059 495.756 -1.1765 495.756 26.3529C495.756 47 495.756 67.647 490.408 88.2941C485.06 115.824 485.06 136.471 469.016 157.118C463.668 170.882 447.624 177.765 431.58 177.765H426.232C410.188 177.765 394.144 170.882 378.1 150.235C367.404 136.471 356.708 115.824 346.012 95.1764C335.316 67.647 324.62 40.1176 313.924 5.70586C303.228 -8.05885 297.88 -28.7059 292.532 -56.2353C292.532 -63.1177 292.532 -63.1177 287.184 -63.1177C281.836 -63.1177 271.14 -63.1177 265.792 -63.1177Z" fill="#50935E"/>
<path d="M67.916 -63.1177H132.092C132.092 -56.2353 126.744 -42.4706 126.744 -35.5883C116.048 -1.17649 100.004 19.4706 73.264 40.1176C57.22 60.7647 41.176 60.7647 30.48 60.7647C25.132 60.7647 19.784 60.7647 14.436 60.7647L-6.95598 53.8823H-17.652V-35.5883H-12.304H-6.95598C-6.95598 -35.5883 -6.95598 -35.5883 -1.60798 -35.5883H3.74002C9.08802 -35.5883 14.436 -35.5883 19.784 -35.5883C25.132 -35.5883 25.132 -35.5883 30.48 -35.5883C46.524 -35.5883 57.22 -42.4706 67.916 -63.1177C62.568 -56.2353 67.916 -56.2353 67.916 -63.1177ZM67.916 -63.1177C67.916 -63.1177 62.568 -63.1177 62.568 -56.2353C51.872 -42.4706 41.176 -42.4706 30.48 -42.4706C25.132 -42.4706 25.132 -42.4706 19.784 -42.4706C14.436 -42.4706 3.74002 -42.4706 -1.60798 -42.4706H-6.95598C-6.95598 -42.4706 -12.304 -42.4706 -12.304 -35.5883C-12.304 -1.17649 -12.304 26.3529 -12.304 60.7647C-1.60798 60.7647 9.08802 67.647 19.784 67.647C25.132 67.647 30.48 67.647 35.828 67.647C51.872 67.647 67.916 60.7647 83.96 47C105.352 26.3529 121.396 -1.17649 137.44 -35.5883C126.744 -42.4706 132.092 -49.353 132.092 -63.1177C110.7 -63.1177 89.308 -63.1177 67.916 -63.1177Z" fill="#50935E"/>
<path d="M1319.35 790.294V879.765V886.647C1314 893.53 1303.3 900.412 1297.96 907.294C1287.26 914.177 1271.22 921.059 1260.52 927.941C1255.17 927.941 1255.17 934.824 1249.82 934.824C1239.13 941.706 1228.43 941.706 1223.08 955.471C1217.74 962.353 1217.74 962.353 1212.39 962.353H1158.91C1158.91 934.824 1169.6 914.177 1191 907.294C1196.34 907.294 1207.04 900.412 1212.39 900.412C1217.74 900.412 1228.43 893.53 1233.78 893.53C1249.82 886.647 1265.87 872.883 1276.56 859.118C1281.91 852.236 1292.61 838.471 1297.96 824.706L1303.3 817.824L1308.65 810.941C1314 804.059 1314 797.177 1319.35 790.294ZM1319.35 783.412C1314 790.294 1308.65 804.059 1303.3 810.941C1297.96 824.706 1287.26 838.471 1281.91 852.236C1271.22 866 1255.17 879.765 1239.13 886.647C1223.08 893.53 1212.39 900.412 1196.34 907.294C1169.6 914.177 1158.91 941.706 1158.91 969.236C1174.95 969.236 1191 969.236 1207.04 969.236C1212.39 969.236 1212.39 962.353 1217.74 962.353C1223.08 955.471 1233.78 948.589 1244.48 941.706C1260.52 934.824 1276.56 927.941 1292.61 914.177C1303.3 907.294 1308.65 900.412 1319.35 893.53L1324.7 886.647C1319.35 852.236 1319.35 817.824 1319.35 783.412Z" fill="#50935E"/>
<path d="M763.156 -63.1177H805.94L811.288 -56.2353C816.636 -42.4706 821.984 -28.7059 832.68 -14.9412C838.028 -8.05885 838.028 -8.05885 843.376 -8.05885C843.376 -8.05885 843.376 -8.05885 848.724 -8.05885C854.072 -8.05885 854.072 -14.9412 854.072 -21.8236C854.072 -28.7059 854.072 -35.5883 854.072 -42.4706C854.072 -49.353 854.072 -49.353 854.072 -56.2353V-63.1177H907.552C907.552 -49.353 912.9 -42.4706 918.248 -28.7059C928.944 -8.05885 939.64 5.70585 961.032 26.3529C977.076 40.1176 998.468 47 1014.51 53.8823C1019.86 53.8823 1030.56 53.8823 1035.9 53.8823C1041.25 53.8823 1041.25 53.8823 1046.6 53.8823C1051.95 53.8823 1051.95 53.8823 1057.3 53.8823H1062.64C1073.34 53.8823 1078.69 53.8823 1084.04 60.7647C1094.73 67.647 1105.43 74.5294 1105.43 95.1764C1105.43 108.941 1105.43 115.824 1105.43 129.588C1105.43 157.118 1094.73 177.765 1078.69 191.529C1073.34 198.412 1067.99 205.294 1062.64 212.176C1057.3 212.176 1051.95 212.176 1046.6 219.059C1019.86 239.706 1003.82 274.118 998.468 315.412C998.468 329.176 998.468 349.824 998.468 370.471C998.468 377.353 998.468 384.235 998.468 391.118C998.468 418.647 993.12 446.176 982.424 466.823C971.728 501.235 955.684 515 934.292 521.882H928.944C912.9 521.882 896.856 508.118 891.508 487.471C886.16 466.824 886.16 446.176 886.16 432.412V418.647C886.16 404.882 886.16 384.235 880.812 363.588C875.464 329.176 870.116 281 870.116 239.706C870.116 205.294 859.42 177.765 838.028 157.118C832.68 143.353 827.332 143.353 827.332 136.471C821.984 129.588 816.636 122.706 811.288 115.824C805.94 108.941 800.592 95.1764 795.244 81.4117C789.896 74.5294 789.896 53.8823 784.548 40.1176C779.2 12.5882 773.852 -14.9412 763.156 -42.4706C763.156 -49.353 763.156 -56.2353 763.156 -63.1177ZM757.808 -63.1177C768.504 -28.7059 779.2 5.70586 784.548 40.1176C784.548 53.8823 789.896 74.5294 795.244 88.2941C800.592 102.059 805.94 108.941 811.288 122.706C816.636 136.471 827.332 143.353 832.68 150.235C848.724 170.882 859.42 198.412 859.42 232.824C864.768 274.118 864.768 315.412 870.116 356.706C875.464 377.353 875.464 398 875.464 418.647C875.464 439.294 875.464 453.059 880.812 473.706C886.16 494.353 902.204 515 923.596 515H928.944C955.684 508.118 966.38 487.471 977.076 459.941C993.12 439.294 998.468 411.765 998.468 391.118C998.468 363.588 998.468 342.941 1003.82 315.412C1009.16 274.118 1025.21 246.588 1051.95 219.059C1062.64 212.176 1073.34 198.412 1078.69 191.529C1094.73 177.765 1105.43 157.118 1105.43 129.588C1105.43 115.824 1105.43 102.059 1105.43 95.1764C1105.43 74.5294 1094.73 67.647 1084.04 60.7647C1078.69 60.7647 1067.99 53.8823 1057.3 53.8823H1051.95C1046.6 53.8823 1041.25 53.8823 1035.9 53.8823C1030.56 53.8823 1025.21 53.8823 1019.86 53.8823C998.468 53.8823 982.424 40.1176 966.38 26.3529C950.336 12.5882 934.292 -1.17649 923.596 -21.8236C918.248 -35.5883 912.9 -42.4706 907.552 -56.2353C891.508 -56.2353 870.116 -56.2353 854.072 -56.2353V-49.353C854.072 -35.5883 854.072 -28.7059 854.072 -14.9412C854.072 -8.05885 854.072 -1.1765 848.724 -1.1765C843.376 -1.1765 843.376 -1.17649 838.028 -8.05885C827.332 -21.8236 821.984 -28.7059 816.636 -49.353C816.636 -56.2353 816.636 -56.2353 811.288 -63.1177C789.896 -63.1177 773.852 -63.1177 757.808 -63.1177Z" fill="#50935E"/>
<path d="M784.548 638.882C795.244 638.882 800.592 638.882 811.288 652.647C816.636 659.529 821.984 666.412 832.68 680.177C843.376 700.824 854.072 728.353 859.42 755.882V762.765C864.768 783.412 875.464 810.941 886.16 831.588C891.508 845.353 891.508 859.118 891.508 872.882C886.16 893.529 886.16 921.059 886.16 941.706V948.588V955.471H821.984L816.636 948.588C816.636 948.588 816.636 948.588 816.636 941.706C811.288 927.941 805.94 914.176 800.592 900.412C789.896 859.118 784.548 817.824 789.896 769.647V762.765C789.896 749 789.896 735.235 789.896 721.471C789.896 700.824 779.2 687.059 763.156 687.059H757.808C741.764 687.059 725.72 700.824 709.676 714.588C698.98 721.471 693.632 728.353 682.936 742.118C672.24 762.765 661.544 783.412 656.196 810.941C645.5 859.118 634.804 900.412 629.456 941.706C629.456 948.588 629.456 948.588 629.456 948.588H565.28C565.28 934.824 570.628 921.059 575.976 914.176C581.324 900.412 586.672 893.529 592.02 886.647C602.716 866 613.412 852.235 618.76 831.588C624.108 817.824 629.456 804.059 634.804 790.294C640.152 783.412 640.152 769.647 645.5 762.765C656.196 742.118 666.892 721.471 682.936 700.824C704.328 680.177 725.72 659.529 747.112 638.882C757.808 632 763.156 625.118 773.852 625.118C779.2 638.882 779.2 638.882 784.548 638.882ZM784.548 638.882C779.2 638.882 773.852 638.882 773.852 638.882C763.156 638.882 757.808 645.765 747.112 652.647C725.72 673.294 704.328 693.941 682.936 714.588C666.892 735.235 656.196 749 645.5 776.529C634.804 797.176 629.456 824.706 618.76 845.353C613.412 866 602.716 879.765 592.02 900.412C586.672 907.294 581.324 921.059 575.976 927.941C570.628 941.706 565.28 955.471 565.28 969.235C586.672 969.235 613.412 969.235 634.804 969.235C640.152 969.235 640.152 962.353 640.152 955.471C645.5 914.176 656.196 866 666.892 824.706C672.24 804.059 682.936 776.529 693.632 762.765C698.98 749 709.676 742.118 720.372 735.235C736.416 721.471 752.46 714.588 768.504 714.588C768.504 714.588 768.504 714.588 773.852 714.588C784.548 714.588 795.244 728.353 800.592 742.118C800.592 755.882 800.592 769.647 800.592 790.294C795.244 831.588 800.592 879.765 811.288 921.059C816.636 934.824 821.984 948.588 827.332 962.353C827.332 969.235 832.68 976.118 838.028 976.118C859.42 976.118 880.812 976.118 902.204 976.118C902.204 969.235 902.204 962.353 902.204 955.471C902.204 934.824 902.204 907.294 907.552 886.647C907.552 872.882 907.552 859.118 902.204 845.353C891.508 824.706 886.16 797.177 875.464 769.647C864.768 742.118 859.42 707.706 843.376 687.059C838.028 673.294 832.68 666.412 821.984 659.529C800.592 638.882 795.244 638.882 784.548 638.882Z" fill="#50935E"/>
<path d="M1067.99 735.235C1084.04 735.235 1094.73 742.118 1100.08 762.765C1110.78 776.529 1110.78 817.824 1089.38 838.471C1078.69 852.235 1067.99 852.235 1051.95 852.235C1035.9 852.235 1019.86 845.353 1009.16 838.471C1003.82 831.588 998.468 824.706 998.468 817.824C998.468 810.941 998.468 797.176 1003.82 790.294C1009.16 783.412 1009.16 776.529 1014.51 769.647C1030.56 749 1041.25 735.235 1062.64 735.235C1062.64 735.235 1062.64 735.235 1067.99 735.235ZM1067.99 735.235H1062.64C1041.25 735.235 1025.21 755.882 1014.51 769.647C1009.16 776.529 1009.16 783.412 1003.82 790.294C998.468 797.176 998.468 810.941 998.468 817.824C998.468 824.706 1003.82 831.588 1009.16 838.471C1019.86 845.353 1035.9 852.235 1051.95 852.235C1062.64 852.235 1078.69 852.235 1089.38 838.471C1110.78 817.824 1110.78 776.529 1100.08 762.765C1089.38 742.118 1078.69 735.235 1067.99 735.235Z" fill="#D9E021"/>
<path d="M1073.34 418.647H1078.69C1084.04 425.529 1089.38 432.412 1094.73 439.294V446.176C1105.43 466.823 1121.47 487.471 1132.17 508.118C1137.52 515 1142.86 521.882 1142.86 528.765C1158.91 549.412 1174.95 576.941 1191 604.471C1196.34 618.235 1207.04 632 1217.74 645.765C1228.43 666.412 1239.13 687.059 1249.82 707.706C1260.52 728.353 1265.87 749 1265.87 762.765C1260.52 804.059 1244.48 831.588 1212.39 845.353C1207.04 845.353 1207.04 845.353 1201.69 845.353C1191 845.353 1174.95 838.471 1169.6 810.941C1169.6 797.176 1164.26 790.294 1164.26 776.529C1164.26 769.647 1164.26 762.765 1158.91 762.765C1153.56 721.471 1137.52 693.941 1110.78 680.176C1094.73 666.412 1073.34 666.412 1051.95 666.412C1041.25 666.412 1035.9 666.412 1025.21 666.412C1009.16 666.412 993.12 680.176 977.076 687.059C966.38 693.941 955.684 700.824 944.988 700.824C928.944 700.824 907.552 680.176 902.204 659.529C902.204 645.765 902.204 632 912.9 625.118C918.248 618.235 923.596 618.235 934.292 611.353C961.032 597.588 982.424 576.941 1003.82 542.529C1014.51 521.882 1025.21 501.235 1035.9 473.706V466.823C1041.25 453.059 1046.6 446.176 1051.95 432.412C1067.99 418.647 1067.99 418.647 1073.34 418.647ZM1073.34 418.647C1067.99 418.647 1067.99 418.647 1062.64 425.529C1051.95 439.294 1051.95 453.059 1041.25 466.823C1030.56 487.471 1019.86 515 1009.16 535.647C993.12 570.059 971.728 590.706 939.64 604.471C934.292 604.471 923.596 611.353 918.248 618.235C907.552 625.118 907.552 638.882 907.552 652.647C912.9 680.176 934.292 700.824 950.336 700.824C961.032 700.824 971.728 693.941 982.424 687.059C998.468 680.176 1014.51 673.294 1030.56 666.412C1041.25 666.412 1046.6 666.412 1057.3 666.412C1078.69 666.412 1100.08 673.294 1116.12 680.176C1142.86 693.941 1153.56 721.471 1164.26 755.882C1169.6 769.647 1169.6 790.294 1174.95 804.059C1180.3 831.588 1196.34 838.471 1212.39 838.471C1217.74 838.471 1217.74 838.471 1223.08 838.471C1255.17 831.588 1271.22 797.176 1276.56 755.882C1276.56 735.235 1271.22 714.588 1260.52 693.941C1244.48 659.529 1223.08 625.118 1201.69 590.706C1185.65 556.294 1158.91 528.765 1137.52 501.235C1121.47 480.588 1110.78 459.941 1100.08 439.294C1094.73 432.412 1089.38 418.647 1078.69 411.765C1078.69 418.647 1073.34 418.647 1073.34 418.647Z" fill="#50935E"/>
<path d="M763.156 707.706C768.504 707.706 773.852 707.706 779.2 714.588C789.896 728.353 789.896 742.118 789.896 762.765C789.896 769.647 789.896 776.53 789.896 783.412C789.896 790.294 789.896 804.059 789.896 810.941C789.896 831.588 789.896 845.353 795.244 866C800.592 893.53 805.94 921.059 816.636 941.706C816.636 941.706 816.636 948.588 821.984 948.588C827.332 955.471 827.332 962.353 827.332 969.235H640.152C645.5 934.824 650.848 900.412 656.196 872.883L661.544 852.235C666.892 817.824 677.588 776.53 704.328 749C715.024 728.353 736.416 714.588 763.156 707.706ZM763.156 707.706C736.416 714.588 715.024 728.353 693.632 749C666.892 776.53 661.544 810.941 650.848 852.235C645.5 893.53 634.804 927.941 629.456 969.235C693.632 969.235 757.808 969.235 821.984 969.235C821.984 955.471 816.636 948.588 811.288 941.706C800.592 921.059 795.244 893.53 789.896 866C789.896 845.353 784.548 831.588 784.548 810.941C784.548 797.177 784.548 776.53 784.548 762.765C784.548 742.118 784.548 728.353 773.852 714.588C779.2 707.706 773.852 707.706 763.156 707.706Z" fill="#50935E"/>
<path d="M1255.17 239.706C1265.87 239.706 1271.22 239.706 1281.91 239.706C1292.61 239.706 1297.96 246.588 1303.3 246.588C1308.65 246.588 1308.65 253.471 1314 253.471V418.647C1308.65 418.647 1303.3 425.53 1297.96 425.53C1281.91 432.412 1265.87 432.412 1255.17 432.412C1244.48 432.412 1233.78 432.412 1217.74 425.53C1191 418.647 1164.26 384.235 1158.91 336.059C1158.91 301.647 1169.6 274.118 1185.65 260.353C1212.39 246.588 1233.78 239.706 1255.17 239.706ZM1255.17 239.706C1233.78 239.706 1212.39 246.588 1191 260.353C1169.6 274.118 1158.91 308.53 1158.91 342.941C1164.26 384.235 1191 418.647 1217.74 432.412C1228.43 439.294 1239.13 439.294 1255.17 439.294C1271.22 439.294 1281.91 439.294 1297.96 432.412C1303.3 432.412 1308.65 425.53 1314 425.53C1314 370.471 1314 315.412 1314 260.353C1303.3 253.471 1287.26 246.588 1276.56 246.588C1271.22 239.706 1265.87 239.706 1255.17 239.706Z" fill="#50935E"/>
<path d="M25.132 645.765C30.48 645.765 35.828 645.765 35.828 645.765C62.568 652.647 83.96 673.294 89.308 714.588C94.656 742.118 94.656 769.647 89.308 804.059C83.96 838.471 67.916 859.118 41.176 866C25.132 872.882 9.08802 872.882 -12.304 872.882V817.824C-12.304 817.824 -12.304 817.824 -6.95598 817.824H-1.60798C3.74002 817.824 9.08802 817.824 14.436 817.824C46.524 810.941 62.568 776.529 62.568 735.235C62.568 707.706 51.872 687.059 30.48 687.059H25.132C25.132 687.059 19.784 687.059 14.436 687.059C3.74002 687.059 -1.60798 693.941 -12.304 693.941V645.765C-6.95598 645.765 -1.60798 645.765 3.74002 645.765C9.08802 645.765 14.436 645.765 25.132 645.765ZM25.132 638.882C14.436 638.882 9.08802 638.882 -1.60798 645.765C-6.95598 645.765 -12.304 645.765 -17.652 652.647C-17.652 666.412 -17.652 687.059 -17.652 700.824C-17.652 700.824 -17.652 700.824 -12.304 700.824C-12.304 700.824 -12.304 700.824 -6.95598 700.824C-1.60798 693.941 9.08802 693.941 19.784 693.941H25.132H30.48C46.524 700.824 57.22 714.588 62.568 742.118C62.568 783.412 46.524 810.941 14.436 817.824C9.08802 817.824 3.74002 817.824 -1.60798 817.824H-6.95598H-12.304C-12.304 838.471 -12.304 852.235 -12.304 872.882H-6.95598C9.08802 872.882 30.48 872.882 46.524 866C73.264 859.118 89.308 831.588 94.656 797.176C100.004 769.647 100.004 742.118 94.656 707.706C89.308 666.412 67.916 645.765 41.176 638.882C30.48 638.882 30.48 638.882 25.132 638.882Z" fill="#50935E"/>
<path d="M902.204 67.6465C918.248 67.6465 934.292 74.5288 950.336 88.2935C971.728 95.1759 993.12 108.941 1019.86 115.823C1025.21 115.823 1030.56 115.823 1030.56 122.705C1041.25 129.588 1041.25 136.47 1035.9 150.235C1035.9 157.117 1030.56 157.117 1030.56 163.999C1025.21 177.764 1019.86 184.646 1009.16 198.411C993.12 225.941 982.424 253.47 971.728 280.999C966.38 301.646 961.032 329.176 966.38 356.705C966.38 363.588 966.38 363.588 966.38 370.47C966.38 377.352 966.38 384.235 966.38 391.117C966.38 404.882 966.38 418.647 961.032 439.294C955.684 446.176 955.684 453.058 950.336 459.941C944.988 459.941 944.988 466.823 939.64 466.823C934.292 466.823 923.596 459.941 918.248 446.176C912.9 432.411 912.9 418.647 912.9 404.882C912.9 391.117 912.9 384.235 912.9 370.47C912.9 356.705 912.9 349.823 912.9 336.058C912.9 308.529 912.9 280.999 912.9 260.352V239.705C912.9 225.941 912.9 205.294 907.552 191.529C907.552 177.764 902.204 163.999 902.204 150.235C902.204 143.352 896.856 136.47 896.856 129.588V122.705C896.856 108.941 891.508 102.058 891.508 88.2935C891.508 81.4112 891.508 67.6465 902.204 67.6465ZM902.204 67.6465C891.508 67.6465 886.16 74.5288 886.16 88.2935C886.16 102.058 891.508 115.823 891.508 129.588C896.856 150.235 902.204 170.882 902.204 191.529C902.204 205.294 907.552 225.941 907.552 239.705C907.552 274.117 907.552 301.646 907.552 336.058C907.552 356.705 907.552 377.352 907.552 397.999C907.552 411.764 907.552 425.529 912.9 439.294C918.248 453.058 923.596 459.941 934.292 459.941C939.64 459.941 944.988 459.941 944.988 453.058C950.336 446.176 955.684 439.294 961.032 432.411C966.38 418.646 966.38 404.882 971.728 384.235C971.728 377.352 971.728 363.588 971.728 349.823C971.728 329.176 971.728 301.646 977.076 274.117C982.424 239.705 998.468 219.058 1014.51 191.529C1019.86 177.764 1030.56 170.882 1035.9 157.117C1035.9 150.235 1041.25 150.235 1041.25 143.352C1046.6 129.588 1046.6 122.705 1035.9 115.823C1030.56 115.823 1025.21 108.941 1025.21 108.941C1003.82 102.058 982.424 95.1759 955.684 81.4112C934.292 74.5288 918.248 67.6465 902.204 67.6465Z" fill="#50935E"/>
<path d="M25.132 687.059C41.176 687.059 51.872 700.823 57.22 721.47C62.568 742.117 57.22 762.764 51.872 783.412C46.524 797.176 30.48 810.941 19.784 817.823C9.08802 817.823 3.74002 817.823 -6.95598 817.823H-12.304V700.823H-6.95598C3.74002 693.941 14.436 687.059 25.132 687.059ZM25.132 687.059C14.436 687.059 -1.60798 693.941 -12.304 693.941H-17.652C-17.652 735.235 -17.652 776.529 -17.652 810.941C-17.652 810.941 -12.304 810.941 -6.95598 810.941C-6.95598 810.941 -6.95598 810.941 -1.60798 810.941C9.08802 810.941 14.436 810.941 25.132 810.941C57.22 804.059 73.264 755.882 67.916 714.588C57.22 700.823 41.176 687.059 25.132 687.059Z" fill="#50935E"/>
<path d="M319.272 232.824H324.62C335.316 232.824 346.012 239.706 356.708 246.588C378.1 267.236 394.144 281 410.188 301.647C420.884 315.412 436.928 322.294 442.276 336.059C458.32 349.824 463.668 363.588 458.32 384.236C463.668 398 458.32 404.883 447.624 418.647C436.928 432.412 426.232 439.294 415.536 453.059H410.188C394.144 466.824 378.1 473.706 367.404 487.471C362.056 494.353 356.708 501.236 351.36 501.236C346.012 501.236 346.012 501.236 340.664 501.236C335.316 501.236 329.968 494.353 329.968 487.471C329.968 480.588 329.968 473.706 329.968 459.941C335.316 432.412 335.316 404.883 329.968 377.353C329.968 363.588 324.62 349.824 324.62 342.941C319.272 322.294 313.924 308.53 313.924 294.765C313.924 281 308.576 267.236 308.576 253.471C308.576 239.706 313.924 232.824 319.272 232.824ZM319.272 225.941C308.576 225.941 303.228 232.824 303.228 246.588C303.228 260.353 303.228 274.118 308.576 294.765C313.924 322.294 324.62 349.824 329.968 377.353C335.316 404.883 335.316 432.412 329.968 459.941C329.968 466.824 329.968 473.706 329.968 487.471C329.968 501.236 335.316 508.118 346.012 508.118C351.36 508.118 351.36 508.118 356.708 508.118C356.708 501.236 362.056 494.353 367.404 494.353C383.448 480.589 399.492 466.824 415.536 453.059C431.58 446.177 442.276 432.412 452.972 418.647C458.32 411.765 463.668 398 463.668 384.236C463.668 363.588 458.32 349.824 447.624 336.059C436.928 315.412 426.232 308.53 415.536 294.765C394.144 281 378.1 267.236 356.708 246.588C346.012 239.706 340.664 232.824 324.62 225.941C324.62 225.941 324.62 225.941 319.272 225.941Z" fill="#50935E"/>
<path d="M715.024 817.824C720.372 817.824 720.372 817.824 715.024 817.824C725.72 831.588 731.068 845.353 725.72 859.118C720.372 866 720.372 872.883 715.024 872.883H709.676C704.328 866 704.328 859.118 704.328 852.236C704.328 831.588 709.676 824.706 715.024 817.824ZM715.024 817.824C698.98 824.706 693.632 859.118 704.328 872.883L709.676 879.765C715.024 879.765 720.372 872.883 720.372 866C725.72 852.235 725.72 838.471 715.024 824.706C720.372 817.824 720.372 817.824 715.024 817.824Z" fill="#50935E"/>
<path d="M351.36 948.588H356.708C362.056 955.471 367.404 955.471 372.752 962.353H335.316C335.316 955.471 340.664 948.588 351.36 948.588ZM351.36 948.588C346.012 948.588 335.316 955.471 335.316 969.235C335.316 969.235 335.316 969.235 335.316 976.118C351.36 976.118 367.404 976.118 383.448 976.118C378.1 962.353 372.752 962.353 362.056 955.471C356.708 948.588 351.36 948.588 351.36 948.588Z" fill="#50935E"/>
<path d="M164.18 315.412C169.528 315.412 174.876 322.294 180.224 329.177C180.224 336.059 185.572 336.059 185.572 342.942C185.572 356.706 185.572 370.471 185.572 384.236C185.572 391.118 185.572 391.118 185.572 398C185.572 418.647 185.572 439.294 185.572 453.059V466.824C185.572 487.471 185.572 501.236 185.572 521.883C185.572 542.53 185.572 556.294 180.224 576.942C174.876 583.824 169.528 590.706 164.18 590.706H158.832C148.136 583.824 142.788 583.824 132.092 576.942H126.744C110.7 556.294 89.3081 535.647 67.9161 515C62.5681 508.118 51.8721 501.236 46.5241 487.471C30.4801 466.824 30.4801 446.177 41.1761 418.647C46.5241 418.647 51.8721 411.765 57.2201 404.883C67.9161 398 73.2641 391.118 83.9601 377.353C100.004 363.589 116.048 349.824 126.744 336.059C132.092 329.177 142.788 322.294 158.832 315.412C158.832 315.412 158.832 315.412 164.18 315.412ZM164.18 308.53H158.832C142.788 315.412 132.092 329.177 126.744 336.059C105.352 363.589 78.6121 384.236 57.2201 404.883C51.8721 411.765 46.5241 418.647 41.1761 425.53C25.1321 453.059 30.4801 473.706 46.5241 494.353C51.8721 501.236 62.5681 508.118 67.9161 521.883C89.3081 535.647 110.7 556.294 132.092 576.942C137.44 583.824 148.136 590.706 153.484 590.706H158.832C164.18 590.706 169.528 583.824 174.876 570.059C185.572 556.294 185.572 542.53 185.572 521.883C185.572 501.236 185.572 480.589 180.224 453.059C180.224 432.412 180.224 411.765 180.224 398C180.224 377.353 185.572 356.706 180.224 342.942C180.224 336.059 180.224 329.177 174.876 329.177C174.876 315.412 169.528 308.53 164.18 308.53Z" fill="#50935E"/>
<path d="M741.764 370.471H747.112C757.808 370.471 763.156 377.353 768.504 391.118C773.852 404.883 773.852 418.647 773.852 425.53C773.852 432.412 768.504 446.177 763.156 453.059C757.808 459.941 752.46 466.824 747.112 473.706C741.764 487.471 736.416 487.471 736.416 494.353C720.372 515 698.98 542.53 677.588 576.941C666.892 597.588 650.848 611.353 634.804 632C624.108 638.883 613.412 645.765 602.716 645.765C597.368 645.765 592.02 645.765 592.02 638.883C586.672 632 592.02 625.118 592.02 618.235C597.368 611.353 597.368 604.471 602.716 597.588C624.108 563.177 634.804 528.765 645.5 494.353C650.848 466.824 661.544 446.177 677.588 432.412C688.284 418.647 704.328 398 720.372 391.118C725.72 377.353 736.416 370.471 741.764 370.471ZM741.764 370.471C731.068 370.471 720.372 377.353 715.024 377.353C698.98 391.118 682.936 404.883 672.24 418.647C656.196 439.294 650.848 459.941 640.152 480.588C629.456 515 613.412 549.412 597.368 583.824C592.02 590.706 592.02 597.588 586.672 604.471C586.672 611.353 581.324 618.235 586.672 625.118C592.02 632 597.368 632 602.716 632C613.412 632 624.108 625.118 634.804 618.235C650.848 604.471 666.892 583.824 677.588 563.177C693.632 535.647 715.024 508.118 736.416 480.588C747.112 466.824 757.808 459.941 763.156 446.177C768.504 439.294 773.852 425.53 773.852 418.647C779.2 391.118 768.504 363.588 747.112 356.706C747.112 370.471 747.112 370.471 741.764 370.471Z" fill="#50935E"/>
<path d="M1078.69 515C1084.04 515 1089.38 521.882 1100.08 528.765C1116.12 542.529 1132.17 563.176 1142.86 583.824C1148.21 597.588 1153.56 604.471 1153.56 618.235C1153.56 625.118 1153.56 625.118 1153.56 632L1148.21 638.882C1142.86 638.882 1142.86 638.882 1137.52 638.882C1121.47 638.882 1105.43 632 1089.38 632C1078.69 632 1062.64 625.118 1051.95 618.235C1041.25 611.353 1041.25 597.588 1041.25 590.706C1046.6 576.941 1051.95 563.176 1057.3 549.412C1062.64 521.882 1067.99 515 1078.69 515ZM1078.69 515C1067.99 515 1062.64 521.882 1051.95 535.647C1046.6 549.412 1041.25 563.177 1035.9 576.941C1030.56 590.706 1035.9 604.471 1046.6 611.353C1057.3 618.235 1067.99 625.118 1084.04 625.118C1100.08 632 1116.12 632 1132.17 632C1137.52 632 1137.52 632 1142.86 632C1148.21 632 1153.56 625.118 1153.56 611.353C1153.56 597.588 1148.21 590.706 1142.86 576.941C1132.17 556.294 1116.12 535.647 1100.08 521.882C1089.38 515 1084.04 515 1078.69 515Z" fill="#50935E"/>
<g opacity="0.1">
<g opacity="0.1">
<path opacity="0.1" d="M666.892 969.235C661.544 969.235 656.196 962.353 656.196 955.471L650.848 948.588C645.5 941.706 634.804 934.824 629.456 921.059C618.76 900.412 618.76 886.647 624.108 859.118C629.456 838.471 634.804 824.706 640.152 810.941C640.152 804.059 645.5 804.059 645.5 797.176C656.196 769.647 661.544 742.118 666.892 707.706C672.24 680.176 666.892 652.647 650.848 632C640.152 611.353 624.108 604.471 602.716 604.471C597.368 604.471 592.02 604.471 592.02 604.471C581.324 604.471 575.976 597.588 570.628 583.823C570.628 576.941 570.628 570.059 570.628 563.177C570.628 542.529 570.628 521.882 565.28 508.118C559.932 466.824 543.888 439.294 517.148 425.529C501.104 418.647 495.756 411.765 490.408 411.765C479.712 404.882 469.016 398 458.32 391.118C431.58 377.353 415.536 349.824 399.492 322.294C399.492 315.412 394.144 315.412 394.144 308.529C388.796 301.647 383.448 287.882 372.752 274.118C367.404 260.353 356.708 253.471 346.012 253.471C340.664 253.471 329.968 253.471 319.272 267.235C281.836 294.765 265.792 336.059 260.444 391.118C260.444 418.647 260.444 446.176 265.792 473.706C265.792 480.588 265.792 480.588 265.792 487.471C265.792 501.235 271.14 515 271.14 528.765C271.14 549.412 271.14 570.059 271.14 590.706C265.792 625.118 260.444 652.647 249.748 680.177C239.052 707.706 217.66 721.471 196.268 728.353C190.92 728.353 180.224 728.353 174.876 728.353C148.136 728.353 121.396 721.471 94.656 700.824C89.308 700.824 89.308 693.941 83.96 693.941C73.264 687.059 57.22 680.176 46.524 673.294C35.828 666.412 25.132 666.412 14.436 666.412H9.08802C9.08802 666.412 3.74002 666.412 -1.60798 666.412V597.588C-1.60798 597.588 -1.60798 597.588 3.74002 597.588C41.176 604.471 67.916 625.118 94.656 652.647C105.352 666.412 121.396 673.294 132.092 687.059C148.136 700.823 164.18 700.824 180.224 707.706C180.224 707.706 180.224 707.706 185.572 707.706C212.312 707.706 228.356 693.941 239.052 666.412C239.052 625.118 244.4 590.706 244.4 556.294C244.4 535.647 239.052 515 239.052 494.353C233.704 466.824 233.704 439.294 233.704 418.647C233.704 384.235 239.052 342.941 255.096 301.647C260.444 287.882 271.14 267.235 281.836 253.471C287.184 246.588 287.184 239.706 292.532 232.824C303.228 212.176 313.924 198.412 329.968 177.765C335.316 164 346.012 157.118 351.36 150.235C367.404 136.471 378.1 115.824 394.144 95.1764C410.188 67.647 420.884 47 436.928 26.3529C442.276 19.4706 452.972 5.70586 463.668 -8.05885L469.016 -14.9412C479.712 -28.7059 490.408 -42.4706 495.756 -56.2353C495.756 -56.2353 495.756 -56.2353 501.104 -63.1177H565.28C565.28 -63.1177 565.28 -63.1177 565.28 -56.2353C570.628 -35.5883 575.976 -21.8236 586.672 -8.05885C608.064 26.3529 624.108 53.8823 634.804 88.2941C640.152 108.941 650.848 136.471 661.544 157.118C672.24 170.882 682.936 191.529 698.98 205.294L709.676 212.176C725.72 225.941 736.416 239.706 752.46 253.471C763.156 260.353 773.852 267.235 784.548 267.235C795.244 267.235 811.288 260.353 816.636 246.588C827.332 232.824 832.68 219.059 838.028 205.294C843.376 184.647 854.072 164 859.42 143.353C859.42 136.471 864.768 129.588 864.768 122.706C870.116 102.059 875.464 88.2941 880.812 74.5294C891.508 60.7647 891.508 47 891.508 26.3529C886.16 -1.1765 886.16 -21.8236 886.16 -42.4706V-49.353V-56.2353H944.988C944.988 -56.2353 950.336 -56.2353 950.336 -49.353C955.684 -35.5883 955.684 -28.7059 961.032 -21.8236C971.728 -1.17649 993.12 12.5882 1014.51 19.4706C1019.86 19.4706 1025.21 19.4706 1030.56 19.4706C1035.9 19.4706 1035.9 19.4706 1041.25 19.4706C1046.6 19.4706 1051.95 19.4706 1057.3 19.4706C1067.99 19.4706 1084.04 19.4706 1094.73 26.3529C1116.12 33.2353 1132.17 53.8823 1137.52 88.2941C1137.52 108.941 1137.52 122.706 1137.52 136.471C1132.17 170.882 1110.78 198.412 1084.04 205.294C1078.69 205.294 1073.34 205.294 1067.99 205.294C1051.95 205.294 1041.25 198.412 1025.21 191.529C1014.51 184.647 1009.16 177.765 998.468 170.882C993.12 170.882 993.12 164 987.772 164C982.424 157.118 977.076 157.118 971.728 150.235C966.38 143.353 961.032 143.353 950.336 143.353C939.64 143.353 928.944 150.235 918.248 157.118C907.552 164 896.856 177.765 886.16 198.412C875.464 219.059 870.116 239.706 859.42 260.353C859.42 267.235 854.072 274.118 854.072 281C848.724 294.765 843.376 301.647 838.028 308.529C832.68 322.294 821.984 329.176 805.94 329.176H800.592C779.2 329.176 757.808 315.412 741.764 294.765C731.068 281 720.372 274.118 709.676 260.353C693.632 239.706 677.588 219.059 656.196 198.412C640.152 177.765 624.108 150.235 613.412 122.706C608.064 102.059 597.368 81.4117 586.672 67.647C570.628 47 554.584 33.2353 533.192 33.2353C522.496 33.2353 511.8 40.1176 501.104 53.8823C495.756 60.7647 490.408 74.5294 485.06 81.4117C469.016 115.824 452.972 143.353 431.58 177.765C420.884 191.529 415.536 205.294 415.536 225.941C410.188 246.588 415.536 267.235 420.884 287.882C431.58 329.176 447.624 349.824 479.712 370.471C490.408 377.353 501.104 377.353 506.452 384.235C511.8 384.235 522.496 391.118 527.844 391.118C549.236 398 565.28 418.647 581.324 453.059C586.672 459.941 586.672 473.706 592.02 480.588C592.02 487.471 597.368 494.353 597.368 501.235C608.064 521.882 618.76 542.529 634.804 556.294C656.196 576.941 672.24 597.588 682.936 611.353C698.98 632 709.676 652.647 720.372 680.177C731.068 693.941 736.416 700.824 747.112 700.824C752.46 700.824 763.156 693.941 768.504 693.941C784.548 680.176 800.592 666.412 811.288 638.882C827.332 604.471 838.028 583.824 843.376 556.294C848.724 535.647 854.072 508.118 854.072 480.588C854.072 466.824 854.072 459.941 854.072 446.176C854.072 439.294 854.072 425.529 854.072 418.647C854.072 404.882 854.072 398 859.42 384.235C864.768 363.588 875.464 349.824 891.508 349.824C902.204 349.824 907.552 349.824 912.9 349.824C928.944 349.824 944.988 356.706 961.032 363.588C977.076 377.353 987.772 391.118 998.468 418.647C1014.51 453.059 1019.86 487.471 1025.21 521.882V528.765C1025.21 549.412 1025.21 570.059 1030.56 590.706C1035.9 604.471 1041.25 625.118 1057.3 632C1062.64 638.882 1067.99 638.882 1067.99 638.882H1073.34C1084.04 638.882 1089.38 632 1094.73 618.235C1100.08 611.353 1105.43 597.588 1105.43 583.823V576.941C1110.78 549.412 1116.12 521.882 1126.82 494.353C1137.52 473.706 1142.86 453.059 1153.56 439.294C1164.26 425.529 1174.95 411.765 1185.65 398C1191 391.118 1191 391.118 1196.34 384.235C1207.04 370.471 1223.08 349.824 1233.78 329.176C1249.82 301.647 1265.87 281 1281.91 260.353C1292.61 246.588 1297.96 239.706 1314 225.941V349.824C1308.65 363.588 1303.3 370.471 1297.96 377.353C1281.91 391.118 1265.87 404.882 1255.17 411.765C1249.82 411.765 1249.82 418.647 1244.48 418.647C1228.43 425.529 1212.39 439.294 1196.34 453.059C1169.6 480.588 1148.21 508.118 1142.86 549.412C1137.52 563.176 1137.52 576.941 1137.52 590.706V597.588C1137.52 611.353 1137.52 625.118 1137.52 638.882C1142.86 666.412 1153.56 687.059 1169.6 693.941C1180.3 700.824 1191 700.824 1201.69 707.706C1207.04 707.706 1207.04 707.706 1212.39 707.706C1228.43 714.588 1249.82 721.471 1271.22 735.235C1297.96 749 1308.65 776.529 1314 817.824C1319.35 845.353 1314 866 1303.3 893.529C1297.96 907.294 1287.26 914.177 1276.56 921.059C1265.87 927.941 1255.17 927.941 1249.82 934.824H1244.48C1239.13 934.824 1228.43 941.706 1223.08 941.706C1212.39 948.588 1207.04 955.471 1201.69 962.353C1201.69 962.353 1201.69 969.235 1196.34 969.235H1153.56V962.353C1153.56 948.588 1148.21 941.706 1148.21 927.941C1142.86 921.059 1142.86 914.177 1132.17 907.294C1116.12 900.412 1105.43 900.412 1094.73 900.412C1078.69 900.412 1067.99 893.529 1051.95 893.529C1046.6 893.529 1041.25 893.529 1035.9 893.529C1009.16 893.529 987.772 900.412 971.728 921.059C961.032 927.941 955.684 941.706 950.336 962.353C950.336 962.353 950.336 969.235 944.988 969.235H902.204C902.204 969.235 902.204 969.235 902.204 962.353C907.552 941.706 912.9 927.941 918.248 921.059C939.64 886.647 966.38 866 993.12 859.118C998.468 859.118 1009.16 859.118 1014.51 852.235H1019.86C1025.21 852.235 1025.21 852.235 1030.56 852.235C1035.9 852.235 1035.9 852.235 1041.25 852.235C1046.6 852.235 1051.95 852.235 1062.64 852.235C1073.34 852.235 1084.04 845.353 1089.38 831.588C1089.38 824.706 1094.73 824.706 1094.73 817.824C1100.08 797.177 1105.43 742.118 1067.99 707.706L1062.64 700.824C1051.95 693.941 1046.6 687.059 1035.9 673.294C1014.51 652.647 998.468 618.235 998.468 583.823C998.468 570.059 998.468 556.294 998.468 535.647C998.468 515 998.468 487.471 993.12 466.823C987.772 439.294 977.076 418.647 961.032 404.882C950.336 398 939.64 391.118 928.944 391.118C923.596 391.118 923.596 391.118 918.248 391.118C902.204 398 896.856 404.882 886.16 425.529C880.812 439.294 880.812 459.941 880.812 466.823C880.812 515 875.464 556.294 870.116 597.588C870.116 618.235 864.768 632 864.768 652.647V659.529C864.768 693.941 854.072 721.471 838.028 742.118C832.68 749 827.332 755.882 821.984 762.765C816.636 769.647 816.636 769.647 811.288 776.529C800.592 790.294 789.896 810.941 789.896 831.588C789.896 838.471 784.548 845.353 784.548 852.235C784.548 866 779.2 872.882 779.2 886.647C773.852 907.294 768.504 921.059 763.156 941.706C763.156 948.588 757.808 955.471 757.808 955.471C757.808 955.471 757.808 955.471 752.46 962.353H666.892V969.235ZM666.892 969.235C698.98 969.235 731.068 969.235 763.156 969.235C763.156 969.235 768.504 969.235 768.504 962.353C773.852 941.706 784.548 914.176 789.896 893.529C795.244 872.882 795.244 859.118 800.592 838.471C805.94 817.824 811.288 797.177 821.984 783.412C832.68 769.647 838.028 762.765 848.724 749C864.768 721.471 870.116 693.941 875.464 659.529C875.464 638.882 875.464 618.235 880.812 597.588C886.16 556.294 891.508 515 891.508 466.823C891.508 453.059 891.508 439.294 896.856 425.529C902.204 404.882 912.9 398 923.596 391.118C928.944 391.118 928.944 391.118 934.292 391.118C944.988 391.118 955.684 398 966.38 404.882C982.424 418.647 993.12 439.294 998.468 466.823C998.468 487.471 998.468 515 998.468 535.647C998.468 556.294 998.468 570.059 998.468 590.706C1003.82 632 1014.51 659.529 1041.25 680.177C1051.95 693.941 1062.64 700.824 1073.34 707.706C1100.08 735.235 1105.43 776.529 1100.08 817.824C1100.08 824.706 1094.73 824.706 1094.73 831.588C1089.38 845.353 1078.69 845.353 1067.99 845.353C1062.64 845.353 1051.95 845.353 1046.6 845.353C1041.25 845.353 1035.9 845.353 1030.56 845.353H1025.21C1019.86 845.353 1009.16 845.353 1003.82 852.235C971.728 866 950.336 886.647 928.944 914.176C918.248 927.941 912.9 941.706 912.9 955.471V962.353C928.944 962.353 944.988 962.353 955.684 962.353L961.032 955.471C966.38 941.706 971.728 927.941 982.424 914.176C998.468 893.529 1019.86 886.647 1046.6 886.647C1051.95 886.647 1057.3 886.647 1062.64 886.647C1078.69 886.647 1089.38 886.647 1105.43 893.529C1116.12 893.529 1121.47 893.529 1132.17 900.412C1137.52 900.412 1142.86 907.294 1148.21 921.059C1153.56 934.824 1153.56 941.706 1153.56 955.471C1153.56 962.353 1153.56 962.353 1158.91 969.235C1174.95 969.235 1185.65 969.235 1201.69 969.235L1207.04 962.353C1212.39 955.471 1217.74 941.706 1228.43 941.706C1233.78 934.824 1244.48 934.824 1249.82 934.824C1260.52 927.941 1276.56 927.941 1287.26 921.059C1297.96 914.177 1308.65 907.294 1314 886.647C1324.7 866 1324.7 838.471 1324.7 810.941C1319.35 769.647 1308.65 742.118 1281.91 728.353C1265.87 714.588 1244.48 707.706 1223.08 700.824C1207.04 693.941 1196.34 693.941 1180.3 687.059C1164.26 680.176 1153.56 659.529 1148.21 632C1148.21 618.235 1148.21 604.471 1148.21 590.706C1148.21 576.941 1148.21 563.176 1153.56 556.294C1164.26 515 1180.3 487.471 1207.04 466.823C1212.39 432.412 1233.78 418.647 1255.17 411.765C1271.22 404.882 1287.26 391.118 1303.3 377.353C1308.65 363.588 1314 356.706 1319.35 349.824C1319.35 308.529 1319.35 260.353 1319.35 219.059C1319.35 219.059 1314 219.059 1314 225.941C1303.3 239.706 1292.61 246.588 1281.91 260.353C1265.87 281 1249.82 308.529 1233.78 329.176C1223.08 349.824 1207.04 370.471 1196.34 384.235C1180.3 404.882 1169.6 418.647 1153.56 439.294C1142.86 453.059 1132.17 473.706 1126.82 494.353C1110.78 521.882 1105.43 549.412 1105.43 576.941C1105.43 590.706 1100.08 604.471 1094.73 618.235C1089.38 632 1084.04 632 1078.69 632H1073.34C1067.99 632 1062.64 625.118 1062.64 625.118C1051.95 618.235 1041.25 597.588 1035.9 583.823C1030.56 563.176 1030.56 542.529 1025.21 515C1025.21 480.588 1014.51 439.294 998.468 411.765C987.772 391.118 977.076 370.471 955.684 356.706C944.988 349.824 928.944 342.941 912.9 342.941C907.552 342.941 896.856 342.941 891.508 342.941C875.464 342.941 864.768 356.706 859.42 377.353C859.42 391.118 854.072 398 854.072 411.765C854.072 432.412 854.072 453.059 854.072 480.588C854.072 508.118 848.724 528.765 843.376 549.412C838.028 576.941 827.332 604.471 816.636 625.118C805.94 652.647 795.244 666.412 773.852 680.177C763.156 687.059 757.808 687.059 752.46 687.059C741.764 687.059 736.416 680.177 731.068 666.412C720.372 645.765 704.328 618.235 693.632 597.588C677.588 576.941 661.544 556.294 645.5 535.647C629.456 521.882 618.76 501.235 608.064 480.588C602.716 466.824 597.368 453.059 592.02 432.412C581.324 404.882 565.28 377.353 538.54 370.471C517.148 377.353 495.756 370.471 479.712 363.588C452.972 349.824 431.58 329.176 420.884 287.882C415.536 267.235 415.536 246.588 415.536 225.941C415.536 205.294 426.232 191.529 431.58 177.765C452.972 150.235 469.016 115.824 485.06 81.4117C490.408 74.5294 495.756 67.647 501.104 53.8823C511.8 40.1176 522.496 33.2353 533.192 33.2353C554.584 33.2353 570.628 47 581.324 67.647C592.02 81.4117 602.716 102.059 613.412 129.588C624.108 157.118 640.152 184.647 656.196 205.294C682.936 239.706 709.676 267.235 736.416 301.647C752.46 322.294 773.852 336.059 800.592 336.059H805.94C816.636 336.059 832.68 329.176 838.028 315.412C843.376 308.529 848.724 294.765 854.072 287.882C864.768 260.353 870.116 232.824 886.16 212.176C896.856 191.529 907.552 177.765 918.248 170.882C928.944 164 939.64 157.118 950.336 157.118C955.684 157.118 961.032 157.118 971.728 164C977.076 164 982.424 170.882 987.772 177.765C998.468 184.647 1014.51 198.412 1025.21 205.294C1035.9 205.294 1051.95 212.176 1067.99 212.176C1073.34 212.176 1078.69 212.176 1089.38 212.176C1116.12 205.294 1137.52 177.765 1142.86 136.471C1142.86 122.706 1142.86 102.059 1142.86 88.2941C1137.52 53.8823 1121.47 33.2353 1100.08 26.3529C1084.04 19.4706 1062.64 19.4706 1046.6 19.4706C1035.9 19.4706 1030.56 19.4706 1019.86 19.4706C998.468 12.5882 982.424 5.70586 966.38 -21.8236C961.032 -28.7059 955.684 -42.4706 955.684 -49.353C955.684 -56.2353 955.684 -56.2353 950.336 -56.2353C928.944 -56.2353 912.9 -56.2353 891.508 -56.2353C891.508 -56.2353 891.508 -56.2353 891.508 -49.353C891.508 -42.4706 891.508 -35.5883 891.508 -28.7059C891.508 -8.05885 891.508 19.4706 896.856 40.1176C896.856 53.8823 896.856 67.647 891.508 81.4117C886.16 95.1764 880.812 115.824 875.464 129.588C864.768 157.118 859.42 184.647 848.724 212.176C843.376 225.941 838.028 239.706 827.332 253.471C816.636 267.235 805.94 274.118 795.244 274.118C784.548 274.118 773.852 267.235 763.156 260.353C747.112 246.588 731.068 225.941 709.676 212.176C693.632 198.412 682.936 184.647 672.24 164C661.544 143.353 650.848 122.706 645.5 95.1764C634.804 60.7647 618.76 26.3529 597.368 -8.05885C586.672 -21.8236 581.324 -35.5883 575.976 -56.2353C575.976 -56.2353 575.976 -63.1177 570.628 -63.1177C538.54 -63.1177 517.148 -63.1177 495.756 -63.1177L490.408 -56.2353C485.06 -35.5883 479.712 -21.8236 469.016 -14.9412C452.972 -1.1765 442.276 12.5882 426.232 26.3529C410.188 47 399.492 74.5294 383.448 95.1764C372.752 115.824 362.056 136.471 346.012 150.235C335.316 157.118 329.968 170.882 324.62 177.765C303.228 198.412 292.532 225.941 276.488 253.471C265.792 267.235 255.096 281 249.748 301.647C233.704 336.059 233.704 377.353 228.356 418.647C228.356 446.176 228.356 473.706 233.704 501.235C239.052 515 244.4 535.647 244.4 556.294C244.4 590.706 239.052 618.235 223.008 645.765C212.312 673.294 190.92 680.177 169.528 680.177C169.528 680.177 169.528 680.177 164.18 680.177C148.136 680.177 132.092 673.294 116.048 666.412C105.352 659.529 89.308 645.765 78.612 632C57.22 611.353 25.132 590.706 -6.95598 583.823H-12.304C-12.304 583.823 -12.304 583.823 -17.652 583.823C-17.652 611.353 -17.652 632 -17.652 659.529C-17.652 659.529 -17.652 659.529 -12.304 659.529C-6.95598 659.529 -1.60798 659.529 3.74002 659.529C14.436 659.529 25.132 659.529 35.828 666.412C51.872 673.294 67.916 687.059 83.96 693.941C110.7 707.706 137.44 721.471 164.18 721.471C169.528 721.471 180.224 721.471 185.572 721.471C212.312 714.588 228.356 700.824 239.052 673.294C249.748 645.765 260.444 618.235 260.444 583.823C265.792 563.176 265.792 542.529 260.444 521.882C260.444 501.235 255.096 487.471 249.748 466.823C260.444 439.294 255.096 411.765 260.444 384.235C265.792 329.176 287.184 287.882 319.272 260.353C329.968 253.471 335.316 253.471 340.664 253.471C356.708 253.471 362.056 260.353 372.752 281C383.448 294.765 388.796 315.412 394.144 329.176C410.188 363.588 431.58 384.235 452.972 398C469.016 411.765 485.06 418.647 501.104 425.529C527.844 439.294 543.888 466.824 549.236 508.118C549.236 528.765 554.584 542.529 554.584 563.177C554.584 570.059 554.584 576.941 554.584 583.823C559.932 597.588 565.28 604.471 575.976 611.353C581.324 611.353 586.672 611.353 592.02 611.353H597.368C634.804 611.353 661.544 659.529 656.196 707.706C650.848 735.235 645.5 762.765 634.804 790.294C629.456 810.941 618.76 831.588 613.412 852.235C608.064 872.882 608.064 900.412 618.76 914.176C624.108 927.941 629.456 934.824 640.152 941.706C650.848 955.471 656.196 969.235 666.892 969.235Z" fill="#50935E"/>
</g>
<g opacity="0.1">
<g opacity="0.1">
<path opacity="0.1" d="M-12.304 342.941V301.647C-12.304 301.647 -12.304 301.647 -6.95598 301.647H-1.60798C3.74002 301.647 9.08802 301.647 14.436 301.647C25.132 301.647 35.828 301.647 51.872 294.765C73.264 281 89.308 260.353 105.352 232.824C116.048 212.176 121.396 184.647 121.396 150.235C121.396 129.588 121.396 108.941 121.396 88.2941C121.396 67.647 121.396 47 116.048 26.3529C110.7 12.5882 105.352 -1.17649 89.308 -8.05884C78.612 -8.05884 62.568 -14.9412 46.524 -14.9412C35.828 -14.9412 25.132 -14.9412 14.436 -14.9412H9.08802H3.74002C-1.60798 -14.9412 -6.95598 -14.9412 -6.95598 -14.9412C-6.95598 -14.9412 -6.95598 -14.9412 -12.304 -14.9412V-28.7059C-12.304 -35.5883 -12.304 -49.353 -12.304 -56.2353C41.176 -56.2353 94.656 -56.2353 153.484 -56.2353C158.832 -49.353 164.18 -49.353 174.876 -49.353C180.224 -49.353 180.224 -49.353 185.572 -49.353H190.92C196.268 -49.353 196.268 -49.353 201.616 -49.353H249.748C249.748 -49.353 249.748 -49.353 249.748 -42.4706C239.052 -42.4706 228.356 -28.7059 217.66 -21.8236C212.312 -21.8236 212.312 -14.9412 206.964 -14.9412C196.268 -1.17649 185.572 5.70586 180.224 12.5882C169.528 26.3529 158.832 40.1176 153.484 67.647C148.136 88.2941 148.136 108.941 148.136 136.471C148.136 170.882 142.788 205.294 126.744 239.706C121.396 246.588 116.048 260.353 110.7 267.235C89.308 301.647 57.22 329.177 19.784 336.059C9.08802 342.941 -1.60798 342.941 -12.304 342.941ZM-12.304 349.824C-1.60798 349.824 9.08802 342.941 19.784 342.941C57.22 336.059 89.308 308.529 110.7 274.118C116.048 267.235 121.396 253.471 126.744 239.706C137.44 205.294 142.788 170.882 148.136 136.471C148.136 115.824 153.484 88.2941 153.484 67.647C158.832 47 164.18 26.3529 180.224 12.5882C190.92 5.70586 206.964 -8.05885 217.66 -14.9412C228.356 -21.8236 239.052 -35.5883 244.4 -49.353C249.748 -56.2353 249.748 -56.2353 249.748 -63.1177C228.356 -63.1177 212.312 -63.1177 196.268 -63.1177C190.92 -63.1177 185.572 -63.1177 180.224 -56.2353C174.876 -56.2353 174.876 -56.2353 169.528 -56.2353C164.18 -56.2353 158.832 -56.2353 148.136 -63.1177C94.656 -63.1177 41.176 -63.1177 -17.652 -63.1177C-17.652 -63.1177 -17.652 -63.1177 -17.652 -56.2353C-17.652 -42.4706 -17.652 -28.7059 -17.652 -14.9412H-12.304C-12.304 -14.9412 -12.304 -14.9412 -6.95598 -14.9412C-1.60798 -14.9412 3.74002 -14.9412 3.74002 -14.9412C9.08802 -14.9412 14.436 -14.9412 19.784 -14.9412C30.48 -14.9412 41.176 -14.9412 51.872 -14.9412C67.916 -14.9412 78.612 -8.05884 94.656 -8.05884C105.352 5.70586 110.7 12.5882 110.7 33.2353C116.048 53.8823 116.048 74.5294 116.048 95.1765C116.048 115.824 116.048 136.471 116.048 157.118C116.048 184.647 110.7 212.176 100.004 239.706C89.308 260.353 73.264 281 46.524 294.765C35.828 294.765 25.132 294.765 14.436 294.765C9.08802 294.765 -1.60798 294.765 -6.95598 294.765H-12.304H-17.652C-17.652 315.412 -17.652 329.177 -12.304 349.824C-17.652 349.824 -12.304 349.824 -12.304 349.824Z" fill="#50935E"/>
</g>
<g opacity="0.1">
<path opacity="0.1" d="M271.14 969.235C271.14 955.47 276.488 934.823 281.836 914.176C287.184 886.647 297.88 866 308.576 845.353C313.924 838.47 313.924 831.588 319.272 824.706C329.968 804.059 335.316 783.412 346.012 769.647C367.404 728.353 394.144 707.706 426.232 700.823C431.58 700.823 436.928 700.823 442.276 700.823C458.32 700.823 474.364 707.706 485.06 728.353C490.408 742.117 495.756 755.882 501.104 762.765C506.452 783.412 511.8 810.941 511.8 831.588V838.47C517.148 872.882 522.496 907.294 538.54 934.823C543.888 948.588 549.236 962.353 549.236 976.117H506.452C506.452 976.117 506.452 976.117 506.452 969.235V962.353C501.104 934.823 501.104 914.176 501.104 886.647V879.764C501.104 866 501.104 845.353 495.756 824.706C495.756 804.059 490.408 776.529 474.364 755.882C463.668 742.117 452.972 728.353 436.928 728.353H431.58C415.536 728.353 399.492 735.235 378.1 755.882C362.056 769.647 356.708 797.176 346.012 817.823C340.664 838.47 329.968 852.235 324.62 872.882C319.272 886.647 313.924 893.529 308.576 907.294C297.88 934.823 292.532 948.588 287.184 969.235C287.184 976.117 287.184 976.117 281.836 976.117H271.14V969.235ZM265.792 969.235C271.14 969.235 281.836 969.235 287.184 969.235C292.532 969.235 292.532 962.353 292.532 962.353C297.88 934.823 303.228 914.176 313.924 900.412C324.62 872.882 340.664 845.353 351.36 817.823C362.056 797.176 367.404 776.529 383.448 762.765C399.492 749 415.536 735.235 431.58 735.235H436.928C452.972 735.235 463.668 742.117 474.364 762.765C485.06 783.412 490.408 804.059 495.756 831.588C495.756 852.235 501.104 872.882 501.104 893.529C501.104 921.059 506.452 948.588 506.452 976.117C506.452 983 506.452 983 511.8 983C527.844 983 543.888 983 559.932 983C559.932 969.235 554.584 955.47 549.236 941.706C538.54 907.294 527.844 879.764 522.496 845.353C517.148 817.823 517.148 790.294 506.452 769.647C501.104 755.882 501.104 742.117 490.408 728.353C479.712 693.941 463.668 687.059 442.276 687.059C436.928 687.059 431.58 687.059 426.232 687.059C388.796 693.941 362.056 721.47 340.664 755.882C329.968 776.529 319.272 797.176 313.924 817.823C297.88 845.353 287.184 879.765 276.488 907.294C271.14 927.941 265.792 948.588 265.792 969.235Z" fill="#50935E"/>
</g>
<g opacity="0.1">
<path opacity="0.1" d="M67.916 969.235C67.916 962.353 62.568 962.353 67.916 969.235C57.22 955.47 46.524 948.588 30.48 948.588C25.132 948.588 25.132 948.588 19.784 948.588C14.436 948.588 9.088 948.588 3.74 948.588H-1.608C-1.608 948.588 -1.608 948.588 -6.956 948.588H-12.304H-17.652V859.117H-12.304L14.436 852.235C19.784 852.235 25.132 852.235 30.48 852.235C46.524 852.235 62.568 859.117 73.264 872.882C94.656 893.529 110.7 921.058 126.744 948.588C132.092 955.47 132.092 962.353 132.092 976.117H67.916V969.235ZM67.916 969.235C89.308 969.235 110.7 969.235 132.092 969.235C132.092 955.47 126.744 948.588 126.744 941.706C116.048 907.294 100.004 879.764 73.264 859.117C57.22 845.353 41.176 838.47 25.132 838.47C19.784 838.47 14.436 838.47 9.088 838.47C-1.608 838.47 -12.304 845.353 -23 845.353C-23 879.764 -23 907.294 -23 941.706L-17.652 948.588H-12.304C-6.956 948.588 3.74 948.588 9.088 948.588C14.436 948.588 14.436 948.588 19.784 948.588C30.48 948.588 41.176 955.47 51.872 969.235C62.568 969.235 67.916 969.235 67.916 969.235Z" fill="#50935E"/>
</g>
<g opacity="0.1">
<path opacity="0.1" d="M1319.35 115.824C1314 108.941 1314 108.941 1314 102.059L1308.65 95.1764L1303.3 88.2941C1297.96 74.5294 1292.61 67.647 1281.91 53.8823C1271.22 40.1176 1255.17 26.3529 1239.13 19.4706C1228.43 12.5882 1223.08 5.70586 1212.39 5.70586C1207.04 5.70586 1196.34 -1.1765 1191 -1.1765C1174.95 -14.9412 1164.26 -35.5883 1158.91 -63.1177H1201.69C1207.04 -63.1177 1207.04 -56.2353 1212.39 -56.2353C1217.74 -49.353 1228.43 -42.4706 1239.13 -35.5883C1244.48 -35.5883 1244.48 -28.7059 1249.82 -28.7059C1260.52 -21.8236 1276.56 -14.9412 1287.26 -8.05885C1297.96 -1.17649 1303.3 5.70586 1308.65 12.5882C1308.65 12.5882 1308.65 12.5882 1308.65 19.4706V115.824H1319.35ZM1319.35 122.706C1319.35 88.2941 1319.35 60.7647 1319.35 26.3529C1319.35 26.3529 1319.35 19.4706 1314 19.4706C1308.65 12.5882 1297.96 5.70586 1287.26 -1.1765C1271.22 -14.9412 1255.17 -21.8236 1239.13 -28.7059C1228.43 -35.5883 1217.74 -35.5883 1212.39 -49.353C1212.39 -56.2353 1207.04 -63.1177 1207.04 -63.1177C1191 -63.1177 1174.95 -63.1177 1158.91 -63.1177C1158.91 -35.5883 1169.6 -8.05885 1191 -1.1765C1207.04 5.70586 1217.74 12.5882 1233.78 19.4706C1249.82 26.3529 1265.87 40.1176 1276.56 53.8823C1287.26 67.647 1292.61 81.4117 1297.96 95.1764C1308.65 102.059 1314 108.941 1319.35 122.706Z" fill="#50935E"/>
</g>
</g>
<g opacity="0.1">
<path opacity="0.1" d="M763.156 969.235C763.156 962.353 768.504 955.47 768.504 948.588C773.852 921.058 784.548 893.529 789.896 866C795.244 852.235 795.244 831.588 800.592 817.823C805.94 804.058 811.288 797.176 816.636 783.411C821.984 776.529 827.332 769.647 832.68 762.764C838.028 755.882 838.028 755.882 843.376 749C859.42 728.353 870.116 693.941 875.464 666.411C880.812 625.117 886.16 576.941 886.16 542.529C886.16 528.764 891.508 508.117 891.508 487.47V473.705C891.508 453.058 891.508 439.294 896.856 418.647C902.204 398 918.248 384.235 934.292 384.235H939.64C961.032 391.117 977.076 404.882 987.772 439.294C993.12 466.823 998.468 487.47 998.468 515C998.468 521.882 998.468 528.764 998.468 535.647C998.468 556.294 998.468 570.058 1003.82 590.705C1009.16 632 1025.21 659.529 1051.95 687.058C1057.3 687.058 1057.3 693.941 1062.64 693.941C1067.99 700.823 1073.34 707.705 1078.69 714.588C1094.73 728.353 1100.08 749 1105.43 776.529C1105.43 790.294 1105.43 804.058 1105.43 810.941C1105.43 824.705 1094.73 838.47 1084.04 845.353C1078.69 845.353 1067.99 852.235 1062.64 852.235H1057.3C1051.95 852.235 1051.95 852.235 1046.6 852.235C1041.25 852.235 1041.25 852.235 1035.9 852.235C1030.56 852.235 1025.21 852.235 1014.51 852.235C998.468 852.235 977.076 866 961.032 879.764C939.64 893.529 928.944 914.176 918.248 934.823C912.9 948.588 907.552 962.353 907.552 969.235H854.072C854.072 969.235 854.072 969.235 854.072 962.352C854.072 955.47 854.072 955.47 854.072 948.588C854.072 941.705 854.072 934.823 854.072 927.941C854.072 921.058 854.072 914.176 848.724 914.176C848.724 914.176 848.724 914.176 843.376 914.176C838.028 914.176 838.028 921.058 832.68 921.058C821.984 934.823 816.636 948.588 811.288 962.352C811.288 969.235 811.288 969.235 805.94 969.235H763.156ZM757.808 969.235C773.852 969.235 789.896 969.235 805.94 969.235C811.288 969.235 811.288 962.353 811.288 955.47C816.636 941.706 821.984 927.941 832.68 914.176C832.68 914.176 838.028 907.294 843.376 907.294C848.724 907.294 848.724 914.176 848.724 921.058C848.724 934.823 848.724 941.706 848.724 955.47C848.724 962.353 848.724 962.352 848.724 962.352C864.768 962.352 886.16 962.352 902.204 962.352C902.204 948.588 907.552 934.823 918.248 927.941C928.944 907.294 944.988 893.529 961.032 879.764C977.076 866 993.12 859.117 1014.51 852.235C1019.86 852.235 1025.21 852.235 1030.56 852.235C1035.9 852.235 1041.25 852.235 1046.6 852.235H1051.95C1062.64 852.235 1067.99 852.235 1078.69 845.353C1089.38 838.47 1100.08 831.588 1100.08 810.941C1100.08 797.176 1100.08 783.411 1100.08 776.529C1100.08 749 1089.38 728.353 1073.34 714.588C1062.64 707.705 1051.95 693.941 1046.6 687.058C1019.86 666.411 1009.16 632 998.468 590.705C998.468 570.058 998.468 542.529 998.468 515C998.468 487.47 993.12 466.823 982.424 439.294C971.728 411.764 955.684 391.117 934.292 384.235H928.944C912.9 384.235 896.856 398 886.16 425.529C880.812 446.176 880.812 459.941 880.812 480.588C880.812 501.235 880.812 521.882 875.464 542.529C870.116 583.823 864.768 625.117 864.768 666.411C864.768 700.823 854.072 728.353 838.028 749C832.68 755.882 821.984 769.647 816.636 776.529C811.288 783.411 805.94 797.176 800.592 810.941C789.896 831.588 784.548 852.235 784.548 866C779.2 900.411 768.504 934.823 757.808 969.235Z" fill="#50935E"/>
</g>
<g opacity="0.1">
<path opacity="0.1" d="M784.548 267.235C779.2 267.235 779.2 267.235 773.852 267.235C763.156 267.235 757.808 260.353 747.112 253.471C725.72 232.824 704.328 212.176 682.936 191.529C666.892 170.882 656.196 150.235 645.5 129.588C640.152 122.706 640.152 108.941 634.804 102.059C629.456 88.2941 624.108 74.5294 618.76 60.7647C613.412 40.1176 602.716 26.353 592.02 5.70589C586.672 -1.17647 581.324 -14.9412 575.976 -21.8235C570.628 -35.5882 565.28 -49.3529 565.28 -63.1176H629.456V-56.2353C634.804 -14.9412 645.5 26.3529 656.196 74.5294C661.544 102.059 672.24 122.706 682.936 143.353C688.284 157.118 698.98 164 709.676 170.882C725.72 184.647 741.764 191.529 757.808 198.412H763.156C779.2 198.412 789.896 184.647 789.896 164C789.896 150.235 789.896 136.471 789.896 122.706V115.824C784.548 67.647 789.896 26.353 800.592 -14.9412C805.94 -28.7059 811.288 -42.4706 816.636 -56.2353C816.636 -56.2353 816.636 -56.2353 816.636 -63.1176C816.636 -70 821.984 -70 821.984 -70H886.16V-63.1176V-56.2353C886.16 -28.7059 886.16 -8.05882 891.508 12.5882C891.508 26.353 891.508 40.1177 886.16 53.8824C875.464 74.5294 870.116 102.059 859.42 122.706V129.588C854.072 157.118 843.376 184.647 832.68 205.294C827.332 219.059 821.984 225.941 811.288 232.824C800.592 267.235 795.244 267.235 784.548 267.235ZM784.548 267.235C795.244 267.235 800.592 267.235 811.288 253.471C816.636 246.588 827.332 232.824 832.68 225.941C843.376 198.412 854.072 170.882 864.768 143.353C870.116 115.824 880.812 95.1765 891.508 67.6471C891.508 60.7647 891.508 47 891.508 33.2353C886.16 12.5882 886.16 -14.9412 886.16 -35.5882C886.16 -42.4706 886.16 -49.3529 886.16 -56.2353C864.768 -56.2353 843.376 -56.2353 821.984 -56.2353C816.636 -56.2353 816.636 -49.3529 811.288 -42.4706C805.94 -28.7059 800.592 -14.9412 795.244 -1.17647C789.896 33.2353 784.548 74.5294 789.896 122.706C789.896 136.471 789.896 150.235 789.896 170.882C789.896 191.529 779.2 198.412 763.156 198.412C763.156 198.412 763.156 198.412 757.808 198.412C741.764 198.412 725.72 184.647 709.676 177.765C698.98 170.882 693.632 164 682.936 150.235C672.24 129.588 661.544 108.941 656.196 88.2941C645.5 47 640.152 -1.17647 629.456 -42.4706C629.456 -49.3529 629.456 -49.3529 624.108 -56.2353C602.716 -56.2353 575.976 -56.2353 554.584 -56.2353C554.584 -42.4706 559.932 -28.7059 565.28 -14.9412C570.628 -1.17647 575.976 5.70589 581.324 12.5882C592.02 26.353 602.716 47 608.064 67.6471C618.76 88.2941 624.108 115.824 634.804 136.471C645.5 164 656.196 177.765 672.24 198.412C693.632 219.059 715.024 239.706 736.416 260.353C747.112 267.235 752.46 274.118 763.156 274.118C779.2 267.235 779.2 267.235 784.548 267.235Z" fill="#50935E"/>
</g>
<path opacity="0.1" d="M1067.99 170.882H1062.64C1046.6 170.882 1030.56 157.118 1014.51 136.471C1009.16 129.588 1009.16 122.706 1003.82 115.823C998.468 108.941 998.468 95.1764 998.468 88.2941C998.468 81.4117 1003.82 74.5294 1009.16 74.5294C1019.86 67.647 1035.9 60.7646 1051.95 60.7646C1062.64 60.7646 1078.69 60.7647 1089.38 74.5294C1105.43 95.1764 1105.43 129.588 1100.08 143.353C1089.38 164 1078.69 170.882 1067.99 170.882ZM1067.99 170.882C1084.04 170.882 1094.73 164 1100.08 150.235C1110.78 129.588 1110.78 95.1764 1089.38 74.5294C1078.69 60.7647 1067.99 60.7646 1051.95 60.7646C1035.9 60.7646 1025.21 67.647 1009.16 74.5294C1003.82 74.5294 998.468 74.5294 998.468 88.2941C998.468 95.1764 998.468 108.941 1003.82 115.823C1009.16 122.706 1009.16 129.588 1014.51 136.471C1025.21 157.118 1041.25 170.882 1062.64 170.882C1062.64 170.882 1062.64 170.882 1067.99 170.882Z" fill="#D9E021"/>
<g opacity="0.1">
<path opacity="0.1" d="M1073.34 487.47C1067.99 487.47 1067.99 487.47 1062.64 480.588C1057.3 473.705 1051.95 459.941 1046.6 446.176V439.294C1035.9 411.764 1025.21 391.117 1014.51 370.47C998.468 336.058 971.728 308.529 944.988 301.647C939.64 301.647 928.944 294.764 923.596 287.882C912.9 280.999 912.9 267.235 912.9 253.47C918.248 232.823 939.64 212.176 955.684 212.176C966.38 212.176 977.076 219.058 987.772 225.941C1003.82 232.823 1019.86 239.705 1035.9 246.588C1046.6 246.588 1051.95 246.588 1062.64 246.588C1084.04 246.588 1105.43 239.705 1121.47 232.823C1142.86 212.176 1158.91 184.647 1169.6 150.235C1169.6 143.352 1169.6 136.47 1174.95 136.47C1174.95 122.705 1180.3 115.823 1180.3 102.058C1185.65 74.5289 1201.69 67.6465 1212.39 67.6465C1217.74 67.6465 1217.74 67.6465 1223.08 67.6465C1249.82 74.5289 1271.22 108.941 1276.56 150.235C1276.56 170.882 1276.56 184.647 1260.52 205.294C1249.82 225.941 1239.13 246.588 1228.43 267.235C1217.74 280.999 1212.39 294.764 1201.69 308.529C1185.65 336.058 1169.6 356.705 1153.56 384.235C1148.21 391.117 1142.86 397.999 1142.86 404.882C1126.82 425.529 1116.12 446.176 1105.43 466.823V473.705C1100.08 480.588 1094.73 494.352 1089.38 494.352C1078.69 487.47 1073.34 487.47 1073.34 487.47ZM1073.34 487.47H1078.69C1089.38 480.588 1094.73 473.705 1100.08 459.941C1110.78 439.294 1126.82 418.647 1137.52 397.999C1158.91 370.47 1180.3 342.941 1201.69 308.529C1223.08 274.117 1244.48 239.705 1260.52 205.294C1271.22 184.647 1276.56 170.882 1276.56 143.352C1271.22 102.058 1255.17 67.6465 1223.08 60.7642C1217.74 60.7642 1217.74 60.7642 1212.39 60.7642C1196.34 60.7642 1180.3 67.6465 1174.95 95.1759C1169.6 108.941 1169.6 129.588 1164.26 143.352C1158.91 184.647 1142.86 212.176 1121.47 225.941C1100.08 239.705 1084.04 239.705 1062.64 239.705C1051.95 239.705 1046.6 239.705 1035.9 239.705C1019.86 239.705 1003.82 225.941 987.772 219.058C977.076 212.176 966.38 205.294 955.684 205.294C934.292 205.294 918.248 225.941 912.9 253.47C907.552 267.235 912.9 280.999 923.596 287.882C928.944 294.764 939.64 301.647 944.988 301.647C971.728 315.411 993.12 336.058 1014.51 370.47C1025.21 391.117 1035.9 418.647 1046.6 439.294C1051.95 453.058 1057.3 466.823 1067.99 480.588C1062.64 487.47 1067.99 487.47 1073.34 487.47Z" fill="#50935E"/>
</g>
<g opacity="0.1">
<path opacity="0.1" d="M763.156 198.412C736.416 191.529 715.024 184.647 693.632 157.118C666.892 129.588 661.544 95.1765 650.848 53.8823L645.5 33.2353C645.5 5.70586 640.152 -28.7059 634.804 -63.1177H821.984C821.984 -56.2353 816.636 -49.353 816.636 -42.4706C816.636 -42.4706 816.636 -35.5883 811.288 -35.5883C800.592 -14.9412 795.244 12.5882 789.896 40.1176C789.896 53.8823 784.548 74.5294 784.548 95.1764C784.548 102.059 784.548 115.824 784.548 122.706C784.548 129.588 784.548 136.471 784.548 143.353C784.548 164 784.548 177.765 773.852 191.529C773.852 191.529 773.852 198.412 763.156 198.412ZM763.156 198.412C768.504 198.412 773.852 198.412 779.2 191.529C789.896 177.765 789.896 164 789.896 143.353C789.896 129.588 789.896 108.941 789.896 95.1764C789.896 74.5294 789.896 60.7647 795.244 40.1176C800.592 12.5882 805.94 -14.9412 816.636 -35.5883C821.984 -42.4706 827.332 -56.2353 827.332 -63.1177C763.156 -63.1177 698.98 -63.1177 634.804 -63.1177C640.152 -21.8236 645.5 12.5882 656.196 53.8823C661.544 95.1765 672.24 129.588 698.98 157.118C715.024 177.765 736.416 198.412 763.156 198.412Z" fill="#50935E"/>
</g>
<g opacity="0.1">
<path opacity="0.1" d="M1255.17 666.412C1233.78 666.412 1212.39 659.53 1191 645.765C1169.6 632 1158.91 604.471 1164.26 570.059C1169.6 528.765 1196.34 494.353 1223.08 480.588C1233.78 473.706 1244.48 473.706 1260.52 473.706C1276.56 473.706 1287.26 473.706 1303.3 480.588C1308.65 480.588 1314 487.471 1319.35 487.471V645.765C1314 645.765 1308.65 652.647 1308.65 652.647C1303.3 659.53 1292.61 659.53 1287.26 659.53C1271.22 666.412 1265.87 666.412 1255.17 666.412ZM1255.17 666.412C1265.87 666.412 1271.22 666.412 1281.91 666.412C1292.61 666.412 1308.65 652.647 1319.35 652.647C1319.35 597.588 1319.35 542.53 1319.35 487.471C1314 487.471 1308.65 480.588 1303.3 480.588C1287.26 473.706 1276.56 473.706 1260.52 473.706C1249.82 473.706 1239.13 473.706 1223.08 480.588C1196.34 494.353 1164.26 528.765 1164.26 570.059C1164.26 604.471 1174.95 638.883 1196.34 652.647C1212.39 659.53 1233.78 666.412 1255.17 666.412Z" fill="#50935E"/>
</g>
<g opacity="0.1">
<path opacity="0.1" d="M25.132 260.353C14.436 260.353 9.088 260.353 -1.608 253.471C-6.956 253.471 -12.304 253.471 -17.652 253.471V205.295C-1.608 212.177 9.088 219.059 14.436 219.059C19.784 219.059 19.784 219.059 25.132 219.059H30.48C51.872 212.177 62.568 198.412 62.568 170.883C62.568 129.589 46.524 95.177 14.436 88.2947C9.088 88.2947 3.74 88.2947 -1.608 88.2947H-6.956H-12.304V33.2358C9.088 33.2358 25.132 33.2358 41.176 40.1182C67.916 47.0005 78.612 67.6476 89.308 102.059C94.656 136.471 94.656 164.001 89.308 191.53C78.612 232.824 62.568 253.471 35.828 260.353C30.48 260.353 30.48 260.353 25.132 260.353ZM25.132 267.236C30.48 267.236 35.828 267.236 35.828 267.236C67.916 260.353 83.96 232.824 89.308 198.412C94.656 170.883 94.656 136.471 89.308 108.942C83.96 74.53 67.916 53.8829 41.176 40.1182C25.132 33.2358 3.74 33.2358 -12.304 33.2358H-17.652C-17.652 53.8829 -17.652 67.6476 -17.652 88.2947H-12.304H-6.956C-1.608 88.2947 3.74 88.2947 9.088 88.2947C35.828 95.177 57.22 122.706 57.22 164.001C57.22 191.53 46.524 212.177 30.48 212.177H25.132H19.784C9.088 212.177 -1.608 212.177 -12.304 205.295C-12.304 205.295 -12.304 205.295 -17.652 205.295C-17.652 205.295 -17.652 205.295 -23 205.295C-23 219.059 -23 239.706 -23 253.471C-17.652 253.471 -12.304 253.471 -6.956 260.353C9.088 267.236 14.436 267.236 25.132 267.236Z" fill="#50935E"/>
</g>
<g opacity="0.1">
<path opacity="0.1" d="M902.204 838.47C891.508 838.47 886.16 824.706 886.16 817.823C886.16 804.059 886.16 797.176 891.508 783.412V776.529C891.508 769.647 891.508 762.764 896.856 755.882C902.204 742.117 902.204 728.353 902.204 714.588C902.204 693.941 907.552 680.176 907.552 666.412V652.647C907.552 625.117 907.552 597.588 907.552 576.941C907.552 563.176 907.552 556.294 907.552 542.529C907.552 535.647 907.552 521.882 907.552 508.117C907.552 494.353 907.552 480.588 912.9 466.823C918.248 453.059 923.596 446.176 934.292 446.176C939.64 446.176 939.64 446.176 944.988 453.059C950.336 459.941 955.684 466.823 955.684 473.706C961.032 487.47 961.032 508.117 961.032 521.882C961.032 528.764 961.032 535.647 961.032 542.529C961.032 549.412 961.032 549.412 961.032 556.294C961.032 583.823 961.032 611.353 966.38 632C971.728 659.529 987.772 687.059 1003.82 714.588C1009.16 728.353 1014.51 735.235 1025.21 749C1025.21 755.882 1030.56 755.882 1030.56 762.764C1035.9 776.529 1030.56 783.411 1025.21 790.294C1019.86 790.294 1019.86 797.176 1014.51 797.176C987.772 804.059 966.38 817.823 944.988 824.706C934.292 831.588 918.248 838.47 902.204 838.47ZM902.204 838.47C918.248 838.47 934.292 831.588 950.336 824.706C971.728 810.941 993.12 804.059 1019.86 797.176C1025.21 797.176 1030.56 797.176 1030.56 790.294C1041.25 783.411 1041.25 776.529 1035.9 762.764C1035.9 755.882 1030.56 755.882 1030.56 749C1025.21 735.235 1014.51 728.353 1009.16 714.588C993.12 687.059 982.424 659.529 971.728 632C966.38 604.47 966.38 576.941 966.38 556.294C966.38 542.529 966.38 528.764 966.38 521.882C966.38 508.117 966.38 487.47 955.684 473.706C950.336 466.823 950.336 459.941 939.64 453.059C934.292 446.176 928.944 446.176 928.944 446.176C918.248 446.176 912.9 453.059 907.552 466.823C902.204 480.588 902.204 494.353 902.204 508.117C902.204 528.765 902.204 549.412 902.204 570.059C902.204 604.47 902.204 632 902.204 666.412C902.204 680.176 902.204 700.823 896.856 714.588C896.856 735.235 891.508 755.882 886.16 776.529C886.16 790.294 880.812 804.059 880.812 817.823C886.16 831.588 891.508 838.47 902.204 838.47Z" fill="#50935E"/>
</g>
<g opacity="0.1">
<path opacity="0.1" d="M25.132 219.059C14.436 219.059 3.74 212.176 -6.956 205.294H-12.304V88.2939H-6.956C3.74 88.2939 9.088 88.2939 19.784 88.2939C35.828 95.1763 46.524 102.059 51.872 122.706C62.568 143.353 62.568 164 57.22 184.647C51.872 205.294 41.176 219.059 25.132 219.059ZM25.132 219.059C41.176 219.059 57.22 205.294 57.22 184.647C67.916 143.353 51.872 102.059 19.784 88.2939C9.088 88.2939 3.74 88.2939 -6.956 88.2939C-6.956 88.2939 -6.956 88.2939 -12.304 88.2939C-12.304 88.2939 -17.652 88.2939 -23 88.2939C-23 129.588 -23 170.882 -23 205.294H-17.652C3.74 212.176 14.436 219.059 25.132 219.059Z" fill="#50935E"/>
</g>
<g opacity="0.1">
<path opacity="0.1" d="M319.272 673.294C313.924 673.294 308.576 666.411 308.576 652.647C308.576 638.882 308.576 625.117 313.924 611.353C313.924 597.588 319.272 583.823 324.62 570.059C324.62 556.294 324.62 542.529 329.968 535.647C335.316 508.117 335.316 480.588 329.968 453.059C329.968 446.176 329.968 432.412 329.968 425.529C329.968 411.764 335.316 404.882 340.664 404.882C340.664 404.882 346.012 404.882 351.36 404.882C356.708 404.882 362.056 411.764 367.404 418.647C378.1 432.412 394.144 439.294 410.188 453.059L415.536 459.941C426.232 466.823 436.928 473.706 447.624 487.47C458.32 501.235 463.668 508.117 458.32 521.882C463.668 542.529 458.32 556.294 447.624 570.059C436.928 583.823 426.232 597.588 410.188 604.47C394.144 618.235 372.752 638.882 356.708 652.647C346.012 659.529 340.664 666.411 329.968 673.294C324.62 673.294 324.62 673.294 319.272 673.294ZM319.272 680.176H324.62C335.316 673.294 346.012 666.411 356.708 659.529C378.1 645.764 394.144 625.117 410.188 611.353C420.884 597.588 436.928 590.706 442.276 576.941C458.32 556.294 463.668 542.529 463.668 521.882C463.668 508.117 458.32 494.353 452.972 487.47C442.276 473.706 431.58 459.941 415.536 453.059C399.492 439.294 383.448 432.412 367.404 411.764C362.056 411.764 356.708 404.882 351.36 404.882C346.012 404.882 346.012 404.882 340.664 404.882C335.316 398 329.968 404.882 329.968 418.647C329.968 425.529 329.968 439.294 329.968 446.176C335.316 473.706 335.316 501.235 329.968 528.764C324.62 556.294 313.924 583.823 308.576 611.353C308.576 625.117 303.228 638.882 303.228 659.529C308.576 673.294 313.924 680.176 319.272 680.176Z" fill="#50935E"/>
</g>
<g opacity="0.1">
<path opacity="0.1" d="M715.024 88.2947C704.328 81.4123 698.98 74.53 698.98 60.7653C698.98 53.8829 698.98 47.0005 704.328 40.1182H709.676C715.024 40.1182 715.024 47.0006 720.372 53.8829C731.068 60.7653 731.068 74.53 715.024 88.2947C720.372 88.2947 720.372 88.2947 715.024 88.2947ZM715.024 88.2947C715.024 88.2947 720.372 88.2947 720.372 81.4123C731.068 74.53 736.416 60.7653 731.068 47.0005C731.068 40.1182 725.72 33.2358 720.372 33.2358C715.024 33.2358 715.024 33.2358 715.024 40.1182C693.632 53.8829 704.328 81.4123 715.024 88.2947Z" fill="#50935E"/>
</g>
<g opacity="0.1">
<path opacity="0.1" d="M164.18 590.706H158.832C142.788 583.824 132.092 576.942 126.744 563.177C110.7 549.412 94.656 535.647 83.96 521.883C73.264 515 67.916 508.118 57.22 501.236C51.872 494.353 46.524 487.471 46.524 480.589C30.48 459.942 30.48 439.294 46.524 418.647C51.872 411.765 62.568 404.883 67.916 398C89.308 370.471 110.7 349.824 132.092 336.059H137.44C142.788 322.294 148.136 322.294 158.832 315.412H164.18C169.528 315.412 174.876 322.294 180.224 329.177C185.572 342.942 185.572 363.589 185.572 384.236C185.572 404.883 185.572 418.647 185.572 439.294V453.059C185.572 466.824 185.572 487.471 185.572 508.118C185.572 515 185.572 515 185.572 521.883C185.572 535.647 185.572 549.412 185.572 563.177C185.572 570.059 185.572 576.942 180.224 576.942C174.876 590.706 169.528 590.706 164.18 590.706ZM164.18 597.589C169.528 597.589 174.876 590.706 180.224 583.824C180.224 576.941 185.572 576.941 185.572 570.059C190.92 549.412 185.572 528.765 185.572 515C185.572 494.353 185.572 473.706 185.572 459.941C185.572 439.294 185.572 418.647 190.92 391.118C190.92 370.471 190.92 356.706 185.572 336.059C174.876 315.412 169.528 315.412 164.18 315.412H158.832C148.136 315.412 142.788 322.294 137.44 329.177C110.7 349.824 89.308 370.471 67.916 391.118C57.22 398 51.872 404.883 46.524 411.765C30.48 432.412 30.48 453.059 41.176 480.589C46.524 487.471 51.872 494.353 57.22 501.236C78.612 521.883 105.352 542.53 126.744 570.059C132.092 576.941 142.788 590.706 158.832 590.706C158.832 590.706 158.832 597.589 164.18 597.589Z" fill="#50935E"/>
</g>
<g opacity="0.1">
<path opacity="0.1" d="M741.764 535.647C731.068 535.647 725.72 528.765 715.024 528.765C698.98 515 682.936 501.235 672.24 487.471C661.544 473.706 650.848 453.059 640.152 425.53C629.456 391.118 613.412 356.706 597.368 322.294C592.02 315.412 592.02 308.53 586.672 301.647C581.324 294.765 581.324 287.882 586.672 281C592.02 274.118 592.02 274.118 597.368 274.118C608.064 274.118 618.76 281 629.456 287.882C645.5 301.647 661.544 322.294 672.24 342.941C693.632 377.353 709.676 404.882 731.068 425.53C736.416 418.647 741.764 418.647 747.112 425.53C752.46 432.412 757.808 439.294 763.156 446.177C768.504 453.059 773.852 466.824 773.852 473.706C779.2 487.471 773.852 501.235 768.504 508.118C763.156 521.882 757.808 528.765 747.112 528.765C747.112 535.647 747.112 535.647 741.764 535.647ZM741.764 535.647H747.112C768.504 528.765 779.2 501.235 773.852 473.706C768.504 459.941 768.504 453.059 763.156 446.177C752.46 432.412 747.112 425.53 736.416 411.765C715.024 384.235 698.98 356.706 677.588 329.177C666.892 308.529 650.848 287.882 634.804 274.118C624.108 267.235 613.412 260.353 602.716 260.353C597.368 260.353 592.02 260.353 586.672 267.235C581.324 274.118 586.672 281 586.672 287.882C592.02 294.765 592.02 301.647 597.368 308.53C613.412 349.824 629.456 377.353 640.152 418.647C645.5 446.177 656.196 466.824 672.24 480.588C688.284 501.235 698.98 515 715.024 521.882C725.72 528.765 731.068 535.647 741.764 535.647Z" fill="#50935E"/>
</g>
<g opacity="0.1">
<path opacity="0.1" d="M1078.69 391.118C1073.34 391.118 1062.64 384.236 1051.95 370.471C1046.6 356.706 1041.25 342.942 1035.9 329.177C1035.9 315.412 1035.9 301.648 1046.6 301.648C1057.3 287.883 1073.34 281.001 1084.04 281.001C1100.08 281.001 1116.12 274.118 1132.17 274.118C1137.52 274.118 1137.52 274.118 1142.86 274.118C1142.86 274.118 1148.21 274.118 1148.21 281.001C1148.21 281.001 1148.21 287.883 1148.21 294.765C1148.21 301.648 1142.86 315.412 1137.52 329.177C1126.82 349.824 1110.78 370.471 1094.73 384.236C1089.38 384.236 1084.04 391.118 1078.69 391.118ZM1078.69 391.118C1084.04 391.118 1089.38 391.118 1100.08 384.236C1116.12 370.471 1132.17 349.824 1142.86 329.177C1148.21 322.295 1153.56 308.53 1153.56 294.765C1153.56 287.883 1148.21 274.118 1142.86 274.118C1137.52 274.118 1137.52 274.118 1132.17 274.118C1116.12 274.118 1100.08 281.001 1084.04 281.001C1073.34 281.001 1057.3 287.883 1046.6 294.765C1035.9 301.648 1030.56 315.412 1035.9 329.177C1041.25 342.942 1046.6 356.706 1051.95 370.471C1062.64 384.236 1067.99 391.118 1078.69 391.118Z" fill="#50935E"/>
</g>
</g>
</g>
</svg>
