<svg width="185" height="29" viewBox="0 0 185 29" fill="none" xmlns="http://www.w3.org/2000/svg">
<path d="M28.75 3.5875C28.25 3.83453 27.75 4.08155 27 4.32858C26.5 4.57561 25.75 4.82263 25.25 4.82263C25 4.82263 24.75 4.82263 24.5 4.57561C22.75 3.09345 20.75 2.5994 18.75 3.34047C15.75 4.32858 14.25 7.04587 14.75 10.0102C14.75 10.2572 14.75 10.2572 14.5 10.2572C13.5 10.2572 12.5 10.0102 11.75 9.76316C8.25 9.02208 5.25 7.04587 3 4.57561C3 4.32858 2.75 4.32858 2.5 4.08155C1.75 5.31668 1.5 6.79884 1.75 8.281C2 9.76316 3 10.9983 4.25 11.9864C4 11.9864 3.75 11.9864 3.75 11.9864C3 11.9864 2.5 11.7394 1.75 11.4923C1.5 11.4923 1.5 11.4923 1.5 11.4923C1.5 13.4686 2.5 14.9507 4 16.1858C4.5 16.6799 5.25 16.9269 6 17.174C5 17.421 4.25 17.421 3.25 17.174C3.75 18.4091 4.25 19.3972 5.25 20.1383C6.25 20.8793 7.25 21.3734 8.75 21.3734C6.25 23.3496 3.25 24.0907 0 23.8437C2.25 25.0788 4.25 26.0669 6.75 26.3139C9 26.561 11 26.561 13 26.0669C17 25.0788 20.25 22.8556 22.75 19.6442C25 16.6799 26 13.2215 26 9.26911C26 9.02208 26 9.02208 26.25 9.02208C26.75 8.77505 27.25 8.281 27.5 7.78695C27.75 7.53992 27.75 7.53992 28 7.2929C28.25 7.04587 28.25 7.04587 28.5 6.79884C28.75 6.55182 28.75 6.30479 29 6.30479C28 6.79884 27 7.04587 25.75 7.04587C27.5 6.05777 28.25 5.06966 28.75 3.5875Z" fill="white"/>
<path d="M61.304 29H66.6206V15.6348H71.1778L71.9373 10.3391H66.8738V6.55652C66.8738 5.54783 67.8865 4.53913 68.8992 4.53913H72.1905V0H67.8865C64.3421 0 61.5571 2.77391 61.5571 6.05217V10.5913H57V15.887H61.5571V29H61.304Z" fill="white"/>
<path d="M101.484 10.1263H107.293V28.619H101.484V10.1263ZM104.388 1C102.452 1 101 2.44099 101 4.36232C101 6.28364 102.452 7.72464 104.388 7.72464C106.324 7.72464 107.777 6.28364 107.777 4.36232C107.535 2.44099 106.082 1 104.388 1ZM121.814 9.64596C118.91 9.64596 117.215 11.087 116.247 12.528V9.88613H110.681V28.3789H116.489V19.2526C116.489 16.8509 116.973 14.4493 119.878 14.4493C122.782 14.4493 122.782 17.0911 122.782 19.2526V28.1387H128.59V18.0518C128.832 13.4886 127.622 9.64596 121.814 9.64596Z" fill="white"/>
<path d="M176.934 0H164.685C160.362 0 157 3.78261 157 8.06956V20.9304C157 25.4696 160.602 29 164.685 29H176.934C181.257 29 184.619 25.2174 184.619 20.9304V8.06956C184.619 3.53043 181.017 0 176.934 0ZM181.977 20.9304C181.977 23.9565 179.576 26.4783 176.694 26.4783H164.445C161.563 26.4783 159.161 23.9565 159.161 20.9304V8.06956C159.161 5.04348 161.563 2.52174 164.445 2.52174H176.694C179.576 2.52174 181.977 5.04348 181.977 8.06956V20.9304ZM170.689 7.06087C166.847 7.06087 163.725 10.3391 163.725 14.3739C163.725 18.4087 166.847 21.687 170.689 21.687C174.532 21.687 177.654 18.4087 177.654 14.3739C177.654 10.3391 174.772 7.06087 170.689 7.06087ZM170.689 19.1652C168.288 19.1652 166.126 17.1478 166.126 14.3739C166.126 11.8522 168.048 9.58261 170.689 9.58261C173.091 9.58261 175.253 11.6 175.253 14.3739C175.253 17.1478 173.331 19.1652 170.689 19.1652ZM179.816 6.55652C179.816 7.56522 179.095 8.32174 178.135 8.32174C177.174 8.32174 176.453 7.56522 176.453 6.55652C176.453 5.54783 177.174 4.7913 178.135 4.7913C179.095 4.7913 179.816 5.54783 179.816 6.55652Z" fill="white"/>
</svg>
