<svg width="29" height="24" viewBox="0 0 29 24" fill="none" xmlns="http://www.w3.org/2000/svg">
<path d="M28.75 0.5875C28.25 0.834526 27.75 1.08155 27 1.32858C26.5 1.57561 25.75 1.82263 25.25 1.82263C25 1.82263 24.75 1.82263 24.5 1.57561C22.75 0.0934485 20.75 -0.400604 18.75 0.340475C15.75 1.32858 14.25 4.04587 14.75 7.01019C14.75 7.25721 14.75 7.25721 14.5 7.25721C13.5 7.25721 12.5 7.01019 11.75 6.76316C8.25 6.02208 5.25 4.04587 3 1.57561C3 1.32858 2.75 1.32858 2.5 1.08155C1.75 2.31668 1.5 3.79884 1.75 5.281C2 6.76316 3 7.99829 4.25 8.9864C4 8.9864 3.75 8.9864 3.75 8.9864C3 8.9864 2.5 8.73937 1.75 8.49234C1.5 8.49234 1.5 8.49234 1.5 8.49234C1.5 10.4686 2.5 11.9507 4 13.1858C4.5 13.6799 5.25 13.9269 6 14.174C5 14.421 4.25 14.421 3.25 14.174C3.75 15.4091 4.25 16.3972 5.25 17.1383C6.25 17.8793 7.25 18.3734 8.75 18.3734C6.25 20.3496 3.25 21.0907 0 20.8437C2.25 22.0788 4.25 23.0669 6.75 23.3139C9 23.561 11 23.561 13 23.0669C17 22.0788 20.25 19.8556 22.75 16.6442C25 13.6799 26 10.2215 26 6.26911C26 6.02208 26 6.02208 26.25 6.02208C26.75 5.77505 27.25 5.281 27.5 4.78695C27.75 4.53992 27.75 4.53992 28 4.2929C28.25 4.04587 28.25 4.04587 28.5 3.79884C28.75 3.55182 28.75 3.30479 29 3.30479C28 3.79884 27 4.04587 25.75 4.04587C27.5 3.05777 28.25 2.06966 28.75 0.5875Z" fill="white"/>
</svg>
